<svg class="icon icon--inline" xmlns="http://www.w3.org/2000/svg" viewBox="0 0 48 48">
  <path fill="var(--theme-color-accent-primary)" d="M28.09,10.25a1.82,1.82,0,0,1-2.58-2.57l2.61-2.61A10.47,10.47,0,0,1,42.93,19.88l-10.3,10.3a10.47,10.47,0,0,1-14.81,0,1.82,1.82,0,0,1,2.57-2.57,6.84,6.84,0,0,0,9.66,0L40.36,17.3A6.83,6.83,0,0,0,30.7,7.64Z"/>
  <path fill="var(--theme-color-accent-primary)" d="M19.91,37.75a1.82,1.82,0,1,1,2.58,2.57l-2.61,2.61A10.47,10.47,0,0,1,5.07,28.12l10.3-10.3a10.47,10.47,0,0,1,14.81,0,1.82,1.82,0,0,1-2.57,2.57,6.84,6.84,0,0,0-9.66,0L7.64,30.7a6.83,6.83,0,0,0,9.66,9.66Z"/>
</svg>
