<svg class="icon icon--inline link-external" xmlns="http://www.w3.org/2000/svg" viewBox="0 0 48 48">
  <path fill="var(--theme-color-max-contrast)" d="M24,2A22,22,0,1,0,46,24,22,22,0,0,0,24,2Zm-.69,29.42-1.18,1.19a4.77,4.77,0,1,1-6.74-6.74l4.69-4.68a4.76,4.76,0,0,1,6.73,0,.83.83,0,0,1-1.17,1.17,3.11,3.11,0,0,0-4.39,0L16.57,27A3.1,3.1,0,0,0,21,31.43l1.18-1.18a.83.83,0,0,1,1.17,0A.82.82,0,0,1,23.31,31.42Zm9.3-9.29-4.69,4.68a4.76,4.76,0,0,1-6.73,0,.83.83,0,0,1,1.17-1.17,3.11,3.11,0,0,0,4.39,0L31.43,21A3.1,3.1,0,0,0,27,16.57l-1.18,1.18a.83.83,0,0,1-1.17,0,.82.82,0,0,1,0-1.17l1.18-1.19a4.77,4.77,0,1,1,6.74,6.74Z"/>
</svg>
