<svg class="icon" xmlns="http://www.w3.org/2000/svg" viewBox="0 0 48 48">
  <path d="M24,9.86A14.14,14.14,0,1,0,38.14,24,14.15,14.15,0,0,0,24,9.86ZM24,35A11,11,0,1,1,35,24,11,11,0,0,1,24,35ZM22.43,6.72V3.57a1.57,1.57,0,0,1,3.14,0V6.72a1.57,1.57,0,0,1-3.14,0Zm12.68,6.17a1.58,1.58,0,0,1,0-2.22l2.22-2.23a1.58,1.58,0,0,1,2.23,2.23l-2.23,2.22a1.54,1.54,0,0,1-1.11.46A1.56,1.56,0,0,1,35.11,12.89Zm4.45,24.44A1.58,1.58,0,0,1,38.45,40a1.61,1.61,0,0,1-1.12-.46l-2.22-2.22a1.57,1.57,0,0,1,2.22-2.23ZM46,24a1.57,1.57,0,0,1-1.57,1.57H41.28a1.57,1.57,0,0,1,0-3.14h3.15A1.57,1.57,0,0,1,46,24ZM8.44,10.67a1.57,1.57,0,1,1,2.23-2.22l2.22,2.22a1.58,1.58,0,0,1,0,2.22,1.56,1.56,0,0,1-1.11.46,1.53,1.53,0,0,1-1.11-.46ZM8.29,24a1.57,1.57,0,0,1-1.57,1.57H3.57a1.57,1.57,0,0,1,0-3.14H6.72A1.57,1.57,0,0,1,8.29,24ZM25.57,41.28v3.15a1.57,1.57,0,1,1-3.14,0V41.28A1.57,1.57,0,0,1,24,39.71h0A1.57,1.57,0,0,1,25.57,41.28ZM12.89,35.11a1.58,1.58,0,0,1,0,2.22l-2.22,2.23a1.58,1.58,0,0,1-2.23,0,1.59,1.59,0,0,1,0-2.23l2.23-2.22A1.58,1.58,0,0,1,12.89,35.11Z"/>
</svg>
