<svg class="icon" xmlns="http://www.w3.org/2000/svg" viewBox="0 0 48 48">
  <path d="M24.11,13.09A10.91,10.91,0,1,0,35,24h0A10.93,10.93,0,0,0,24.11,13.09Z"/>
  <path d="M3.37,26.06H8.18a2.06,2.06,0,0,0,0-4.12H3.37a2.06,2.06,0,1,0,0,4.12Z"/>
  <path d="M44.63,21.94H39.82a2.06,2.06,0,0,0,0,4.12h4.81a2.06,2.06,0,1,0,0-4.12Z"/>
  <path d="M24,10.22a2.07,2.07,0,0,0,2.06-2.07V3.37a2.06,2.06,0,1,0-4.12,0V8.15A2.07,2.07,0,0,0,24,10.22Z"/>
  <path d="M21.94,39.79v4.84a2.06,2.06,0,1,0,4.12,0V39.79a2.06,2.06,0,1,0-4.12,0Z"/>
  <path d="M11.34,14.26a2.06,2.06,0,0,0,2.93-2.91L10.88,7.94A2.06,2.06,0,0,0,8,10.84Z"/>
  <path d="M33.71,33.71a2.06,2.06,0,0,0,0,2.92L37.12,40A2.06,2.06,0,0,0,40,37.12l-3.41-3.41A2.06,2.06,0,0,0,33.71,33.71Z"/>
  <path d="M36.66,14.23,40,10.85a2.06,2.06,0,0,0-2.92-2.92l-3.38,3.39a2.06,2.06,0,0,0,2.92,2.91Z"/>
  <path d="M11.37,33.71,8,37.12A2.06,2.06,0,0,0,10.88,40l3.41-3.41a2.06,2.06,0,0,0-2.92-2.92Z"/>
</svg>
