<svg class="floating" width="2846" height="2038" viewBox="0 0 2846 2038">
  <path d="M1169.81,1496s-21,175-255,356c0,0-78-108-27-335" style="fill:#dceaea"/><path d="M1157.45,1494.52l24.72,3-.26,1.78-.25,1.57c-.17,1-.34,2.05-.54,3-.37,2-.78,4-1.2,5.91-.85,3.89-1.79,7.72-2.79,11.52-2,7.59-4.26,15.09-6.77,22.46a446.85,446.85,0,0,1-17.15,43.24c-6.43,14.07-13.5,27.8-21,41.26l-5.74,10-6,9.88c-1,1.64-2,3.3-3,4.92l-3.13,4.85c-2.09,3.23-4.14,6.49-6.27,9.69-34.23,51.15-75.14,97.38-120.12,138.81l-4.19,3.92-4.29,3.81-8.58,7.6-4.29,3.81-2.14,1.9-2.19,1.84-8.78,7.37-8.78,7.36c-3,2.42-6,4.77-8.95,7.15l-6.87,5.46-4.42,3.51c-.74.58-1.48,1.2-2.21,1.74l-2.15,1.45-4.31,2.92-2.15,1.46-1.08.73-.54.36-.27.18c-.1.14-.14-.12-.21-.16l-6.08-8.64c-2-3-4-6-5.81-9.27-.93-1.62-1.89-3.22-2.76-4.86l-1.67-3.2c-.92-1.77-1.77-3.57-2.66-5.36s-1.67-3.6-2.51-5.4c-3.24-7.22-6.13-14.54-8.8-21.92a371.53,371.53,0,0,1-12.72-45.06,443.51,443.51,0,0,1-7.38-46l-.6-5.78-.3-2.89-.22-2.89-.87-11.57c-.35-7.71-.81-15.43-.85-23.15-.23-7.72,0-15.43,0-23.14.09-3.85.29-7.69.43-11.54l.23-5.78c0-.48,0-1,.08-1.44l.08-1.27.07-.92,1-14.63a737.38,737.38,0,0,1,28.92-96.87l-1.29,12.82c-.41,4.27-.9,8.52-1.16,12.8l-.93,12.79-.23,3.2-.15,3.2-.28,6.39c-.88,17-.87,34-.39,50.88l-.48,6.93-.24,3.46-.16,2.38c-.11,1.82-.16,3.64-.24,5.46l-.43,10.91c-.09,3.63-.1,7.27-.15,10.9l-.06,5.46.09,5.44c.08,3.63.1,7.27.22,10.9,1.1,29,4.43,57.89,11.12,85.9A334.21,334.21,0,0,0,907,1808.18c2.58,6.64,5.35,13.18,8.42,19.49.77,1.58,1.53,3.16,2.35,4.69l.53,1h0l6.69-5.31c2.9-2.25,5.69-4.63,8.5-7l8.44-7.09,4.22-3.54,2.1-1.77,2.06-1.82,8.24-7.31,8.23-7.3,8-7.52c42.88-40,81.74-84.32,114-133,3.92-6.15,8-12.21,11.68-18.48,1.86-3.13,3.83-6.2,5.62-9.37l5.41-9.48c7-12.72,13.65-25.67,19.64-38.87a420,420,0,0,0,15.89-40.32l1.7-5.12,1.57-5.14c.54-1.71,1-3.43,1.5-5.15s1-3.44,1.41-5.17c.91-3.44,1.75-6.89,2.49-10.31.37-1.72.73-3.43,1-5.11.18-.86.31-1.68.45-2.5.07-.42.14-.83.19-1.21Z" style="fill:#202020"/><path d="M2249,410c111,157-157,609-498,176C1492.42,257.66,846,48,350.31,301.5,197,379.9,112,591,125.31,771.5c0,0,10.25,388.43-2,390-58.5,7.5-89.5,30.5-42.5,96.5,62,71,100,200,469.5,285.5,0,0,340,85,705-43,0,0,380-76,758-340,0,0,149-80,322-341,0,0,128-196,96-428,0,0,136-14,290-172,0,0,45-53,85-132,0,0-2.31-40.5-43-47,0,0-158.31,131.5-185.31,123.5,0,0-80-15-122-23,0,0-130-119-256-20,0,0-108,130-264.69-47.5l-47-25s-65.31-22.5-77,47c0,0,49.69,176.5,252,273Z" style="fill:#e8f9f9"/><path d="M1024.21,963.68c-4.07-24.4-50.63-52.22-100.33-66C578,806,161,568,144.69,745.69c0,0,578.65,132,834.31,202.31,15,15,16,45,3,51-33,35-467,213-821,179,0,0-78.49,14.27-27,27,186,46,640-54,830.6-166.84C1004.07,1020.81,1028.9,991.83,1024.21,963.68Z" style="fill:#dceaea"/><path d="M2391.81,347S2514,824,1674,1193c0,0-878,436-1570.19,26,0,0,279.19,682,1701.2,30C1805,1249,2497.81,905,2391.81,347Z" style="fill:#dceaea"/><path d="M2753,73s-26,160-303,267c0,0,8,3,6.81,35,0,0,247.19-95,321-281C2777.81,94,2788,73,2753,73Z" style="fill:#dceaea"/><path d="M1861,95s129,239,437.81,280c0,0-294.81,14-462.28-252.74C1836.53,122.26,1818,80,1861,95Z" style="fill:#dceaea"/><path d="M123.81,768l806,185s71,17,0,50c0,0-321.81,164-805,150" style="fill:#fff"/><path d="M129.54,782.09a2.12,2.12,0,0,1-1.44-1c-4.56-4.66-10.24-15.24,4.89-22.76a6.86,6.86,0,0,1,2.12-.55l40.21,9.25,434.77,99.82,217.39,49.9,54.35,12.48L909,935.51l13.59,3.12,6.79,1.56L933,941c1.43.36,2.64.71,3.92,1.09a100.35,100.35,0,0,1,14.86,5.75,64.48,64.48,0,0,1,7.52,4.3,40.38,40.38,0,0,1,7.61,6.5l.47.52.5.6c.33.42.63.78,1,1.27a30.91,30.91,0,0,1,1.87,2.93,25,25,0,0,1,2.44,6.44,23.23,23.23,0,0,1-1.1,13.56,28.85,28.85,0,0,1-1.42,3.14l-.78,1.36-.4.66-.38.57-.78,1.13c-.27.37-.53.7-.8,1l-.81,1-.82.93a53.29,53.29,0,0,1-6.65,6.2,96.47,96.47,0,0,1-13.38,8.72c-2.23,1.24-4.46,2.38-6.69,3.49l-6.3,3.06c-8.64,4.21-17.19,8.07-25.84,11.84-17.25,7.53-34.66,14.55-52.19,21.24-8.75,3.37-17.56,6.56-26.36,9.77-4.41,1.6-8.84,3.11-13.26,4.67s-8.83,3.12-13.28,4.57q-53.24,18-107.51,32.48T585.2,1125.65l-13.75,2.77c-4.59.9-9.16,1.89-13.77,2.69l-27.6,5.06c-9.21,1.6-18.45,3.06-27.67,4.6s-18.48,2.88-27.73,4.24c-18.49,2.85-37.07,5-55.62,7.41l-27.89,3c-4.65.48-9.29,1-13.95,1.45l-14,1.22c-37.25,3.51-74.61,5.49-112,6.91l-35,.89s-2.38-.07-6.37-.38-9.59-.69-16-1.22-13.68-1.18-21-1.92c-3.65-.34-7.32-.87-10.9-1.35s-7.08-1-10.4-1.55c-45-6.1-26.72-11.28,1.09-13.74-.72-.14,3.08-.44,9.18-.79l5-.28c1.78-.09,3.66-.2,5.63-.36l12.38-.87,23.5-1.59c3.22-.2,5.91-.38,7.8-.57l3-.25,11.86-.31,5.93-.15,12.29-.31,6.81-.18,6.8-.32,13.61-.63a1978,1978,0,0,0,216.7-22l26.88-4.43c4.48-.69,8.93-1.6,13.4-2.39l13.4-2.45c4.46-.85,8.94-1.58,13.38-2.51l13.35-2.69L586.9,1100c4.46-.89,8.88-1.92,13.31-2.87q53.25-11.49,105.73-26.08t103.82-32.61c8.57-2.94,17.06-6.12,25.57-9.21s17-6.38,25.36-9.74c16.82-6.65,33.52-13.64,49.87-21.1,4.06-1.88,8.15-3.78,12.07-5.71l1.58-.78,1.55-.75,1.55-.73,1.44-.72c.94-.47,1.89-.94,2.8-1.43s1.85-1,2.74-1.48a72,72,0,0,0,9.72-6.36,28.81,28.81,0,0,0,3.43-3.2,6.91,6.91,0,0,0,.59-.71c.2-.23.3-.42.45-.62a1,1,0,0,0,.13-.21,1.1,1.1,0,0,1,.09-.14h0s0,0-.06-.08a1.87,1.87,0,0,0-.14-.18,16.51,16.51,0,0,0-2.88-2.41,38.09,38.09,0,0,0-4.46-2.57,75.16,75.16,0,0,0-10.87-4.25c-.95-.29-1.91-.57-2.81-.81-.54-.16-1.86-.44-2.93-.69L917.86,963,811,938.5,597.24,889.44,169.76,791.32Z" style="fill:#202020"/><line x1="439.81" y1="853" x2="439.81" y2="1122" style="fill:#fff"/><path d="M439.81,853c-2.49,10-3.84,16.81-3.9,28.8,0,2,0,5.33,0,12.2,0,28.12,0,94.73,0,94.73s0,55.76,0,86.67c0,9.16,0,14.84,0,17.8.06,12,1.41,18.79,3.9,28.8,2.49-10,3.84-16.81,3.9-28.8,0-3,0-8.64,0-17.8,0-30.91,0-86.67,0-86.67s0-66.61,0-94.73c0-6.87,0-10.17,0-12.2C443.65,869.81,442.3,863,439.81,853Z" style="fill:#202020"/><line x1="359.81" y1="832" x2="359.81" y2="1131" style="fill:#fff"/><path d="M359.81,832c-2.49,10-3.84,16.81-3.9,28.8,0,2,0,5.33,0,12.2,0,32.77,0,110.4,0,110.4s0,65,0,101c0,9.16,0,14.84,0,17.8.06,12,1.41,18.79,3.9,28.8,2.49-10,3.84-16.81,3.9-28.8,0-3,0-8.64,0-17.8,0-36,0-101,0-101s0-77.63,0-110.4c0-6.87,0-10.17,0-12.2C363.65,848.81,362.3,842,359.81,832Z" style="fill:#202020"/><line x1="277.81" y1="815" x2="277.81" y2="1140" style="fill:#fff"/><path d="M277.81,815c-2.49,10-3.84,16.81-3.9,28.8V980s0,73,0,113.42c0,9.16,0,14.84,0,17.8.06,12,1.41,18.79,3.9,28.8,2.49-10,3.84-16.81,3.9-28.8,0-3,0-8.64,0-17.8,0-40.45,0-113.42,0-113.42V843.8C281.65,831.81,280.3,825,277.81,815Z" style="fill:#202020"/><line x1="198.81" y1="796" x2="198.81" y2="1151" style="fill:#fff"/><path d="M198.81,796c-2.49,10-3.84,16.81-3.9,28.8v297.4c.06,12,1.41,18.79,3.9,28.8,2.49-10,3.84-16.81,3.9-28.8V824.8C202.65,812.81,201.3,806,198.81,796Z" style="fill:#202020"/><path d="M808.31,940.5c-2.49,10-3.84,16.81-3.9,28.8,0,2,0,5.33,0,12.2,0,.06,0,.21,0,.21a.6.6,0,0,0,0,.11V982c0,7.92,0,14.41,0,17.66.06,12,1.41,18.79,3.9,28.8,2.49-10,3.84-16.81,3.9-28.8,0-3.25,0-9.74,0-17.66v-.22a.33.33,0,0,0,0-.11s0-.15,0-.21c0-6.87,0-10.17,0-12.2C812.15,957.31,810.8,950.51,808.31,940.5Z" style="fill:#202020"/><path d="M740.31,921.5c-2.49,10-3.84,16.81-3.9,28.8,0,2,0,5.33,0,12.2,0,7.35,0,24.75,0,24.75s0,14.57,0,22.65c0,9.16,0,14.84,0,17.8.06,12,1.41,18.79,3.9,28.8,2.49-10,3.84-16.81,3.9-28.8,0-3,0-8.64,0-17.8,0-8.08,0-22.65,0-22.65s0-17.4,0-24.75c0-6.87,0-10.17,0-12.2C744.15,938.31,742.8,931.51,740.31,921.5Z" style="fill:#202020"/><path d="M663.31,903.5c-2.49,10-3.84,16.81-3.9,28.8,0,2,0,5.33,0,12.2,0,13.39,0,45.12,0,45.12s0,26.56,0,41.28c0,9.16,0,14.84,0,17.8.06,12,1.41,18.79,3.9,28.8,2.49-10,3.84-16.81,3.9-28.8,0-3,0-8.64,0-17.8,0-14.72,0-41.28,0-41.28s0-31.73,0-45.12c0-6.87,0-10.17,0-12.2C667.15,920.31,665.8,913.51,663.31,903.5Z" style="fill:#202020"/><path d="M587.31,882.5c-2.49,10-3.84,16.81-3.9,28.8,0,2,0,5.33,0,12.2,0,19.28,0,65,0,65s0,38.24,0,59.44c0,9.16,0,14.84,0,17.8.06,12,1.41,18.79,3.9,28.8,2.49-10,3.84-16.81,3.9-28.8,0-3,0-8.64,0-17.8,0-21.2,0-59.44,0-59.44s0-45.68,0-65c0-6.87,0-10.17,0-12.2C591.15,899.31,589.8,892.51,587.31,882.5Z" style="fill:#202020"/><path d="M1434,373s-107,232-272.12,119C1016.56,392.55,801.51,477,837,593c40,131-1.9,239-153,277,0,0-285.22-62-537-126,0,0,39.15-312,249.12-431C396.12,313,852.55,38,1434,373Z" style="fill:#dceaea"/><path d="M515.31,870.5c-2.49,10-3.84,16.81-3.9,28.8,0,2,0,5.33,0,12.2,0,24.3,0,81.87,0,81.87s0,48.18,0,74.89c0,9.17,0,14.84,0,17.8.06,12,1.41,18.79,3.9,28.8,2.49-10,3.84-16.81,3.9-28.8,0-3,0-8.63,0-17.8,0-26.71,0-74.89,0-74.89s0-57.57,0-81.87c0-6.87,0-10.17,0-12.2C519.15,887.31,517.8,880.51,515.31,870.5Z" style="fill:#202020"/><path d="M877.46,960.8c-2.49,2-3.84,3.28-3.9,5.62-.06,2.53,0,15.2,0,15.2s-.06,12.67,0,15.2c.06,2.33,1.41,3.66,3.9,5.61,2.49-1.95,3.84-3.28,3.9-5.61.07-2.53,0-15.2,0-15.2s.07-12.67,0-15.2C881.3,964.08,880,962.75,877.46,960.8Z" style="fill:#202020"/><path d="M689.32,216.73s-56.07,107.8-178.76,53.84l-26.66-20c2.73-2.92,103.52-86.45,215.33-64.57C699.23,186,692.32,201.8,689.32,216.73Z" style="fill:#dceaea"/><path d="M464.2,261.75a2.62,2.62,0,0,1-1.06-1.84,19.6,19.6,0,0,1-.94-6.43,12.69,12.69,0,0,1,1.87-6.47,11.57,11.57,0,0,1,5.8-4.5A29.69,29.69,0,0,1,480.18,241a7.34,7.34,0,0,1,2.1.42L484.1,243l1.9,1.52c1.25,1,2.62,2,3.92,2.94,2.71,1.85,5.47,3.67,8.4,5.27A115.6,115.6,0,0,0,516.74,261a155.48,155.48,0,0,0,51.12,8.51,158.25,158.25,0,0,0,51.27-8.16,123.76,123.76,0,0,0,20.7-9.2l1.48-.71,1.75-.85c.68-.34,1.44-.76,2.3-1.21a106,106,0,0,0,13.16-8.21,97.89,97.89,0,0,0,7.67-6.22c1.22-1.2,2.57-2.34,3.76-3.64l1.86-1.91,1.78-2a94.76,94.76,0,0,0,12.08-17.54c5.09-10.35,7.18-18,9-22.34s3.14-5.63,4.41-4.27,2.35,5.31,2.72,11.09a70.43,70.43,0,0,1-2.33,21.51c.39-.79-.58,3.71-3.42,10.6a95.42,95.42,0,0,1-5.8,11.6,103.35,103.35,0,0,1-8.72,12.48,117.21,117.21,0,0,1-20.89,19.83c-1.61,1.14-3.06,2.24-4.4,3.12l-3.47,2.3-3.09,1.89A151.47,151.47,0,0,1,627.94,287a185.27,185.27,0,0,1-60.14,9.66,182.47,182.47,0,0,1-60.14-10A143,143,0,0,1,485,276.44c-3.68-2-7.22-4.33-10.72-6.73-1.71-1.27-3.46-2.47-5.12-3.83l-2.5-2Z" style="fill:#202020"/><ellipse cx="1067.35" cy="680.23" rx="134.66" ry="172.13" transform="translate(182.03 1584.75) rotate(-78.12)" style="fill:#dceaea"/>
  
  <circle class="eyeball" cx="1132" cy="702" r="65"/>
  <svg x="1115" y="670" height="60" width="60" style="overflow:visible;">
    <circle cx="30" cy="30" r="60" fill="transparent" class="eyeball"></circle>
    <circle cx="30" cy="30" r="16" fill="#fff" class="pupil"></circle>
  </svg>
  
  <path d="M1208.34,650.35a2.08,2.08,0,0,1-.08-1.85c.61-3.49,2.17-8.35,5.68-11.65a12,12,0,0,1,3-2.23,11.62,11.62,0,0,1,1.87-.77,12.09,12.09,0,0,1,2.17-.41c3.08-.29,7,.41,11.61,2.81a8.4,8.4,0,0,1,2.13,1.76,172.6,172.6,0,0,1,9.27,24.71,154.58,154.58,0,0,1,5.24,26.09c.35,4,.7,7.94.7,12a122.79,122.79,0,0,1-3,30.29l-.65,2.16c-.21.69-.47,1.55-.78,2.54s-.79,2.1-1.27,3.34l-1.59,4c-.58,1.46-1.39,3-2.15,4.58l-1.21,2.47a28.56,28.56,0,0,1-1.35,2.55l-3.13,5.26c-.27.45-.55.9-.82,1.36s-.62.88-.93,1.32l-1.92,2.68a58.71,58.71,0,0,1-4.11,5.36l-4.52,5.24c-1.63,1.66-3.32,3.28-5,4.91-.85.8-1.66,1.63-2.53,2.39l-2.68,2.21c-1.79,1.45-3.54,2.91-5.32,4.27l-5.48,3.72-2.67,1.78c-.89.57-1.82,1-2.71,1.55l-4.31,2.5-2,1.14a21.42,21.42,0,0,1-2,1c-2.59,1.21-4.93,2.26-7,3.16-1.06.45-2.05.87-3,1.23s-1.88.61-2.74.86c-1.7.51-3.19.9-4.46,1.17-2.55.55-4.26.64-5.27.35a1.35,1.35,0,0,1-1.05-1.9c.55-1.92,3.4-5,7.66-8.76,2.09-1.93,4.41-4.19,7-6.46.65-.58,1.33-1.14,2-1.76l2-1.91q2-1.93,4.11-3.92c-.19.09-.14,0,.13-.31s.76-.72,1.35-1.39c1.21-1.32,3.1-3.27,5.42-5.64,4.36-5,10.24-11.86,14.51-19.64a11.48,11.48,0,0,0,.8-1.46l.75-1.47c.49-1,1-2,1.48-2.92.24-.49.52-.95.72-1.45l.6-1.49,1.19-2.9a53.19,53.19,0,0,0,2-5.58l.84-2.6c.2-.86.4-1.69.59-2.49.35-1.6.78-3,1-4.35l.54-3.41c.16-.94.28-1.68.36-2.19s.07-.78.07-.78l.8-4.91c.2-1.65.32-3.32.49-5l.12-1.25c0-.41,0-.84,0-1.25l.07-2.52c0-.84.08-1.68.08-2.52l-.08-2.53c0-3.14-.33-6.29-.61-9.44A136.39,136.39,0,0,0,1208.34,650.35Z" style="fill:#202020"/><path d="M1267.46,762.81a13.76,13.76,0,0,0-2.28,3.7,12.61,12.61,0,0,0-.89,4.2,13.47,13.47,0,0,0,3.4,9.35c.24.25.5.56.84.9s.76.71,1.27,1.12a17,17,0,0,0,4.69,2.59,16.13,16.13,0,0,0,6.22.92,16.68,16.68,0,0,0,7.07-2,16.4,16.4,0,0,0,4.72-3.9c.5-.62.86-1.16,1.12-1.52l.35-.59.29-.5a14.15,14.15,0,0,0,.7-1.44,16.14,16.14,0,0,0,.41-11.78,16.65,16.65,0,0,0-3.16-5.41,16.12,16.12,0,0,0-10.52-5.43,13.41,13.41,0,0,0-9.61,2.62,12.75,12.75,0,0,0-2.91,3.14,13.83,13.83,0,0,0-1.71,4,15.53,15.53,0,0,1,6.3-4.25,16.09,16.09,0,0,1,7.44-1,11.77,11.77,0,0,1,7.56,3.93,12,12,0,0,1,2.26,3.89,11.73,11.73,0,0,1,.65,4.75,11.86,11.86,0,0,1-.92,3.72,8.39,8.39,0,0,1-.71,1.4l-.25.43c-.19.26-.45.64-.81,1.08a11.65,11.65,0,0,1-3.4,2.8,12.15,12.15,0,0,1-5.09,1.41,11.42,11.42,0,0,1-4.46-.65,12.58,12.58,0,0,1-3.39-1.86c-.37-.29-.65-.58-.92-.8s-.43-.46-.6-.64a16.09,16.09,0,0,1-3.49-6.64A15.59,15.59,0,0,1,1267.46,762.81Z" style="fill:#202020"/><path d="M1317.06,764.76a10,10,0,0,0,3.17,8,10.75,10.75,0,0,0,4.16,2.43,11.18,11.18,0,0,0,5.71.25,12,12,0,0,0,2.88-1,12.67,12.67,0,0,0,4.4-3.46,13.06,13.06,0,0,0,2.54-5.15c.11-.49.18-1,.25-1.41s.06-.84.08-1.17c0-.67,0-1.08,0-1.08a7.34,7.34,0,0,0-.08-.92,13.34,13.34,0,0,0-.47-2.2,12.76,12.76,0,0,0-14.17-8.83,11.15,11.15,0,0,0-5.25,2.26,10.74,10.74,0,0,0-3,3.73,10,10,0,0,0-.15,8.57,10.73,10.73,0,0,1,3-6.73,11.27,11.27,0,0,1,2.63-2.09,9.88,9.88,0,0,1,3.54-1.22,8.12,8.12,0,0,1,3,.09,8.34,8.34,0,0,1,6.11,5.59,7.88,7.88,0,0,1,.31,1.42,4,4,0,0,1,.06.59s0,.27,0,.7q0,.32-.06.75c-.06.27-.1.58-.17.89a8.73,8.73,0,0,1-1.63,3.32,8.25,8.25,0,0,1-2.82,2.22,7.67,7.67,0,0,1-1.85.64,9.72,9.72,0,0,1-3.74.11,11.47,11.47,0,0,1-3.21-1A10.81,10.81,0,0,1,1317.06,764.76Z" style="fill:#202020"/><path d="M1299.74,742.65a9.43,9.43,0,0,0,7.85-3.46,10.13,10.13,0,0,0,2.09-4.4,10.81,10.81,0,0,0-.45-5.78,12,12,0,0,0-5.69-6.5,11.44,11.44,0,0,0-3.55-1.19,12,12,0,0,0-1.68-.16h-.71l-.6,0a13.88,13.88,0,0,0-1.44.21,11.71,11.71,0,0,0-3.34,1.22,11.94,11.94,0,0,0-6.18,10.61,10.68,10.68,0,0,0,1.62,5.56,10.19,10.19,0,0,0,3.51,3.39,9.44,9.44,0,0,0,8.57.46,9.72,9.72,0,0,1-6.55-3.14,9.28,9.28,0,0,1-2.58-6.32,7.37,7.37,0,0,1,3.83-6.53,7.65,7.65,0,0,1,2-.76c.35-.09.67-.1.9-.15h.8a7.78,7.78,0,0,1,1,.12,7.39,7.39,0,0,1,2.19.73,7.5,7.5,0,0,1,2.64,2.31,7.37,7.37,0,0,1,.89,1.69,9.35,9.35,0,0,1-.18,6.82A9.83,9.83,0,0,1,1299.74,742.65Z" style="fill:#202020"/><path d="M1494.81,1003s467,241,255,984c0,0-453-79-556-743" style="fill:#e8f9f9"/><path d="M1496.07,1018c-.49-.3-.67-.4-1-1.3-1.36-2.85-2.6-7.13-1.57-11.13a9.83,9.83,0,0,1,3.6-5.65c2.07-1.63,5.1-2.9,9.41-3.5a7.19,7.19,0,0,1,2.27.17c.73.45,14.35,8.34,32.73,21.79l1.74,1.27,1.41,1c3.27,2.45,6.57,4.92,9.81,7.46,13,10.11,25.8,21,38.31,32.58a644.07,644.07,0,0,1,71,77.56c44.38,56.86,81.31,124.24,107.2,198.07,3.36,9.19,6.21,18.58,9.27,27.94q2.08,7.1,4.18,14.2c.68,2.38,1.41,4.74,2.06,7.13s1.26,4.79,1.9,7.19c5.25,19.12,9.44,38.65,13.32,58.33,1.72,9.88,3.66,19.76,5,29.75.73,5,1.54,10,2.22,15l1.86,15.06.93,7.55.73,7.57q.73,7.57,1.46,15.16c.44,5.07.73,10.15,1.1,15.23l.53,7.62.27,3.81.17,3.83c4.19,81.53-1.71,164.44-15.14,245.75-6.7,40.67-15.25,81-25.22,120.7q-1.87,7.46-3.74,14.89c-1.24,5-2.67,9.87-4,14.8l-5,18.41-1,3.64c-.34,1.2-.73,2.33-1.09,3.5l-2.21,7c0,.84-.58.82-1.26.59l-1.81-.33-3.61-.66-3.61-.65-3.65-.73c-1.21-.23-2.43-.5-3.66-.79l-3.67-.86-1.83-.43-1.21-.31-1.91-.48c-2.53-.66-5.06-1.33-7.56-2-5-1.4-10-2.92-14.91-4.47q-14.77-4.74-29.14-10.3a638.68,638.68,0,0,1-108.43-54.76,714.93,714.93,0,0,1-94.47-71.19c-14.49-12.93-28.3-26.36-41.51-40.11-6.65-6.82-13-13.88-19.34-20.85l-9.27-10.64-2.31-2.65-2.24-2.7-4.48-5.39q-2.25-2.68-4.47-5.37c-1.48-1.79-2.9-3.63-4.35-5.44l-8.6-10.89c-5.53-7.38-11.16-14.61-16.39-22.07-10.74-14.72-20.6-29.77-30.14-44.72-37.64-60.17-66-121.18-87.49-178.95-10.77-28.9-19.86-57-27.75-83.94-3.71-13.53-7.53-26.66-10.67-39.57q-1.21-4.82-2.43-9.58c-.81-3.17-1.61-6.32-2.31-9.46q-.36-1.59-.72-3.12c-1-4.36-1.88-8.16-2.6-11.28l-2.26-9.82s-1.33-9.49-2.87-22.32c-.36-3.21-.83-6.61-1.12-10.16s-.62-7.19-.93-10.86-.56-7.36-.8-11-.44-7.14-.49-10.51c-1.08-22.75.49-29.8,3.25-27.85s6.72,12.92,10.45,26.37c-.08-1.46,4.13,14.66,8.33,31.09,2.24,8.18,4.51,16.44,6.21,22.66.86,3.11,1.57,5.7,2.07,7.52s.84,2.85.84,2.85.8,3.45,2.19,9.5q.52,2.28,1.16,5l.66,2.84c.11.49.23,1,.35,1.51.17.77.35,1.55.54,2.33.34,1.44.64,2.89,1,4.33.74,2.88,1.47,5.79,2.22,8.71a1149,1149,0,0,0,49.91,154.29c11.18,27.52,24,55.71,38.77,84.09a861,861,0,0,0,50.52,85.1l7.2,10.56c2.45,3.5,5,7,7.48,10.46l3.77,5.25c1.25,1.76,2.59,3.46,3.88,5.19l7.84,10.4c10.73,13.72,21.87,27.39,33.72,40.7s24.28,26.34,37.28,39,26.69,24.94,40.9,36.77a673.11,673.11,0,0,0,92.13,64.55c32.89,19.05,67.87,35.6,104.43,48,9.13,3.11,18.36,5.93,27.63,8.38l3.91,1,.44-1.59q2-7.15,3.92-14.33l2-7.17,1.81-7.21,3.63-14.44,1.81-7.23c.61-2.41,1.23-4.82,1.76-7.24q3.32-14.55,6.64-29.11,3-14.62,6-29.27l.75-3.66.66-3.68,1.34-7.36,2.67-14.72c.94-4.9,1.67-9.83,2.45-14.75l2.33-14.78c5.94-39.45,10.08-79.16,12.07-118.82a989.23,989.23,0,0,0-.94-118.35c-.35-4.89-.65-9.78-1-14.65s-.93-9.72-1.4-14.58l-.7-7.28c-.25-2.42-.59-4.84-.87-7.25q-.9-7.24-1.79-14.47c-.27-2.42-.67-4.81-1-7.21l-1.09-7.18-1.08-7.18-.55-3.58-.63-3.56q-1.27-7.14-2.55-14.24l-.63-3.55-.72-3.54q-.74-3.52-1.46-7c-3.76-18.82-8.46-37.33-13.55-55.56q-2-6.83-4-13.61c-1.33-4.52-2.86-9-4.28-13.46l-2.16-6.7c-.74-2.22-1.55-4.42-2.31-6.63q-2.36-6.62-4.68-13.21-9.77-26.21-21.21-51.22t-24.75-48.44l-6.68-11.65-6.91-11.42c-1.14-1.91-2.33-3.78-3.53-5.64l-3.57-5.59c-1.2-1.85-2.35-3.73-3.59-5.55l-3.68-5.47q-14.71-21.84-30.73-41.94a618.72,618.72,0,0,0-68.21-72.71c-12-10.79-24.15-20.94-36.52-30.33l-5.48-4.11-.83-.61-1.63-1.18C1509.14,1025.59,1496.69,1018.41,1496.07,1018Z" style="fill:#202020"/><path d="M1499.81,1056s38,38,11,84c0,0,314,233,229,795.58h0S1912.81,1310,1499.81,1056Z" style="fill:#dceaea"/><path d="M1201.81,1252s16.45,50.65,50.73,42.82c0,0,34.27,379.18,487.27,690.18C1739.81,1985,1298.81,1886,1201.81,1252Z" style="fill:#dceaea"/><path d="M1749.81,1990c-3.62-3.7-7-7-10.24-10.2s-6.55-6-9.89-9c-6.71-6-14.23-11.47-24-18.27-2.65-1.84-6.68-4.51-11.59-8l-8-5.69-5.66-4-3.17-2.25-3.17-2.35-13.1-9.71c-17.74-13.46-36.68-28.63-55.56-45s-37.74-33.83-55.46-51.64-34.44-35.81-49.34-52.93-28.08-33.29-38.88-47.31c-2.76-3.47-5.25-6.89-7.69-10.08s-4.73-6.21-6.82-9.09c-4.18-5.76-7.87-10.72-10.79-14.86-5.84-8.29-9.12-13-9.12-13l-8.91-13.11c-2.79-4.23-6.18-9.39-10.09-15.34l-6.09-9.61c-1.08-1.69-2.18-3.44-3.31-5.22l-3.39-5.54c-9.29-15.07-19.84-33.06-30.63-53s-21.84-41.92-32.37-64.75-20.45-46.55-29.28-69.92c-4.41-11.68-8.62-23.26-12.45-34.59-1.91-5.68-3.8-11.27-5.55-16.79-.89-2.76-1.77-5.49-2.6-8.21q-1.18-3.83-2.34-7.59c-4.56-15-7.93-27.47-9.59-33.69a279,279,0,0,0-9.1-28.68c-3.17-8.34-6.77-16.1-10.83-25.57a176.63,176.63,0,0,0-.34,28,167.75,167.75,0,0,0,5.17,30.17c1.64,6.34,5,19,9.65,34.29q1.18,3.81,2.38,7.71c.84,2.76,1.74,5.54,2.64,8.34,1.78,5.61,3.69,11.28,5.63,17,3.89,11.51,8.16,23.25,12.63,35.11,9,23.7,19.1,47.74,29.72,70.9s21.89,45.4,32.85,65.65,21.66,38.5,31.09,53.79l3.44,5.61,3.36,5.29,6.18,9.74,10.25,15.56,9,13.29,9.24,13.16c3,4.2,6.7,9.23,10.94,15.08,2.12,2.93,4.48,6,6.92,9.23s5,6.71,7.79,10.23c11,14.24,24.33,30.63,39.43,48s32,35.69,50,53.74,37.1,35.83,56.27,52.42,38.39,32,56.4,45.64l13.29,9.85,3.22,2.38,3.22,2.28,5.74,4.08,8.13,5.74c5,3.48,9.1,6.17,11.8,8a176.83,176.83,0,0,0,26.59,15c4.08,1.91,8.26,3.44,12.56,5S1744.91,1988.44,1749.81,1990Z" style="fill:#202020"/><path d="M1260.5,1500.5c-20.62.41-37.77.53-55.6,2s-36.34,4-59.7,8.53c-6.33,1.24-15.83,3.08-27.63,5.27l-19.31,3.5-11.3,2-12.62,2.14q-12.79,2.14-26.3,4.24c-35.94,5.6-75.25,10.81-115.82,15s-82.41,7.21-123.35,8.78c-20.47.78-40.71,1.21-60.45,1.27s-39-.26-57.44-.89c-36.92-1.26-70.71-3.91-99.28-7.07s-51.9-6.82-68.07-9.66c-8.1-1.37-14.38-2.64-18.68-3.42l-6.54-1.32-6.54-1.33c-4.25-1-10.54-2.22-18.51-4.11l-6.31-1.46-6.91-1.71c-4.82-1.15-10-2.55-15.57-4-11.09-3-23.61-6.58-37.2-10.93a678.55,678.55,0,0,1-91.26-36.64c-32.58-16.13-66.34-36.56-97.43-61.76a444.81,444.81,0,0,1-82.57-87.17l-2.17-3-2.1-3.06-4.17-6.11c-1.4-2-2.67-4.13-4-6.18s-2.65-4.1-3.94-6.17l-3.76-6.25c-1.25-2.08-2.52-4.13-3.68-6.25-2.34-4.21-4.79-8.33-7-12.57l-3.33-6.29c-1.11-2.08-2.1-4.22-3.15-6.32l-3.1-6.28-2.9-6.32L90,1240.6c-.89-2.11-1.78-4.2-2.67-6.29s-1.79-4.15-2.63-6.22c-.74-1.87-1.47-3.74-2.2-5.59s-1.4-3.55-2.08-5.29-1.29-3.5-1.93-5.21l-1.84-5.08-.91-2.49c-.34-1-.1-.21-.23-.71a18.15,18.15,0,0,1-.35-2.72,13.68,13.68,0,0,1,0-1.43v-.7l.07-.69a20,20,0,0,1,1.1-5,21.58,21.58,0,0,1,5.22-7.59,34.36,34.36,0,0,1,6.69-4.92c1.86-1.17,4-2.09,6-3.1l3.21-1.3c.53-.21,1-.46,1.58-.65l1.65-.56,3.22-1.14,3.31-1c1.09-.32,2.16-.68,3.24-1l3.29-.84,3.24-.86,3.26-.72,3.22-.75,1.6-.38,1.61-.31c2.15-.43,4.27-.87,6.38-1.34l6.36-1.2c16.94-3.19,33.7-6.19,54.13-9.07-4.85-1.7-9.55-3.33-14.15-4.84s-9.12-2.76-13.61-3.94l-6.73-1.6c-2.24-.51-4.48-1-6.74-1.42-4.52-.77-9.05-1.61-13.73-2-2.33-.22-4.68-.48-7.08-.62s-4.84-.17-7.32-.22l-1.86,0-1.89,0-3.84.15c-1.3.06-2.6.11-3.92.2l-4,.44-4.1.49c-1.39.21-2.8.49-4.22.75s-2.87.53-4.33.85l-4.45,1.17-2.26.62c-.76.21-1.53.51-2.3.77L82.28,1149a82.63,82.63,0,0,0-9.67,4.67,64.34,64.34,0,0,0-12.7,9.32,52.85,52.85,0,0,0-7,8.07l-1.66,2.46c-.54.85-1,1.77-1.53,2.68A53.36,53.36,0,0,0,47,1182a51.1,51.1,0,0,0-3.06,13.44l-.15,1.79c0,.6,0,1.21,0,1.81-.05,1.21,0,2.43.06,3.67a48.48,48.48,0,0,0,1,7.64l.25,1.12a6.87,6.87,0,0,0,.41.58l.21.28c.06.1.18.18.13.31-.05.47-.23,1,0,1.32l.29.81,1,2.64,2,5.4c.68,1.82,1.3,3.69,2,5.54s1.47,3.73,2.21,5.63l2.34,5.94c.9,2.21,1.86,4.41,2.8,6.63l2.84,6.69c1,2.22,2,4.45,3,6.69l3.1,6.73q1.65,3.35,3.31,6.71c1.12,2.24,2.18,4.52,3.37,6.75l3.55,6.72c2.31,4.53,4.93,9,7.44,13.45,1.24,2.26,2.6,4.46,3.93,6.69l4,6.68c1.38,2.22,2.81,4.41,4.22,6.62s2.8,4.45,4.3,6.61l4.46,6.55,2.25,3.28,2.34,3.23A475.42,475.42,0,0,0,199,1433.27c33.18,26.87,69,48.48,103.28,65.44A708.87,708.87,0,0,0,397.81,1537c14.16,4.52,27.16,8.22,38.68,11.34,5.77,1.49,11.15,2.94,16.14,4.13l7.16,1.76,6.53,1.52c8.26,1.94,14.75,3.25,19.15,4.23l6.76,1.36,6.75,1.37c4.43.81,10.92,2.13,19.26,3.55,16.67,2.93,40.69,6.73,70,10s63.93,6,101.64,7.3c18.86.66,38.49,1,58.61,1s40.74-.49,61.57-1.27c41.66-1.58,84.16-4.68,125.34-8.89s81-9.49,117.47-15.18q13.65-2.13,26.65-4.31l12.78-2.18,11.45-2,19.57-3.6c12-2.25,21.57-4.16,28-5.48,23.65-4.85,41.86-10.26,58.72-16.82S1242.45,1510.54,1260.5,1500.5Z" style="fill:#202020"/><path d="M2423,322c-.16,5.15-.49,10.06-.82,14.81s-.71,9.32-1.06,13.84c-.71,9-1.4,17.64-1.9,26.46-1.08,17.66-1.37,36.06-1.32,59.55,0,1.59,0,3.38,0,5.35s0,4.14-.07,6.47,0,4.83-.09,7.49-.15,5.48-.23,8.44-.19,6.06-.34,9.29-.27,6.59-.46,10.07q-.29,4.61-.58,9.36c-.18,3.38-.46,6.81-.75,10.29s-.53,7-.87,10.57-.72,7.17-1.08,10.82c-1.58,14.58-3.48,29.79-6.09,45.35-1.18,7.8-2.74,15.65-4.16,23.61q-1.22,5.94-2.44,11.94c-.41,2-.82,4-1.24,6s-.91,4-1.36,6q-1.38,6-2.77,12.07t-3,12.07q-.77,3-1.54,6.06l-1.67,6L2385.77,666c-4.78,16-9.78,32-15.47,47.54a817.13,817.13,0,0,1-37.34,87.7c-13.31,26.8-27.1,50.61-39.47,70.41l-4.55,7.25c-1.5,2.35-2.89,4.68-4.39,6.86q-4.43,6.6-8.34,12.47l-3.79,5.66-3.65,5.15-6.44,9.05c-1.94,2.72-3.64,5.17-5.18,7.25l-4,5.23-3.28,4.34-7.64,10.1c-2.56,3.18-5.7,7.08-9.34,11.62l-5.85,7.28c-2.07,2.59-4.4,5.21-6.77,8-9.46,11.28-21.12,24.47-34.6,38.78-6.84,7.07-13.83,14.7-21.6,22.16l-11.71,11.55c-4,3.89-8.21,7.69-12.39,11.63l-6.35,5.91c-2.13,2-4.25,4-6.49,5.92l-13.41,11.8-6.81,6-7,5.83-14.17,11.78c-2.35,2-4.83,3.86-7.25,5.79l-7.33,5.75-7.35,5.76c-2.45,1.92-4.88,3.88-7.41,5.71l-15,11.14-7.5,5.55c-2.52,1.83-5.08,3.58-7.62,5.36-10.17,7.07-20.14,14.28-30.33,20.83l-15,9.92c-2.46,1.66-5,3.22-7.48,4.77l-7.44,4.64-14.59,9.09c-1.2.74-2.38,1.5-3.59,2.21l-3.6,2.12-7.13,4.19-13.86,8.14c-2.27,1.32-4.48,2.68-6.73,3.92l-6.65,3.69-21.57,12c-3.21,1.83-6.34,3.37-9.25,4.92l-8.24,4.3-13.44,7-5.27,2.76-4.4,2.18c-10.63,5.28-20,10.28-28.49,15.23-8.61,4.8-16.44,9.46-23.92,14.37-3.74,2.44-7.4,4.93-11,7.5s-7.34,5-11,7.65c-7.41,5.28-15,11-23.2,17.23,10.15-1.68,19.5-3.31,28.49-5.12,4.5-.9,8.91-1.84,13.29-2.86s8.65-2.29,13-3.57c8.68-2.57,17.5-5.47,26.86-9.08,9.29-3.78,19.15-8.18,30-13.46l4.5-2.18,5.4-2.79,13.74-7.12,8.42-4.38c3-1.57,6.18-3.14,9.46-5l22-12.19,6.8-3.76c2.3-1.27,4.57-2.66,6.89-4l14.17-8.32,7.29-4.29,3.69-2.17c1.24-.72,2.45-1.51,3.68-2.26l14.94-9.31,7.61-4.75c2.56-1.58,5.14-3.18,7.66-4.88l15.39-10.17c10.44-6.72,20.67-14.11,31.11-21.37,2.59-1.83,5.22-3.62,7.81-5.5l7.69-5.71,15.43-11.44c2.6-1.88,5.09-3.89,7.61-5.86l7.55-5.93,7.53-5.92c2.49-2,5-3.89,7.45-5.95q7.32-6.11,14.58-12.13l7.22-6,7-6.15,13.8-12.16c2.3-2,4.49-4.06,6.69-6.11l6.54-6.1c4.31-4.06,8.64-8,12.76-12l12.07-11.92c8-7.7,15.23-15.58,22.28-22.88,13.91-14.79,26-28.44,35.72-40.11,2.45-2.92,4.85-5.63,7-8.3l6-7.54,9.65-12,7.91-10.45s1.17-1.56,3.4-4.49l4.1-5.42c1.6-2.15,3.36-4.69,5.38-7.5l6.67-9.36,3.79-5.34q1.89-2.83,3.93-5.86l8.65-12.92c1.56-2.26,3-4.68,4.56-7.11l4.73-7.51c12.84-20.52,27.17-45.21,41-73a848,848,0,0,0,38.84-91.06c5.91-16.15,11.12-32.75,16.08-49.39q1.76-6.27,3.5-12.54l1.74-6.26,1.59-6.29,3.18-12.54,2.88-12.54,1.41-6.24,1.29-6.24c.85-4.15,1.73-8.28,2.53-12.4,1.49-8.27,3.1-16.42,4.33-24.52,2.7-16.17,4.67-32,6.31-47.12q.57-5.69,1.12-11.24c.35-3.71.6-7.37.9-11s.58-7.17.77-10.69q.3-4.95.59-9.73c.19-3.61.31-7.11.46-10.47s.27-6.58.33-9.66.14-6,.2-8.78,0-5.37.07-7.8l0-6.72c0-2.06-.05-3.92-.07-5.58-.3-24.45-2.87-43.59-7.08-61.39a255.31,255.31,0,0,0-7.8-26.17c-1.56-4.35-3.24-8.74-5.09-13.2S2425.28,326.63,2423,322Z" style="fill:#202020"/><path d="M131.16,764.69a2.43,2.43,0,0,1-.64,2c-2,3.38-5.55,7.68-10.42,9.41a12.63,12.63,0,0,1-3.92.84,12.3,12.3,0,0,1-4.45-.61c-3.13-1-6.59-3.25-10.22-7.3a8.86,8.86,0,0,1-1.41-2.46,467.38,467.38,0,0,1-.13-49.31c0-.89.08-1.79.13-2.7s.09-1.54.13-2.31q.22-4.38.55-8.76c.2-2.92.42-5.85.69-8.78q1.52-17.59,4.14-35.37c1.75-11.85,3.93-23.73,6.45-35.64s5.48-23.84,8.83-35.76,7.14-23.81,11.33-35.67l3.21-8.89q1.73-4.41,3.44-8.84c.59-1.47,1.14-3,1.74-4.42l1.85-4.4c1.23-2.93,2.43-5.88,3.71-8.8,2.65-5.82,5.18-11.7,8-17.46,1.41-2.89,2.76-5.81,4.23-8.68l4.46-8.61c1.45-2.9,3-5.72,4.62-8.56s3.12-5.71,4.76-8.53,3.32-5.61,5-8.42c.84-1.41,1.65-2.83,2.52-4.22l2.63-4.15,5.27-8.33,5.53-8.19,2.77-4.11c.93-1.36,1.92-2.69,2.88-4l5.82-8.06a524.34,524.34,0,0,1,52.75-60.77l3.6-3.6,3.72-3.48,7.44-7,1.87-1.75,1.92-1.68,3.85-3.38,7.71-6.76,7.94-6.52,4-3.26c1.32-1.09,2.65-2.18,4-3.21l8.19-6.27c2.73-2.1,5.45-4.21,8.28-6.18a614.89,614.89,0,0,1,70.55-44.29A709.64,709.64,0,0,1,467.07,222l9.91-3.8,5-1.91,2.49-.94,2.5-.88,20.11-7,20.34-6.47c3.39-1.12,6.83-2,10.25-3L547.92,195c27.48-7.65,55.58-14.15,83.56-19.48l5.39-1.07,5.41-1c3.61-.64,7.19-1.24,10.78-1.81,7.17-1.15,14.34-2.17,21.52-3.13q21.54-2.85,43.19-4.79t43.42-3.16c14.51-.79,29-1.37,43.61-1.64s29.15-.34,43.75-.22,29.2.56,43.81,1.25a1336.25,1336.25,0,0,1,174.71,19.24,1282.9,1282.9,0,0,1,170.5,42.53q41.68,13.59,82.13,30.1l10.08,4.15,5,2.07c1.68.7,3.33,1.45,5,2.17l19.94,8.72c13.14,6.11,26.32,12.1,39.21,18.63a1181.18,1181.18,0,0,1,278,191.94l3.8,3.47,1.9,1.73,1.85,1.78,7.4,7.12,14.73,14.19q7.17,7.26,14.29,14.5c4.75,4.83,9.54,9.6,14.09,14.57,9.16,9.88,18.47,19.55,27.19,29.64l13.22,15c4.33,5,8.53,10.14,12.79,15.18l6.34,7.58c2.1,2.54,4.28,5,6.28,7.59l12.2,15.37,12,15.1c3.91,4.87,7.71,9.8,11.78,14.45a420,420,0,0,0,51.23,51.52c18.31,15,37.72,28,58.23,37.11,1.28.58,2.55,1.19,3.83,1.75l3.88,1.53,3.88,1.53,1.93.77,2,.65,7.84,2.6,7.91,2.12a166.61,166.61,0,0,0,31.81,4.7,157.34,157.34,0,0,0,61.43-9.88,188.25,188.25,0,0,0,27.81-13.28l3.31-2,1.65-1c.55-.34,1.08-.7,1.61-1l6.41-4.19,6.21-4.46,1.55-1.11,1.5-1.18,3-2.35a240.73,240.73,0,0,0,22.51-20.2l2.65-2.66,2.56-2.75c1.68-1.84,3.42-3.62,5.06-5.5l4.87-5.63c1.65-1.84,3.13-3.83,4.7-5.73,3.16-3.78,6-7.78,9-11.66l4.23-6,2.09-3,2-3,4-6.05,3.77-6.13c.63-1,1.27-2,1.87-3.06l1.78-3.1c1.19-2.07,2.37-4.12,3.54-6.18a387,387,0,0,0,23.18-50.23c1.52-4.23,3.14-8.38,4.48-12.6q1-3.15,2.1-6.27c.63-2.1,1.27-4.2,1.9-6.28l1.18-3.9c.7-2.57,1.36-5,2-7.19s1.17-4.26,1.59-6.12c.88-3.71,1.62-6.61,2.06-8.61s.64-3.06.64-3.06.79-2.73,2.1-7.32c.61-2.31,1.34-5.08,2.17-8.21s1.59-6.64,2.52-10.4a472.13,472.13,0,0,0,8.58-50.55c.09-.86.18-1.7.26-2.52s.12-1.63.18-2.42c.13-1.58.26-3.08.38-4.52s.29-2.81.37-4.1.19-2.54.28-3.7c.19-2.34.44-4.42.65-6.24s.38-3.4.61-4.75c1-5.38,2.3-7,4-5.78a11.39,11.39,0,0,1,2.72,3.92c.48,1,1,2.11,1.48,3.38a41.51,41.51,0,0,1,1.48,4.2q.69,2.29,1.38,4.94c.45,1.76,1,3.62,1.32,5.58s.77,4,1.14,6.12c.17,1.06.38,2.14.53,3.23s.28,2.2.42,3.32c.07-.47.25.52.49,2.62.11,1,.25,2.38.42,3.94s.22,3.35.34,5.33.22,4.16.34,6.48.08,4.77.13,7.33c0,1.28,0,2.59,0,3.91s-.05,2.66-.07,4c-.07,2.71-.08,5.48-.21,8.25s-.3,5.54-.45,8.27-.43,5.43-.63,8c-.39,5.24-1.05,10.11-1.53,14.3-.23,2.11-.53,4-.78,5.72s-.48,3.19-.66,4.41c-.37,2.45-.59,3.85-.59,3.85l-.78,3.25c-.52,2.12-1.22,5.25-2.25,9.19l-1.76,6.51c-.33,1.19-.66,2.42-1,3.7l-.59,1.94q-1.46,4.82-3,9.71c-.7,2.1-1.41,4.21-2.11,6.33s-1.39,4.25-2.19,6.36a425.19,425.19,0,0,1-22.11,51.11,394.46,394.46,0,0,1-31,50.38,323,323,0,0,1-41.7,46.93l-3,2.75c-1,.91-2.06,1.78-3.09,2.67-2.07,1.76-4.12,3.56-6.24,5.3l-6.49,5.1-1.64,1.28-1.68,1.22-3.39,2.43a223.4,223.4,0,0,1-28.92,17.71,212.82,212.82,0,0,1-32.3,13.36,195.46,195.46,0,0,1-35.15,7.42l-4.54.45c-1.51.12-3,.36-4.55.38l-9.16.35c-6.12,0-12.28-.11-18.42-.75l-4.62-.39-4.59-.65-4.59-.66-2.3-.34-2.28-.46-9.12-1.88-9-2.41-2.26-.61c-.75-.22-1.48-.48-2.22-.72l-4.44-1.46-4.44-1.48c-1.48-.49-2.91-1.11-4.36-1.67-2.9-1.16-5.83-2.26-8.7-3.48l-8.52-3.91a263.46,263.46,0,0,1-32.58-18.64c-21-13.82-40.07-30.45-57.84-48.52-2.2-2.27-4.48-4.5-6.64-6.82l-6.42-7c-4.37-4.64-8.42-9.54-12.57-14.39l-3.11-3.65c-1-1.22-2-2.49-3-3.73q-3-3.75-6-7.51l-11.68-14.68-11.61-14.63c-1.92-2.47-4-4.83-6-7.24l-6-7.21-12.14-14.48-12.6-14.23a1192.57,1192.57,0,0,0-110.25-109.46l-15-13q-7.68-6.3-15.38-12.63l-7.73-6.33c-2.57-2.12-5.25-4.11-7.87-6.17l-15.85-12.3c-5.33-4.06-10.78-8-16.19-12l-8.13-6c-2.71-2-5.51-3.87-8.27-5.81L1519,393.31l-17-11.2-8.52-5.6-8.67-5.39-8.67-5.41-4.35-2.7-2.17-1.36-2.21-1.3-17.68-10.41-4.43-2.6-4.49-2.5-9-5-9-5c-3-1.7-6.08-3.22-9.11-4.84-6.11-3.19-12.19-6.43-18.33-9.59l-18.58-9.18-4.65-2.3-4.71-2.2-9.42-4.38A1180.56,1180.56,0,0,0,1201.47,243a1257.23,1257.23,0,0,0-164.85-37.38A1314.33,1314.33,0,0,0,868,190.14a1240.05,1240.05,0,0,0-167.87,6.56c-13.8,1.53-27.56,3.29-41.13,5.44-6.77,1.07-13.59,2.23-20.06,3.53l-20.48,4.11c-27,5.68-53.56,12.3-79.62,20.12-52,15.83-101.79,36.39-147.38,62.5s-86.86,57.7-121.7,94.07a484.21,484.21,0,0,0-84.6,120.31,524.15,524.15,0,0,0-44.61,132.67,546.36,546.36,0,0,0-8.79,66.43q-.33,5.48-.66,10.86l-.11,2.52c-.58,13.29-.59,24.45-.38,32.36S131.13,764.21,131.16,764.69Z" style="fill:#202020"/><path d="M2298,401c-7.64-1.16-14.54-2.56-21.2-3.83s-13-2.49-19.58-3.6c-13.08-2.24-26.77-4-44.27-5.88-6.56-.7-17.67-2-31-4.2l-8.06-1.37c-9.23-1.62-18.58-3.58-28-5.77s-19-4.7-28.53-7.51c-4.79-1.37-9.57-2.91-14.38-4.43l-7.19-2.42c-2.41-.8-4.8-1.66-7.19-2.54-38.36-13.8-76.62-33-111.32-57.82l-3.27-2.3-3.2-2.39-6.42-4.78-6.28-5-3.14-2.48-3.07-2.56-6.13-5.13-6-5.29c-4-3.47-7.85-7.19-11.74-10.81A449.05,449.05,0,0,1,1885.53,214a478,478,0,0,1-34.82-50.76,529,529,0,0,1-27.23-52.14c-.47-1-.94-2-1.4-3,0-.09,0-.08,0-.06h0l.08-.62c.15-1,.31-2.08.5-3.12a92.91,92.91,0,0,1,3-12.2,62.89,62.89,0,0,1,10.52-20.43,34.42,34.42,0,0,1,15.71-11.33,42.89,42.89,0,0,1,19.2-1.66,86.61,86.61,0,0,1,19.63,5,149.61,149.61,0,0,1,18,8.31c1.42.76,2.83,1.51,4.2,2.31l1.51.87s0,0,0,0l3,3.25,3.35,3.57c4.42,4.65,8.71,8.91,12.8,12.84a393.68,393.68,0,0,0,63.49,50c21.41,13.37,43.13,23.28,64.4,28.95s42.05,6.86,60.25,4a128.48,128.48,0,0,0,25.16-6.5,131,131,0,0,0,20.49-9.66c1.54-.85,3-1.8,4.39-2.67l2.11-1.32c.68-.44,1.34-.92,2-1.37l4.31-3a4.1,4.1,0,0,0,.8-.69l.76-.74.69-.65,1.37-1.28c3.71-3.38,7.31-6.38,10.58-9,6.54-5.21,11.83-8.92,15.49-11.43s5.75-3.8,6.08-4-1,.66-4.17,2.73a251.64,251.64,0,0,1,37.71-20.91,220.28,220.28,0,0,1,21.58-8.3c4.84-1.56,7.53-2.3,9-2.7l1.73-.47s.92-.26,2.72-.69l3.35-.82,4.65-1q2.64-.52,5.91-1.11c2.18-.33,4.56-.77,7.15-1.07a167.64,167.64,0,0,1,65.95,4.41A190.93,190.93,0,0,1,2429.23,123l3.69,2.57c1.24.86,2.44,1.81,3.67,2.71l3.68,2.76,3.5,2.8,1.76,1.41c.3.24.6.46.88.72l1.09.94c1.51,1.27,3,2.41,4.46,3.52,3,2.22,6,4.29,9.15,6.25a154.73,154.73,0,0,0,19.8,10.49,161.2,161.2,0,0,0,21.71,7.85c3.74,1.17,7.6,2,11.46,2.87l1.45.33,1.47.26,2.95.51c2,.32,3.94.7,5.93,1a176.61,176.61,0,0,0,24.35,1.55,190.28,190.28,0,0,0,49.64-7.05,241.82,241.82,0,0,0,47.93-19.15c1-.47,1.92-1,2.87-1.56l2.84-1.62,5.7-3.24,2.86-1.63,1.42-.82,1.38-.89,5.53-3.57,5.54-3.59c.92-.61,1.87-1.18,2.77-1.82l2.67-1.93,10.74-7.8a442.47,442.47,0,0,0,40.44-35c3.2-3.15,6.48-6.23,9.63-9.45l9.28-9.83,2.32-2.46.58-.62.25-.26,0,0-.08.09h.12l.83,0c.47,0,.94,0,1.42,0,.95,0,1.91,0,2.86,0,1.9,0,3.78.17,5.64.35,7.42.79,14.28,3,18.83,6.61a19.43,19.43,0,0,1,5.39,6.42,28.61,28.61,0,0,1,2.62,8.84c.78,6.72-.12,14.52-2.11,22.33-.39,2-1.09,3.93-1.65,5.89-.3,1-.57,2-.9,3l-1.06,2.95-1.06,3a4.19,4.19,0,0,1-.16.45s0,0,0,.06l-.4.67c-1.08,1.82-2.21,3.67-3.36,5.5-4.61,7.38-9.54,14.68-14.62,21.85-2.5,3.61-5.15,7.13-7.72,10.69s-5.25,7-8,10.5c-10.77,13.9-22.06,27.32-33.74,40.22s-23.72,25.32-36.15,37.06c-3.05,3-6.23,5.83-9.36,8.71s-6.22,5.78-9.44,8.51l-9.52,8.3-9.67,8-4.81,4-4.9,3.82-9.75,7.6-9.87,7.27-4.91,3.61q-2.49,1.74-5,3.45l-9.9,6.86c-3.32,2.22-6.68,4.34-10,6.51l-5,3.21-2.47,1.6-2.52,1.52-8.52,5.14c-2.5,1.49-4.91,3-7.33,4.37l-7.05,3.95-6.59,3.69-3.11,1.75-3,1.56L2528,354.45l-4.31,2.23c-1.31.69-2.54,1.23-3.61,1.75-15.85,7.72-28.12,14.12-39.62,20.8-2.89,1.63-5.73,3.3-8.56,5l-4.24,2.64c-1.41.9-2.83,1.82-4.29,2.66-5.81,3.48-11.79,7.25-18.34,11.44,7.68-.63,14.79-1.28,21.67-2.1,1.73-.18,3.41-.46,5.08-.75l5-.9c3.33-.62,6.64-1.3,10-2.05,13.3-3.16,27-7.85,43.53-15.71,1.12-.54,2.4-1.09,3.77-1.79l4.5-2.3,11.06-5.66,3.15-1.62,3.24-1.8,6.86-3.82,7.33-4.09c2.51-1.41,5-3,7.61-4.53l8.84-5.34,2.62-1.57,2.56-1.66L2597,342c3.43-2.24,6.92-4.44,10.36-6.75l10.27-7.11,5.17-3.57,5.08-3.74,10.23-7.54,10.1-7.87,5.07-4,5-4.11,10-8.29,9.85-8.58c3.33-2.84,6.52-5.85,9.77-8.81s6.52-5.92,9.68-9c12.85-12.14,25.29-25,37.38-38.31s23.74-27.23,34.9-41.62c2.82-3.58,5.51-7.27,8.27-10.9s5.42-7.36,8-11.12c5.3-7.48,10.43-15.08,15.35-23,1.23-2,2.45-3.95,3.67-6l1.26-2.18a7.06,7.06,0,0,0,.67-1.5l.42-1.18,1.22-3.39,1.21-3.4c.39-1.14.72-2.33,1.07-3.49.68-2.35,1.47-4.63,2-7.09,2.37-9.58,3.89-19.89,2.6-31a51.93,51.93,0,0,0-5.12-16.78,43.07,43.07,0,0,0-11.72-14,51.85,51.85,0,0,0-15.24-8.11,72.6,72.6,0,0,0-15.59-3.37c-2.57-.25-5.13-.44-7.67-.48-1.27,0-2.54,0-3.81,0-.63,0-1.27,0-1.9,0l-1,0-1.52.11-1.53.1-1.63.17c-1.1.11-2.19.26-3.28.41l-1.63.23a.77.77,0,0,0-.69.36l-.59.57L2740.34,40l-6.07,6.43-8.9,9.43c-3,3.08-6.14,6-9.19,9a419,419,0,0,1-38.26,33.17l-10,7.28-2.5,1.82c-.84.59-1.71,1.12-2.57,1.68l-5.14,3.33-5.12,3.31-1.28.83-1.31.75-2.63,1.5-5.24,3-2.61,1.5c-.87.49-1.73,1-2.63,1.42a218,218,0,0,1-43.21,17.31c-29.13,8.11-58.74,8.26-84.56.65a137.82,137.82,0,0,1-18.64-6.74,130.2,130.2,0,0,1-16.86-8.92c-2.64-1.64-5.17-3.37-7.55-5.14-1.18-.88-2.34-1.79-3.36-2.65l-.36-.31-.42-.36c-.33-.3-.69-.57-1-.85l-2.08-1.66-4.12-3.3-4-3.05c-1.35-1-2.66-2-4-3l-4.06-2.83A214.63,214.63,0,0,0,2377.71,73a190.88,190.88,0,0,0-75.16-5c-2.94.34-5.62.83-8.08,1.2s-4.67.87-6.66,1.25l-5.21,1.14-3.76.92c-2,.48-3.05.78-3.05.78l-1.93.52c-1.65.45-4.66,1.27-10,3A239.77,239.77,0,0,0,2240,85.94a274.87,274.87,0,0,0-41.2,22.83l4.52-3c-.36.24-2.61,1.66-6.61,4.38s-9.73,6.75-16.91,12.45c-3.59,2.86-7.51,6.13-11.78,10l-1.63,1.5-.82.79h0l-2.81,1.94c-.56.38-1.11.79-1.69,1.16l-1.76,1.09c-1.2.72-2.38,1.54-3.66,2.23a106.29,106.29,0,0,1-37.41,13.26c-14.88,2.32-32.18,1.43-50.71-3.48s-38.19-13.81-58-26.21a370.08,370.08,0,0,1-59.63-47c-3.86-3.71-7.91-7.74-12-12.09l-3.11-3.31-1.55-1.7-2-2.24c-.55-.6-1.05-1.26-1.64-1.83l-2.13-1.23-2.82-1.61c-1.51-.9-3.1-1.74-4.69-2.6A176.09,176.09,0,0,0,1899,41.71a110.21,110.21,0,0,0-25.15-6.37,75,75,0,0,0-14.44-.35,61.22,61.22,0,0,0-15.21,3.13,56.52,56.52,0,0,0-14.44,7.48,62.53,62.53,0,0,0-11.83,11.25,86.06,86.06,0,0,0-14.65,28.05,116.3,116.3,0,0,0-3.79,15.3q-.35,2-.63,4l-.16,1.16q-.12.9-.21,1.8c-.13,1.19-.22,2.39-.3,3.59l-.06.89c0,.15-.07.31,0,.44l.17.42.7,1.66c.45,1.11,1,2.15,1.45,3.22s1.09,2.38,1.64,3.57a553.41,553.41,0,0,0,28.42,54.44A504.57,504.57,0,0,0,1867,228.6,471,471,0,0,0,1911.65,278c4.09,3.82,8.12,7.73,12.37,11.4l6.31,5.57,6.47,5.41L1940,303l3.3,2.61,6.62,5.22,6.76,5,3.38,2.52,3.44,2.43c36.56,26.13,76.81,46.32,117,60.78,2.51.92,5,1.82,7.54,2.65l7.53,2.54c5,1.59,10,3.2,15,4.63,10,2.94,20,5.58,29.83,7.85s19.62,4.32,29.25,6l8.41,1.43c14,2.27,25.55,3.57,32.4,4.24,18.27,1.78,32.75,1.46,46.36-.23a191.27,191.27,0,0,0,20.14-3.66A208.92,208.92,0,0,0,2298,401Z" style="fill:#202020"/><line x1="124.5" y1="763.5" x2="124.5" y2="1157.5" style="fill:#fff"/><path d="M124.5,763.5c-2.49,10-3.84,16.81-3.9,28.8v336.4c.06,12,1.41,18.79,3.9,28.8,2.49-10,3.84-16.81,3.9-28.8V792.3C128.34,780.31,127,773.51,124.5,763.5Z" style="fill:#202020"/>
</svg>