<svg class="floating" width="2846" height="2038" viewBox="0 0 2846 2038">
<style type="text/css">
	.st0{fill:#DCEAEA;}
	.st1{fill:#202020;}
	.st2{fill:#E8F9F9;}
	.st3{fill:#FFFFFF;}
	.st4{fill:none;}
</style>
<path class="st0" d="M1972,1517c51,227-27,335-27,335c-234-181-255-356-255-356"/>
<path class="st1" d="M1702.5,1495.5c0,0.4,0.1,0.8,0.2,1.2c0.1,0.8,0.3,1.6,0.4,2.5c0.3,1.7,0.6,3.4,1,5.1c0.7,3.4,1.6,6.9,2.5,10.3
	c0.4,1.7,0.9,3.5,1.4,5.2s1,3.4,1.5,5.2l1.6,5.1l1.7,5.1c4.6,13.7,9.9,27.2,15.9,40.3c6,13.2,12.6,26.2,19.6,38.9l5.4,9.5
	c1.8,3.2,3.8,6.2,5.6,9.4c3.7,6.3,7.8,12.3,11.7,18.5c32.3,48.7,71.1,93,114,133l8,7.5l8.2,7.3l8.2,7.3l2.1,1.8l2.1,1.8l4.2,3.5
	l8.4,7.1c2.8,2.4,5.6,4.8,8.5,7l6.7,5.3l0,0l0.5-1c0.8-1.5,1.6-3.1,2.3-4.7c3.1-6.3,5.8-12.8,8.4-19.5c5.1-13.4,9.3-27.2,12.6-41.1
	c6.7-28,10-56.9,11.1-85.9c0.1-3.6,0.1-7.3,0.2-10.9l0.1-5.4l-0.1-5.5c-0.1-3.6-0.1-7.3-0.2-10.9l-0.4-10.9
	c-0.1-1.8-0.1-3.6-0.2-5.5l-0.2-2.4l-0.2-3.5l-0.5-6.9c0.5-16.9,0.5-33.9-0.4-50.9l-0.3-6.4l-0.2-3.2l-0.2-3.2l-0.9-12.8
	c-0.3-4.3-0.8-8.5-1.2-12.8l-1.3-12.8c11.8,31.6,21.5,64,28.9,96.9l1,14.6l0.1,0.9l0.1,1.3c0.1,0.4,0.1,1,0.1,1.4l0.2,5.8
	c0.1,3.9,0.3,7.7,0.4,11.5c0,7.7,0.2,15.4,0,23.1c0,7.7-0.5,15.4-0.8,23.2l-0.9,11.6l-0.2,2.9l-0.3,2.9l-0.6,5.8
	c-1.7,15.5-4.1,30.8-7.4,46c-3.3,15.3-7.5,30.3-12.7,45.1c-2.7,7.4-5.6,14.7-8.8,21.9c-0.8,1.8-1.6,3.6-2.5,5.4
	c-0.9,1.8-1.7,3.6-2.7,5.4l-1.7,3.2c-0.9,1.6-1.8,3.2-2.8,4.9c-1.8,3.3-3.8,6.3-5.8,9.3l-6.1,8.6c-0.1,0-0.1,0.3-0.2,0.2l-0.3-0.2
	l-0.5-0.4l-1.1-0.7l-2.2-1.5l-4.3-2.9l-2.2-1.4c-0.7-0.5-1.5-1.2-2.2-1.7l-4.4-3.5l-6.9-5.5c-3-2.4-6-4.7-9-7.2l-8.8-7.4l-8.8-7.4
	l-2.2-1.8l-2.1-1.9l-4.3-3.8l-8.6-7.6l-4.3-3.8l-4.2-3.9c-45-41.4-85.9-87.7-120.1-138.8c-2.1-3.2-4.2-6.5-6.3-9.7l-3.1-4.8
	c-1-1.6-2-3.3-3-4.9l-6-9.9l-5.7-10c-7.5-13.5-14.6-27.2-21-41.3c-6.5-14.1-12.2-28.5-17.2-43.2c-2.5-7.4-4.8-14.9-6.8-22.5
	c-1-3.8-1.9-7.6-2.8-11.5c-0.4-1.9-0.8-3.9-1.2-5.9c-0.2-0.9-0.4-2-0.5-3l-0.2-1.6l-0.3-1.8l24.7-3L1702.5,1495.5z"/>
<path class="st2" d="M796.5,368.5c202.3-96.5,252-273,252-273c-11.7-69.5-77-47-77-47l-47,25C767.8,251,659.8,121,659.8,121
	c-126-99-256,20-256,20c-42,8-122,23-122,23c-27,8-185.3-123.5-185.3-123.5c-40.7,6.5-43,47-43,47c40,79,85,132,85,132
	c154,158,290,172,290,172c-32,232,96,428,96,428c173,261,322,341,322,341c378,264,758,340,758,340c365,128,705,43,705,43
	C2679,1458,2717,1329,2779,1258c47-66,16-89-42.5-96.5c-12.2-1.6-2-390-2-390c13.3-180.5-71.7-391.6-225-470
	C2013.8,48,1367.4,257.7,1108.8,586c-341,433-609-19-498-176L796.5,368.5z"/>
<path class="st0" d="M1895.2,1038.2c190.6,112.8,644.6,212.8,830.6,166.8c51.5-12.7-27-27-27-27c-354,34-788-144-821-179
	c-13-6-12-36,3-51c255.7-70.3,834.3-202.3,834.3-202.3c-16.3-177.7-433.3,60.3-779.2,152c-49.7,13.8-96.3,41.6-100.3,66
	C1830.9,991.8,1855.8,1020.8,1895.2,1038.2z"/>
<path class="st0" d="M1054.8,1249c1422,652,1701.2-30,1701.2-30c-692.2,410-1570.2-26-1570.2-26C345.8,824,468,347,468,347
	C362,905,1054.8,1249,1054.8,1249z"/>
<path class="st0" d="M82,94c73.8,186,321,281,321,281c-1.2-32,6.8-35,6.8-35c-277-107-303-267-303-267C71.8,73,82,94,82,94z"/>
<path class="st0" d="M1023.3,122.3C855.8,389,561,375,561,375C869.8,334,998.8,95,998.8,95C1041.8,80,1023.3,122.3,1023.3,122.3z"/>
<path class="st3" d="M2735,1153c-483.2,14-805-150-805-150c-71-33,0-50,0-50l806-185"/>
<path class="st1" d="M2690.1,791.3l-427.5,98.1l-213.8,49.1L1942,963l-6.7,1.6c-1.1,0.2-2.4,0.5-2.9,0.7c-0.9,0.2-1.9,0.5-2.8,0.8
	c-3.7,1.1-7.4,2.6-10.9,4.2c-1.5,0.8-3,1.6-4.5,2.6c-1,0.7-2,1.5-2.9,2.4c-0.1,0.1-0.1,0.1-0.1,0.2c-0.1,0.1-0.1,0.1-0.1,0.1l0,0
	c0,0,0.1,0.1,0.1,0.1c0,0.1,0.1,0.1,0.1,0.2c0.2,0.2,0.2,0.4,0.4,0.6c0.2,0.2,0.4,0.5,0.6,0.7c1.1,1.2,2.2,2.2,3.4,3.2
	c3.1,2.4,6.3,4.5,9.7,6.4c0.9,0.5,1.8,1,2.7,1.5c0.9,0.5,1.9,1,2.8,1.4l1.4,0.7l1.6,0.7l1.5,0.8l1.6,0.8c3.9,1.9,8,3.8,12.1,5.7
	c16.3,7.5,33.1,14.4,49.9,21.1c8.4,3.4,16.8,6.7,25.4,9.7s17,6.3,25.6,9.2c34.2,12,68.8,22.9,103.8,32.6
	c35,9.7,70.2,18.4,105.7,26.1c4.4,0.9,8.8,2,13.3,2.9l13.4,2.6l13.4,2.7c4.4,0.9,8.9,1.7,13.4,2.5l13.4,2.4
	c4.5,0.8,8.9,1.7,13.4,2.4l26.9,4.4c71.8,11.3,144.1,18.7,216.7,22l13.6,0.6l6.8,0.3l6.8,0.2l12.3,0.3l5.9,0.2l11.9,0.3l3,0.2
	c1.9,0.2,4.6,0.4,7.8,0.6l23.5,1.6l12.4,0.9c2,0.2,3.8,0.3,5.6,0.4l5,0.3c6.1,0.4,9.9,0.7,9.2,0.8c27.8,2.5,46.1,7.6,1.1,13.7
	c-3.3,0.6-6.8,1.1-10.4,1.6c-3.6,0.5-7.2,1-10.9,1.3c-7.3,0.7-14.6,1.4-21,1.9c-6.4,0.5-12,0.9-16,1.2s-6.4,0.4-6.4,0.4l-35-0.9
	c-37.4-1.4-74.8-3.4-112-6.9l-14-1.2c-4.7-0.4-9.3-1-13.9-1.4l-27.9-3c-18.6-2.4-37.1-4.6-55.6-7.4c-9.2-1.4-18.5-2.7-27.7-4.2
	c-9.2-1.5-18.5-3-27.7-4.6l-27.6-5.1c-4.6-0.8-9.2-1.8-13.8-2.7l-13.8-2.8c-36.6-7.6-73.1-16.2-109.2-25.9
	c-36.2-9.7-72-20.5-107.5-32.5c-4.4-1.4-8.9-3-13.3-4.6s-8.9-3.1-13.3-4.7c-8.8-3.2-17.6-6.4-26.4-9.8
	c-17.5-6.7-34.9-13.7-52.2-21.2c-8.7-3.8-17.2-7.6-25.8-11.8l-6.3-3.1c-2.2-1.1-4.5-2.2-6.7-3.5c-4.7-2.5-9.2-5.4-13.4-8.7
	c-2.4-1.9-4.6-3.9-6.7-6.2l-0.8-0.9l-0.8-1c-0.3-0.3-0.5-0.6-0.8-1l-0.8-1.1l-0.4-0.6l-0.4-0.7l-0.8-1.4c-0.5-1-1-2.1-1.4-3.1
	c-1.7-4.3-2.1-9-1.1-13.6c0.5-2.2,1.3-4.4,2.4-6.4c0.6-1,1.2-2,1.9-2.9c0.4-0.5,0.7-0.9,1-1.3l0.5-0.6l0.5-0.5
	c2.3-2.5,4.8-4.7,7.6-6.5c2.4-1.6,4.9-3,7.5-4.3c4.8-2.3,9.8-4.2,14.9-5.8c1.3-0.4,2.5-0.7,3.9-1.1l3.6-0.8l6.8-1.6l13.6-3.1
	l27.2-6.3l54.3-12.5l217.4-49.9l434.8-99.8l40.2-9.2c0.7,0.1,1.4,0.3,2.1,0.5c15.1,7.5,9.4,18.1,4.9,22.8c-0.3,0.5-0.8,0.9-1.4,1
	L2690.1,791.3z"/>
<line class="st4" x1="2420" y1="1122" x2="2420" y2="853"/>
<path class="st1" d="M2416.1,881.8c0,2,0,5.3,0,12.2c0,28.1,0,94.7,0,94.7s0,55.8,0,86.7c0,9.2,0,14.8,0,17.8
	c0.1,12,1.4,18.8,3.9,28.8c2.5-10,3.8-16.8,3.9-28.8c0-3,0-8.6,0-17.8c0-30.9,0-86.7,0-86.7s0-66.6,0-94.7c0-6.9,0-10.2,0-12.2
	c-0.1-12-1.4-18.8-3.9-28.8C2417.5,863,2416.2,869.8,2416.1,881.8z"/>
<line class="st4" x1="2500" y1="1131" x2="2500" y2="832"/>
<path class="st1" d="M2496.1,860.8c0,2,0,5.3,0,12.2c0,32.8,0,110.4,0,110.4s0,65,0,101c0,9.2,0,14.8,0,17.8
	c0.1,12,1.4,18.8,3.9,28.8c2.5-10,3.8-16.8,3.9-28.8c0-3,0-8.6,0-17.8c0-36,0-101,0-101s0-77.6,0-110.4c0-6.9,0-10.2,0-12.2
	c-0.1-12-1.4-18.8-3.9-28.8C2497.5,842,2496.2,848.8,2496.1,860.8z"/>
<line class="st4" x1="2582" y1="1140" x2="2582" y2="815"/>
<path class="st1" d="M2578.1,843.8V980c0,0,0,73,0,113.4c0,9.2,0,14.8,0,17.8c0.1,12,1.4,18.8,3.9,28.8c2.5-10,3.8-16.8,3.9-28.8
	c0-3,0-8.6,0-17.8c0-40.4,0-113.4,0-113.4V843.8c-0.1-12-1.4-18.8-3.9-28.8C2579.5,825,2578.2,831.8,2578.1,843.8z"/>
<line class="st4" x1="2661" y1="1151" x2="2661" y2="796"/>
<path class="st1" d="M2657.1,824.8v297.4c0.1,12,1.4,18.8,3.9,28.8c2.5-10,3.8-16.8,3.9-28.8V824.8c-0.1-12-1.4-18.8-3.9-28.8
	C2658.5,806,2657.2,812.8,2657.1,824.8z"/>
<path class="st1" d="M2047.6,969.3c0,2,0,5.3,0,12.2c0,0.1,0,0.2,0,0.2c0,0,0,0.1,0,0.1v0.2c0,7.9,0,14.4,0,17.7
	c0.1,12,1.4,18.8,3.9,28.8c2.5-10,3.8-16.8,3.9-28.8c0-3.2,0-9.7,0-17.7v-0.2c0,0,0-0.1,0-0.1c0,0,0-0.2,0-0.2c0-6.9,0-10.2,0-12.2
	c-0.1-12-1.4-18.8-3.9-28.8C2049,950.5,2047.7,957.3,2047.6,969.3z"/>
<path class="st1" d="M2115.6,950.3c0,2,0,5.3,0,12.2c0,7.3,0,24.8,0,24.8s0,14.6,0,22.7c0,9.2,0,14.8,0,17.8
	c0.1,12,1.4,18.8,3.9,28.8c2.5-10,3.8-16.8,3.9-28.8c0-3,0-8.6,0-17.8c0-8.1,0-22.7,0-22.7s0-17.4,0-24.8c0-6.9,0-10.2,0-12.2
	c-0.1-12-1.4-18.8-3.9-28.8C2117,931.5,2115.7,938.3,2115.6,950.3z"/>
<path class="st1" d="M2192.6,932.3c0,2,0,5.3,0,12.2c0,13.4,0,45.1,0,45.1s0,26.6,0,41.3c0,9.2,0,14.8,0,17.8
	c0.1,12,1.4,18.8,3.9,28.8c2.5-10,3.8-16.8,3.9-28.8c0-3,0-8.6,0-17.8c0-14.7,0-41.3,0-41.3s0-31.7,0-45.1c0-6.9,0-10.2,0-12.2
	c-0.1-12-1.4-18.8-3.9-28.8C2194,913.5,2192.7,920.3,2192.6,932.3z"/>
<path class="st1" d="M2268.6,911.3c0,2,0,5.3,0,12.2c0,19.3,0,65,0,65s0,38.2,0,59.4c0,9.2,0,14.8,0,17.8c0.1,12,1.4,18.8,3.9,28.8
	c2.5-10,3.8-16.8,3.9-28.8c0-3,0-8.6,0-17.8c0-21.2,0-59.4,0-59.4s0-45.7,0-65c0-6.9,0-10.2,0-12.2c-0.1-12-1.4-18.8-3.9-28.8
	C2270,892.5,2268.7,899.3,2268.6,911.3z"/>
<path class="st0" d="M2463.7,313c210,119,249.1,431,249.1,431c-251.8,64-537,126-537,126c-151.1-38-193-146-153-277
	c35.5-116-179.6-200.5-324.9-101c-165.1,113-272.1-119-272.1-119C2007.3,38,2463.7,313,2463.7,313z"/>
<path class="st1" d="M2340.6,899.3c0,2,0,5.3,0,12.2c0,24.3,0,81.9,0,81.9s0,48.2,0,74.9c0,9.2,0,14.8,0,17.8
	c0.1,12,1.4,18.8,3.9,28.8c2.5-10,3.8-16.8,3.9-28.8c0-3,0-8.6,0-17.8c0-26.7,0-74.9,0-74.9s0-57.6,0-81.9c0-6.9,0-10.2,0-12.2
	c-0.1-12-1.4-18.8-3.9-28.8C2342,880.5,2340.7,887.3,2340.6,899.3z"/>
<path class="st1" d="M1978.5,966.4c-0.1,2.5,0,15.2,0,15.2s-0.1,12.7,0,15.2c0.1,2.3,1.4,3.7,3.9,5.6c2.5-2,3.8-3.3,3.9-5.6
	c0.1-2.5,0-15.2,0-15.2s0.1-12.7,0-15.2c-0.1-2.3-1.4-3.6-3.9-5.6C1979.8,962.8,1978.5,964.1,1978.5,966.4z"/>
<path class="st0" d="M2160.6,186c111.8-21.9,212.6,61.7,215.3,64.6l-26.7,20c-122.7,54-178.8-53.8-178.8-53.8
	C2167.5,201.8,2160.6,186,2160.6,186z"/>
<path class="st1" d="M2393.2,263.9l-2.5,2c-1.7,1.4-3.4,2.6-5.1,3.8c-3.5,2.4-7,4.7-10.7,6.7c-7.2,4.1-14.8,7.5-22.7,10.2
	c-19.3,6.7-39.7,10.1-60.1,10c-20.4,0.1-40.8-3.1-60.1-9.7c-7.5-2.5-14.7-5.7-21.7-9.3l-3.1-1.9l-3.5-2.3c-1.3-0.9-2.8-2-4.4-3.1
	c-7.8-5.7-14.8-12.4-20.9-19.8c-3.2-3.9-6.1-8.1-8.7-12.5c-2.2-3.7-4.1-7.6-5.8-11.6c-2.8-6.9-3.8-11.4-3.4-10.6
	c-1.9-7-2.7-14.3-2.3-21.5c0.4-5.8,1.5-9.7,2.7-11.1c1.3-1.4,2.6-0.1,4.4,4.3c1.8,4.3,3.9,12,9,22.3c3.4,6.3,7.4,12.2,12.1,17.5
	l1.8,2l1.9,1.9c1.2,1.3,2.5,2.4,3.8,3.6c2.5,2.2,5,4.3,7.7,6.2c4.2,3.1,8.6,5.8,13.2,8.2c0.9,0.5,1.6,0.9,2.3,1.2l1.8,0.9l1.5,0.7
	c6.6,3.7,13.5,6.8,20.7,9.2c16.5,5.5,33.8,8.3,51.3,8.2c17.4,0,34.7-2.8,51.1-8.5c6.4-2.2,12.5-5,18.4-8.3c2.9-1.6,5.7-3.4,8.4-5.3
	c1.3-0.9,2.7-1.9,3.9-2.9l1.9-1.5l1.8-1.6c0.7-0.2,1.4-0.4,2.1-0.4c3.5-0.1,7,0.4,10.3,1.5c2.4,0.8,4.4,2.4,5.8,4.5
	c1.2,1.9,1.8,4.2,1.9,6.5c0,2.2-0.3,4.4-0.9,6.4c-0.1,0.7-0.5,1.4-1.1,1.8L2393.2,263.9z"/>
<ellipse transform="matrix(0.9786 -0.2059 0.2059 0.9786 -101.6553 383.5642)" class="st0" cx="1792.4" cy="680.3" rx="172.1" ry="134.7"/>

<circle class="eyeball" cx="1756" cy="702" r="65"/>
<svg x="1760" y="670" height="60" width="60" style="overflow:visible;">
	<circle cx="30" cy="30" r="60" fill="transparent" class="eyeball"></circle>
	<circle cx="30" cy="30" r="16" fill="#fff" class="pupil"></circle>
</svg>

<path class="st1" d="M1639.6,692c-0.3,3.2-0.6,6.3-0.6,9.4l-0.1,2.5c0,0.8,0.1,1.7,0.1,2.5l0.1,2.5c0,0.4,0,0.8,0,1.2l0.1,1.2
	c0.2,1.7,0.3,3.3,0.5,5l0.8,4.9c0,0,0,0.3,0.1,0.8s0.2,1.2,0.4,2.2l0.5,3.4c0.2,1.3,0.7,2.8,1,4.3c0.2,0.8,0.4,1.6,0.6,2.5l0.8,2.6
	c0.6,1.9,1.2,3.8,2,5.6l1.2,2.9l0.6,1.5c0.2,0.5,0.5,1,0.7,1.5c0.5,0.9,1,1.9,1.5,2.9l0.8,1.5c0.2,0.5,0.5,1,0.8,1.5
	c4.3,7.8,10.2,14.6,14.5,19.6c2.3,2.4,4.2,4.3,5.4,5.6c0.6,0.7,1.1,1.1,1.3,1.4s0.3,0.4,0.1,0.3c1.4,1.3,2.8,2.6,4.1,3.9l2,1.9
	c0.7,0.6,1.3,1.2,2,1.8c2.6,2.3,4.9,4.5,7,6.5c4.3,3.8,7.1,6.8,7.7,8.8c0.1,0.1,0.1,0.3,0.1,0.4c0.1,0.7-0.4,1.4-1.2,1.5
	c-1,0.3-2.7,0.2-5.3-0.3c-1.3-0.3-2.8-0.7-4.5-1.2c-0.9-0.2-1.8-0.5-2.7-0.9s-1.9-0.8-3-1.2c-2.1-0.9-4.4-1.9-7-3.2
	c-0.7-0.3-1.4-0.6-2-1l-2-1.1l-4.3-2.5c-0.9-0.5-1.8-1-2.7-1.5l-2.7-1.8l-5.5-3.7c-1.8-1.4-3.5-2.8-5.3-4.3l-2.7-2.2
	c-0.9-0.8-1.7-1.6-2.5-2.4c-1.7-1.6-3.4-3.2-5-4.9l-4.5-5.2c-1.5-1.7-2.8-3.5-4.1-5.4l-1.9-2.7c-0.3-0.4-0.7-0.9-0.9-1.3
	s-0.5-0.9-0.8-1.4l-3.1-5.3c-0.5-0.8-0.9-1.7-1.3-2.5l-1.2-2.5c-0.8-1.6-1.6-3.1-2.2-4.6l-1.6-4c-0.5-1.2-1-2.4-1.3-3.3
	s-0.6-1.8-0.8-2.5l-0.7-2.2c-2.3-9.9-3.3-20.1-3-30.3c0-4.1,0.3-8,0.7-12c1-8.8,2.7-17.6,5.2-26.1c2.5-8.5,5.6-16.7,9.3-24.7
	c0.6-0.7,1.3-1.3,2.1-1.8c4.6-2.4,8.5-3.1,11.6-2.8c0.7,0.1,1.5,0.2,2.2,0.4c0.6,0.2,1.3,0.5,1.9,0.8c1.1,0.6,2.1,1.3,3,2.2
	c3.5,3.3,5.1,8.2,5.7,11.7c0.3,0.6,0.2,1.3-0.1,1.8C1645.3,663.5,1641.3,677.6,1639.6,692z"/>
<path class="st1" d="M1592.2,770.3c-0.6,2.5-1.8,4.7-3.5,6.6c-0.2,0.2-0.3,0.4-0.6,0.6s-0.6,0.5-0.9,0.8c-1,0.8-2.2,1.4-3.4,1.9
	c-1.4,0.5-2.9,0.7-4.5,0.7c-1.8-0.1-3.5-0.6-5.1-1.4c-1.3-0.7-2.5-1.7-3.4-2.8c-0.4-0.4-0.6-0.8-0.8-1.1l-0.2-0.4
	c-0.3-0.4-0.5-0.9-0.7-1.4c-0.5-1.2-0.8-2.4-0.9-3.7c-0.1-1.6,0.1-3.2,0.7-4.8c0.5-1.4,1.3-2.7,2.3-3.9c1.9-2.2,4.6-3.6,7.6-3.9
	c2.5-0.3,5.1,0.1,7.4,1c2.4,0.9,4.6,2.3,6.3,4.2c-0.4-1.4-0.9-2.8-1.7-4c-0.8-1.2-1.8-2.3-2.9-3.1c-2.7-2.1-6.2-3-9.6-2.6
	c-4.1,0.4-7.8,2.4-10.5,5.4c-1.4,1.6-2.5,3.4-3.2,5.4c-1.4,3.8-1.2,8,0.4,11.8c0.2,0.5,0.4,1,0.7,1.4l0.3,0.5l0.3,0.6
	c0.3,0.4,0.6,0.9,1.1,1.5c1.3,1.6,2.9,2.9,4.7,3.9c2.2,1.2,4.6,1.9,7.1,2c2.1,0.1,4.2-0.2,6.2-0.9c1.7-0.6,3.3-1.5,4.7-2.6
	c0.5-0.4,0.9-0.8,1.3-1.1s0.6-0.7,0.8-0.9c2.3-2.6,3.5-5.9,3.4-9.3c-0.1-1.4-0.4-2.9-0.9-4.2c-0.6-1.3-1.3-2.6-2.3-3.7
	C1592.9,765.3,1592.9,767.9,1592.2,770.3z"/>
<path class="st1" d="M1537.5,770.1c-1,0.5-2.1,0.8-3.2,1c-1.2,0.2-2.5,0.2-3.7-0.1c-0.6-0.1-1.3-0.3-1.8-0.6
	c-1.1-0.5-2.1-1.3-2.8-2.2c-0.8-1-1.3-2.1-1.6-3.3c-0.1-0.3-0.1-0.6-0.2-0.9c0-0.3-0.1-0.5-0.1-0.8c0-0.4,0-0.7,0-0.7
	c0-0.2,0-0.4,0.1-0.6c0.1-0.5,0.2-1,0.3-1.4c0.9-2.8,3.2-4.9,6.1-5.6c1-0.2,2-0.2,3-0.1c1.2,0.2,2.4,0.6,3.5,1.2
	c1,0.6,1.9,1.3,2.6,2.1c1.8,1.8,2.8,4.2,3,6.7c1.2-2.7,1.2-5.9-0.2-8.6c-0.7-1.5-1.7-2.7-3-3.7c-1.5-1.2-3.3-2-5.2-2.3
	c-6.3-1-12.3,2.8-14.2,8.8c-0.2,0.7-0.4,1.5-0.5,2.2c0,0.3-0.1,0.6-0.1,0.9c0,0,0,0.4,0,1.1c0,0.3,0,0.8,0.1,1.2s0.1,0.9,0.2,1.4
	c0.5,1.9,1.3,3.6,2.5,5.2c1.2,1.5,2.7,2.6,4.4,3.5c0.9,0.5,1.9,0.8,2.9,1c1.9,0.4,3.9,0.3,5.7-0.2c1.6-0.5,3-1.3,4.2-2.4
	c2.2-2.1,3.4-5,3.2-8C1541.7,767.1,1539.9,769,1537.5,770.1z"/>
<path class="st1" d="M1555.2,737.4c-0.9-2.2-1-4.6-0.2-6.8c0.2-0.6,0.5-1.2,0.9-1.7c0.7-1,1.6-1.8,2.6-2.3c0.7-0.4,1.4-0.6,2.2-0.7
	c0.3-0.1,0.7-0.1,1-0.1h0.8c0.2,0.1,0.6,0.1,0.9,0.2c0.7,0.2,1.4,0.4,2,0.8c2.4,1.3,3.9,3.8,3.8,6.5c0,2.4-0.9,4.6-2.6,6.3
	c-1.7,1.9-4,3-6.6,3.1c2.8,1.2,6,1.1,8.6-0.5c1.4-0.8,2.6-2,3.5-3.4c1-1.7,1.6-3.6,1.6-5.6c0.1-4.4-2.3-8.5-6.2-10.6
	c-1-0.6-2.2-1-3.3-1.2c-0.5-0.1-1-0.2-1.4-0.2h-0.6h-0.7c-0.6,0-1.1,0.1-1.7,0.2c-1.2,0.2-2.4,0.6-3.6,1.2c-2.6,1.4-4.7,3.7-5.7,6.5
	c-0.7,1.8-0.8,3.8-0.4,5.8c0.3,1.6,1,3.1,2.1,4.4c1.9,2.3,4.8,3.6,7.8,3.5C1557.8,741.6,1556.1,739.7,1555.2,737.4z"/>
<path class="st2" d="M1666,1244c-103,664-556,743-556,743c-212-743,255-984,255-984"/>
<path class="st1" d="M1333.3,1038.2l-1.6,1.2l-0.8,0.6l-5.5,4.1c-12.4,9.4-24.5,19.5-36.5,30.3c-24.7,22.4-47.5,46.7-68.2,72.7
	c-10.7,13.4-20.9,27.4-30.7,41.9l-3.7,5.5c-1.2,1.8-2.4,3.7-3.6,5.6l-3.6,5.6c-1.2,1.9-2.4,3.7-3.5,5.6l-6.9,11.4l-6.7,11.7
	c-8.9,15.6-17.1,31.8-24.8,48.4c-7.6,16.7-14.7,33.7-21.2,51.2c-1.5,4.4-3.1,8.8-4.7,13.2c-0.8,2.2-1.6,4.4-2.3,6.6l-2.2,6.7
	c-1.4,4.5-3,8.9-4.3,13.5c-1.3,4.5-2.7,9.1-4,13.6c-5.1,18.2-9.8,36.7-13.6,55.6c-0.5,2.3-1,4.7-1.5,7l-0.7,3.5l-0.6,3.6
	c-0.9,4.7-1.7,9.5-2.6,14.2l-0.6,3.6l-0.6,3.6l-1.1,7.2l-1.1,7.2c-0.3,2.4-0.7,4.8-1,7.2c-0.6,4.8-1.2,9.6-1.8,14.5
	c-0.3,2.4-0.6,4.8-0.9,7.2l-0.7,7.3c-0.5,4.9-1.1,9.7-1.4,14.6s-0.7,9.8-1,14.7c-2.7,39.4-3,78.9-0.9,118.3
	c2,39.7,6.1,79.4,12.1,118.8l2.3,14.8c0.8,4.9,1.5,9.8,2.4,14.8l2.7,14.7l1.3,7.4l0.7,3.7l0.8,3.7c2,9.8,4,19.5,6,29.3
	c2.2,9.7,4.4,19.4,6.6,29.1c0.5,2.4,1.2,4.8,1.8,7.2l1.8,7.2l3.6,14.4l1.8,7.2l2,7.2c1.3,4.8,2.6,9.6,3.9,14.3l0.4,1.6l3.9-1
	c9.3-2.4,18.5-5.3,27.6-8.4c36.6-12.4,71.5-28.9,104.4-48c32.5-18.9,63.3-40.5,92.1-64.6c14.2-11.8,27.9-24.1,40.9-36.8
	s25.4-25.7,37.3-39s23-27,33.7-40.7l7.8-10.4c1.3-1.7,2.6-3.4,3.9-5.2l3.8-5.2c2.5-3.5,5-7,7.5-10.5l7.2-10.6
	c18.5-27.4,35.3-55.8,50.5-85.1c14.8-28.4,27.6-56.6,38.8-84.1c20.2-50.2,36.9-101.7,49.9-154.3c0.8-2.9,1.5-5.8,2.2-8.7
	c0.4-1.4,0.7-2.9,1-4.3c0.2-0.8,0.4-1.6,0.5-2.3c0.1-0.5,0.2-1,0.3-1.5l0.7-2.8c0.4-1.8,0.8-3.5,1.2-5c1.4-6.1,2.2-9.5,2.2-9.5
	s0.3-1,0.8-2.8s1.2-4.4,2.1-7.5c1.7-6.2,4-14.5,6.2-22.7c4.2-16.4,8.4-32.5,8.3-31.1c3.7-13.4,7.7-24.4,10.4-26.4s4.3,5.1,3.2,27.8
	c-0.1,3.4-0.2,6.9-0.5,10.5s-0.5,7.3-0.8,11s-0.6,7.3-0.9,10.9s-0.8,7-1.1,10.2c-1.5,12.8-2.9,22.3-2.9,22.3l-2.3,9.8
	c-0.7,3.1-1.6,6.9-2.6,11.3c-0.2,1-0.5,2.1-0.7,3.1c-0.7,3.1-1.5,6.3-2.3,9.5c-0.8,3.2-1.6,6.4-2.4,9.6c-3.1,12.9-7,26-10.7,39.6
	c-7.9,26.9-17,55-27.8,83.9c-21.5,57.8-49.8,118.8-87.5,178.9c-9.5,14.9-19.4,30-30.1,44.7c-5.2,7.5-10.9,14.7-16.4,22.1l-8.6,10.9
	c-1.4,1.8-2.9,3.6-4.3,5.4c-1.5,1.8-3,3.6-4.5,5.4l-4.5,5.4l-2.2,2.7l-2.3,2.7l-9.3,10.6c-6.3,7-12.7,14-19.3,20.8
	c-13.2,13.8-27,27.2-41.5,40.1c-29.5,26.3-61.1,50.1-94.5,71.2c-34.3,21.7-70.6,40-108.4,54.8c-9.6,3.7-19.3,7.1-29.1,10.3
	c-4.9,1.5-9.9,3.1-14.9,4.5c-2.5,0.7-5,1.3-7.6,2l-1.9,0.5l-1.2,0.3l-1.8,0.4l-3.7,0.9c-1.2,0.3-2.5,0.6-3.7,0.8l-3.7,0.7l-3.6,0.7
	l-3.6,0.7l-1.8,0.3c-0.7,0.2-1.3,0.2-1.3-0.6l-2.2-7c-0.4-1.2-0.8-2.3-1.1-3.5l-1-3.6l-5-18.4c-1.3-4.9-2.8-9.8-4-14.8
	c-1.2-5-2.5-9.9-3.7-14.9c-10-39.7-18.5-80-25.2-120.7c-13.4-81.3-19.3-164.2-15.1-245.8l0.2-3.8l0.3-3.8l0.5-7.6
	c0.4-5.1,0.7-10.2,1.1-15.2c0.5-5.1,1-10.1,1.5-15.2l0.7-7.6l0.9-7.6l1.9-15.1c0.7-5,1.5-10,2.2-15c1.3-10,3.3-19.9,5-29.8
	c3.9-19.7,8.1-39.2,13.3-58.3c0.6-2.4,1.2-4.8,1.9-7.2s1.4-4.8,2.1-7.1c1.4-4.7,2.8-9.5,4.2-14.2c3.1-9.4,5.9-18.8,9.3-27.9
	c25.9-73.8,62.8-141.2,107.2-198.1c21.5-27.7,45.3-53.7,71-77.6c12.5-11.6,25.3-22.5,38.3-32.6c3.2-2.5,6.5-5,9.8-7.5l1.4-1l1.7-1.3
	c18.4-13.4,32-21.3,32.7-21.8c0.7-0.2,1.5-0.2,2.3-0.2c4.3,0.6,7.3,1.9,9.4,3.5c1.8,1.4,3.1,3.4,3.6,5.7c1,4-0.2,8.3-1.6,11.1
	c-0.3,0.9-0.5,1-1,1.3C1363.2,1018.4,1350.7,1025.6,1333.3,1038.2z"/>
<path class="st0" d="M1120,1935.6L1120,1935.6c-85-562.6,229-795.6,229-795.6c-27-46,11-84,11-84C947,1310,1120,1935.6,1120,1935.6z
	"/>
<path class="st0" d="M1120,1985c453-311,487.3-690.2,487.3-690.2c34.3,7.8,50.7-42.8,50.7-42.8C1561,1886,1120,1985,1120,1985z"/>
<path class="st1" d="M1123.9,1985.3c4.3-1.6,8.5-3.1,12.6-5c9.3-4.2,18.2-9.2,26.6-15c2.7-1.8,6.8-4.5,11.8-8l8.1-5.7l5.7-4.1
	l3.2-2.3l3.2-2.4l13.3-9.8c18-13.6,37.2-29,56.4-45.6s38.3-34.4,56.3-52.4s34.9-36.4,50-53.7s28.4-33.8,39.4-48
	c2.8-3.5,5.3-7,7.8-10.2s4.8-6.3,6.9-9.2c4.2-5.8,7.9-10.9,10.9-15.1l9.2-13.2l9-13.3l10.2-15.6l6.2-9.7l3.4-5.3l3.4-5.6
	c9.4-15.3,20.1-33.5,31.1-53.8s22.2-42.5,32.8-65.7s20.7-47.2,29.7-70.9c4.5-11.9,8.7-23.6,12.6-35.1c1.9-5.7,3.8-11.4,5.6-17
	c0.9-2.8,1.8-5.6,2.6-8.3c0.8-2.6,1.6-5.2,2.4-7.7c4.7-15.3,8-28,9.7-34.3c2.6-9.9,4.4-20,5.2-30.2c0.6-9.3,0.5-18.7-0.3-28
	c-4.1,9.5-7.7,17.2-10.8,25.6c-3.5,9.4-6.6,19-9.1,28.7c-1.7,6.2-5,18.7-9.6,33.7c-0.8,2.5-1.6,5-2.3,7.6c-0.8,2.7-1.7,5.4-2.6,8.2
	c-1.8,5.5-3.6,11.1-5.6,16.8c-3.8,11.3-8,22.9-12.4,34.6c-8.8,23.4-18.8,47.1-29.3,69.9s-21.6,44.8-32.4,64.8s-21.3,37.9-30.6,53
	l-3.4,5.5c-1.1,1.8-2.2,3.5-3.3,5.2l-6.1,9.6c-3.9,5.9-7.3,11.1-10.1,15.3l-8.9,13.1c0,0-3.3,4.7-9.1,13c-2.9,4.1-6.6,9.1-10.8,14.9
	c-2.1,2.9-4.4,5.9-6.8,9.1s-4.9,6.6-7.7,10.1c-10.8,14-24,30.2-38.9,47.3s-31.6,35.1-49.3,52.9s-36.6,35.3-55.5,51.6
	s-37.8,31.5-55.6,45l-13.1,9.7l-3.2,2.3l-3.2,2.2l-5.7,4l-8,5.7c-4.9,3.5-8.9,6.2-11.6,8c-9.8,6.8-17.3,12.3-24,18.3
	c-3.3,3-6.7,5.8-9.9,9s-6.6,6.5-10.2,10.2C1114.9,1988.4,1119.6,1986.9,1123.9,1985.3z"/>
<path class="st1" d="M1649.8,1524.8c16.9,6.6,35.1,12,58.7,16.8c6.4,1.3,16,3.2,28,5.5l19.6,3.6l11.4,2l12.8,2.2
	c8.7,1.5,17.5,2.9,26.7,4.3c36.5,5.7,76.3,11,117.5,15.2s83.7,7.3,125.3,8.9c20.8,0.8,41.4,1.3,61.6,1.3c20.1,0,39.8-0.3,58.6-1
	c37.7-1.3,72.3-4,101.6-7.3s53.3-7.1,70-10c8.3-1.4,14.8-2.7,19.3-3.6l6.8-1.4l6.8-1.4c4.4-1,10.9-2.3,19.1-4.2l6.5-1.5l7.2-1.8
	c5-1.2,10.4-2.6,16.1-4.1c11.5-3.1,24.5-6.8,38.7-11.3c32.7-10.4,64.7-23.2,95.5-38.3c34.3-17,70.1-38.6,103.3-65.4
	c33.6-27,63.3-58.4,88.4-93.3l2.3-3.2l2.2-3.3l4.5-6.6c1.5-2.2,2.9-4.4,4.3-6.6s2.8-4.4,4.2-6.6l4-6.7c1.3-2.2,2.7-4.4,3.9-6.7
	c2.5-4.4,5.1-8.9,7.4-13.4l3.5-6.7c1.2-2.2,2.2-4.5,3.4-6.8c1.1-2.2,2.2-4.5,3.3-6.7l3.1-6.7c1-2.2,2-4.5,3-6.7l2.8-6.7
	c0.9-2.2,1.9-4.4,2.8-6.6l2.3-5.9c0.7-1.9,1.5-3.8,2.2-5.6c0.7-1.9,1.3-3.7,2-5.5l2-5.4l1-2.6l0.3-0.8c0.2-0.3,0.1-0.8,0-1.3
	c0-0.1,0.1-0.2,0.1-0.3l0.2-0.3c0.1-0.2,0.3-0.4,0.4-0.6l0.2-1.1c0.5-2.5,0.9-5.1,1-7.6c0.1-1.2,0.1-2.5,0.1-3.7c0-0.6,0-1.2,0-1.8
	l-0.1-1.8c-0.4-4.6-1.4-9.1-3.1-13.4c-0.8-2-1.7-3.9-2.7-5.8c-0.5-0.9-1-1.8-1.5-2.7l-1.7-2.5c-2.1-2.9-4.4-5.6-7-8.1
	c-3.8-3.6-8.1-6.7-12.7-9.3c-3.1-1.8-6.3-3.3-9.7-4.7l-4.7-1.7c-0.8-0.3-1.5-0.6-2.3-0.8l-2.3-0.6l-4.4-1.2
	c-1.5-0.3-2.9-0.6-4.3-0.8c-1.4-0.3-2.8-0.5-4.2-0.8l-4.1-0.5l-4-0.4c-1.3-0.1-2.6-0.1-3.9-0.2l-3.8-0.2h-1.9h-1.9
	c-2.5,0-4.9,0.1-7.3,0.2c-2.4,0.1-4.8,0.4-7.1,0.6c-4.7,0.4-9.2,1.2-13.7,2c-2.3,0.4-4.5,0.9-6.7,1.4l-6.7,1.6
	c-4.5,1.2-9,2.4-13.6,3.9c-4.6,1.5-9.3,3.1-14.1,4.8c20.4,2.9,37.2,5.9,54.1,9.1l6.4,1.2c2.1,0.5,4.2,0.9,6.4,1.3l1.6,0.3l1.6,0.4
	l3.2,0.8l3.3,0.7l3.2,0.9l3.3,0.8c1.1,0.3,2.1,0.7,3.2,1l3.3,1l3.2,1.1l1.6,0.6c0.6,0.2,1.1,0.4,1.6,0.7l3.2,1.3c2,1,4.1,1.9,6,3.1
	c2.4,1.4,4.7,3,6.7,4.9c2.3,2.1,4,4.7,5.2,7.6c0.6,1.6,0.9,3.3,1.1,5l0.1,0.7v0.7c0,0.5,0,1,0,1.4c0,0.9-0.2,1.8-0.4,2.7
	c-0.1,0.5,0.1-0.3-0.2,0.7l-0.9,2.5l-1.8,5.1c-0.6,1.7-1.2,3.5-1.9,5.2c-0.7,1.7-1.4,3.4-2.1,5.3s-1.5,3.7-2.2,5.6
	c-0.8,2.1-1.7,4.1-2.6,6.2c-0.9,2.1-1.8,4.2-2.7,6.3l-2.8,6.4l-2.9,6.3l-3.1,6.3c-1.1,2.1-2,4.2-3.2,6.3l-3.3,6.3
	c-2.2,4.2-4.7,8.4-7,12.6c-1.2,2.1-2.4,4.2-3.7,6.2l-3.8,6.2c-1.3,2.1-2.6,4.1-3.9,6.2s-2.6,4.2-4,6.2l-4.2,6.1l-2.1,3.1l-2.2,3
	c-23.5,32.7-51.2,62-82.6,87.2c-31.1,25.2-64.9,45.6-97.4,61.8c-29.5,14.4-60,26.7-91.3,36.6c-13.6,4.4-26.1,7.9-37.2,10.9
	c-5.6,1.4-10.8,2.8-15.6,4l-6.9,1.7l-6.3,1.5c-8,1.9-14.3,3.1-18.5,4.1l-6.5,1.3l-6.5,1.3c-4.3,0.8-10.6,2.1-18.7,3.4
	c-16.2,2.8-39.5,6.5-68.1,9.7c-28.6,3.2-62.4,5.8-99.3,7.1c-18.4,0.6-37.7,1-57.4,0.9s-40-0.5-60.4-1.3
	c-40.9-1.6-82.8-4.6-123.4-8.8c-40.6-4.2-79.9-9.4-115.8-15c-9-1.4-17.8-2.8-26.3-4.2l-12.6-2.1l-11.3-2l-19.3-3.5
	c-11.8-2.2-21.3-4-27.6-5.3c-23.4-4.5-41.9-7.1-59.7-8.5s-35-1.6-55.6-2C1617.4,1510.5,1632.9,1518.3,1649.8,1524.8z"/>
<path class="st1" d="M430.8,335.7c-1.9,4.5-3.5,8.9-5.1,13.2c-3.1,8.6-5.7,17.3-7.8,26.2c-4.2,17.8-6.8,36.9-7.1,61.4
	c0,1.7-0.1,3.5-0.1,5.6v6.7c0.1,2.4,0,5,0.1,7.8s0.1,5.7,0.2,8.8s0.2,6.3,0.3,9.7s0.3,6.9,0.5,10.5c0.2,3.2,0.4,6.4,0.6,9.7
	c0.2,3.5,0.5,7.1,0.8,10.7s0.5,7.3,0.9,11c0.4,3.7,0.7,7.4,1.1,11.2c1.6,15.1,3.6,31,6.3,47.1c1.2,8.1,2.8,16.2,4.3,24.5
	c0.8,4.1,1.7,8.2,2.5,12.4l1.3,6.2l1.4,6.2l2.9,12.5l3.2,12.5l1.6,6.3l1.7,6.3c1.2,4.2,2.3,8.4,3.5,12.5c5,16.6,10.2,33.2,16.1,49.4
	c11.2,31.1,24.1,61.5,38.8,91.1c13.8,27.8,28.2,52.5,41,73l4.7,7.5c1.6,2.4,3,4.8,4.6,7.1l8.6,12.9c1.4,2,2.7,4,3.9,5.9l3.8,5.3
	l6.7,9.4c2,2.8,3.8,5.3,5.4,7.5l4.1,5.4c2.2,2.9,3.4,4.5,3.4,4.5l7.9,10.5l9.6,12l6,7.5c2.1,2.7,4.6,5.4,7,8.3
	c9.7,11.7,21.8,25.3,35.7,40.1c7.1,7.3,14.3,15.2,22.3,22.9l12.1,11.9c4.1,4,8.4,7.9,12.8,12l6.5,6.1c2.2,2,4.4,4.1,6.7,6.1
	l13.8,12.2l7,6.2l7.2,6c4.8,4,9.7,8.1,14.6,12.1c2.4,2.1,5,3.9,7.4,5.9l7.5,5.9l7.6,5.9c2.5,2,5,4,7.6,5.9l15.4,11.4l7.7,5.7
	c2.6,1.9,5.2,3.7,7.8,5.5c10.4,7.3,20.7,14.7,31.1,21.4l15.4,10.2c2.5,1.7,5.1,3.3,7.7,4.9l7.6,4.8l14.9,9.3
	c1.2,0.8,2.4,1.5,3.7,2.3l3.7,2.2l7.3,4.3l14.2,8.3c2.3,1.3,4.6,2.7,6.9,4l6.8,3.8l22,12.2c3.3,1.9,6.5,3.4,9.5,5l8.4,4.4l13.7,7.1
	l5.4,2.8l4.5,2.2c10.8,5.3,20.7,9.7,30,13.5c9.4,3.6,18.2,6.5,26.9,9.1c4.3,1.3,8.6,2.5,13,3.6s8.8,2,13.3,2.9
	c9,1.8,18.3,3.4,28.5,5.1c-8.2-6.2-15.8-11.9-23.2-17.2c-3.7-2.7-7.4-5.1-11-7.7s-7.3-5.1-11-7.5c-7.5-4.9-15.3-9.6-23.9-14.4
	c-8.5-4.9-17.9-9.9-28.5-15.2l-4.4-2.2l-5.3-2.8l-13.4-7l-8.2-4.3c-2.9-1.6-6-3.1-9.2-4.9l-21.6-12l-6.7-3.7
	c-2.2-1.2-4.5-2.6-6.7-3.9l-13.9-8.1l-7.1-4.2l-3.6-2.1c-1.2-0.7-2.4-1.5-3.6-2.2l-14.6-9.1l-7.4-4.6c-2.5-1.6-5-3.1-7.5-4.8
	l-15-9.9c-10.2-6.5-20.2-13.8-30.3-20.8c-2.5-1.8-5.1-3.5-7.6-5.4l-7.5-5.6l-15-11.1c-2.5-1.8-5-3.8-7.4-5.7l-7.4-5.8l-7.3-5.8
	c-2.4-1.9-4.9-3.8-7.2-5.8l-14.2-11.8l-7-5.8l-6.8-6l-13.4-11.8c-2.2-1.9-4.4-3.9-6.5-5.9l-6.4-5.9c-4.2-3.9-8.4-7.7-12.4-11.6
	l-11.7-11.6c-7.8-7.5-14.8-15.1-21.6-22.2c-13.5-14.3-25.1-27.5-34.6-38.8c-2.4-2.8-4.7-5.4-6.8-8l-5.9-7.3
	c-3.6-4.5-6.8-8.4-9.3-11.6l-7.6-10.1l-3.3-4.3l-4-5.2c-1.5-2.1-3.2-4.5-5.2-7.2l-6.4-9l-3.6-5.2l-3.8-5.7
	c-2.6-3.9-5.4-8.1-8.3-12.5c-1.5-2.2-2.9-4.5-4.4-6.9l-4.6-7.2c-12.4-19.8-26.2-43.6-39.5-70.4c-14.1-28.5-26.6-57.8-37.3-87.7
	c-5.7-15.5-10.7-31.5-15.5-47.5l-3.4-12.1l-1.7-6c-0.5-2-1-4.1-1.5-6.1c-1.1-4-2.1-8-3-12.1c-0.9-4-1.9-8.1-2.8-12.1
	c-0.5-2-0.9-4-1.4-6s-0.8-4-1.2-6c-0.8-4-1.6-8-2.4-11.9c-1.4-8-3-15.8-4.2-23.6c-2.6-15.6-4.5-30.8-6.1-45.3
	c-0.4-3.7-0.7-7.2-1.1-10.8s-0.6-7.1-0.9-10.6s-0.6-6.9-0.8-10.3c-0.2-3.2-0.4-6.3-0.6-9.4c-0.2-3.5-0.3-6.8-0.5-10.1
	s-0.3-6.3-0.3-9.3s-0.1-5.8-0.2-8.4s0-5.2-0.1-7.5s-0.1-4.5-0.1-6.5s0-3.8,0-5.4c0.1-23.5-0.2-41.9-1.3-59.5
	c-0.5-8.8-1.2-17.5-1.9-26.5c-0.4-4.5-0.7-9.1-1.1-13.8s-0.7-9.7-0.8-14.8C434.6,326.6,432.6,331.3,430.8,335.7z"/>
<path class="st1" d="M2729.2,751.6c0.2-7.9,0.2-19.1-0.4-32.4l-0.1-2.5c-0.2-3.6-0.4-7.2-0.7-10.9c-1.6-22.3-4.5-44.5-8.8-66.4
	c-8.9-46-23.9-90.6-44.6-132.7c-21.9-44.2-50.4-84.7-84.6-120.3c-34.8-36.4-76.1-68-121.7-94.1c-45.6-26.1-95.4-46.7-147.4-62.5
	c-26.1-7.8-52.6-14.4-79.6-20.1l-20.5-4.1c-6.5-1.3-13.3-2.5-20.1-3.5c-13.6-2.2-27.3-3.9-41.1-5.4c-55.7-6-111.8-8.2-167.9-6.6
	c-56.5,1.5-112.8,6.7-168.6,15.5c-55.7,8.7-110.8,21.2-164.8,37.4c-53.5,16.1-105.8,35.9-156.5,59.3l-9.4,4.4l-4.7,2.2l-4.7,2.3
	l-18.6,9.2c-6.1,3.2-12.2,6.4-18.3,9.6c-3,1.6-6.1,3.1-9.1,4.8l-9,5l-9,5l-4.5,2.5l-4.4,2.6l-17.7,10.4l-2.2,1.3l-2.2,1.4l-4.3,2.7
	l-8.7,5.4l-8.7,5.4l-8.5,5.6l-17,11.2l-16.6,11.5c-2.8,1.9-5.6,3.8-8.3,5.8l-8.1,6c-5.4,4-10.9,7.9-16.2,12l-15.8,12.3
	c-2.6,2.1-5.3,4.1-7.9,6.2l-7.7,6.3c-5.1,4.2-10.3,8.4-15.4,12.6l-15,13c-39.1,34.1-75.9,70.6-110.2,109.5l-12.6,14.2l-12.1,14.5
	l-6,7.2c-2,2.4-4.1,4.8-6,7.2l-11.6,14.6l-11.7,14.7c-2,2.5-4,5-6,7.5c-1,1.2-2,2.5-3,3.7l-3.1,3.7c-4.1,4.9-8.2,9.8-12.6,14.4
	l-6.4,7c-2.2,2.3-4.4,4.5-6.6,6.8c-17.8,18.1-36.8,34.7-57.8,48.5c-10.4,7-21.3,13.2-32.6,18.6l-8.5,3.9c-2.9,1.2-5.8,2.3-8.7,3.5
	c-1.4,0.6-2.9,1.2-4.4,1.7l-4.4,1.5l-4.4,1.5c-0.7,0.2-1.5,0.5-2.2,0.7l-2.3,0.6l-9,2.4l-9.1,1.9l-2.3,0.5l-2.3,0.3l-4.6,0.7
	l-4.6,0.7l-4.6,0.4c-6.1,0.6-12.3,0.8-18.4,0.8l-9.2-0.3c-1.6,0-3-0.3-4.6-0.4l-4.5-0.5c-11.9-1.4-23.7-3.9-35.2-7.4
	c-11.1-3.6-21.9-8-32.3-13.4c-10.1-5.2-19.7-11.1-28.9-17.7l-3.4-2.4l-1.7-1.2l-1.6-1.3l-6.5-5.1c-2.1-1.7-4.2-3.5-6.2-5.3
	c-1-0.9-2.1-1.8-3.1-2.7l-3-2.8c-15.4-14.3-29.4-30-41.7-46.9c-11.6-16-21.9-32.8-31-50.4c-8.5-16.5-15.9-33.6-22.1-51.1
	c-0.8-2.1-1.5-4.2-2.2-6.4s-1.4-4.2-2.1-6.3c-1-3.3-2-6.5-3-9.7l-0.6-1.9c-0.3-1.3-0.7-2.5-1-3.7l-1.8-6.5c-1-3.9-1.7-7.1-2.2-9.2
	l-0.8-3.2c0,0-0.2-1.4-0.6-3.8c-0.2-1.2-0.4-2.7-0.7-4.4s-0.6-3.6-0.8-5.7c-0.5-4.2-1.1-9.1-1.5-14.3c-0.2-2.6-0.5-5.3-0.6-8
	s-0.3-5.5-0.4-8.3s-0.1-5.5-0.2-8.2c0-1.3-0.1-2.7-0.1-4s0-2.6,0-3.9c0-2.6,0-5,0.1-7.3s0.2-4.5,0.3-6.5s0.2-3.8,0.3-5.3
	s0.3-2.9,0.4-3.9c0.2-2.1,0.4-3.1,0.5-2.6c0.1-1.1,0.3-2.2,0.4-3.3s0.4-2.2,0.5-3.2c0.4-2.1,0.8-4.2,1.1-6.1s0.9-3.8,1.3-5.6
	c0.5-1.8,0.9-3.4,1.4-4.9c0.4-1.4,0.9-2.8,1.5-4.2c0.5-1.3,1-2.4,1.5-3.4c0.6-1.5,1.5-2.8,2.7-3.9c1.7-1.2,3,0.4,4,5.8
	c0.2,1.4,0.4,2.9,0.6,4.8s0.5,3.9,0.6,6.2c0.1,1.2,0.2,2.4,0.3,3.7s0.3,2.7,0.4,4.1s0.2,2.9,0.4,4.5c0.1,0.8,0.1,1.6,0.2,2.4
	s0.2,1.7,0.3,2.5c1.9,17,4.8,33.9,8.6,50.5c0.9,3.8,1.7,7.3,2.5,10.4s1.6,5.9,2.2,8.2c1.3,4.6,2.1,7.3,2.1,7.3s0.2,1.1,0.6,3.1
	s1.2,4.9,2.1,8.6c0.4,1.9,1,3.9,1.6,6.1s1.3,4.6,2,7.2l1.2,3.9c0.6,2.1,1.3,4.2,1.9,6.3c0.7,2.1,1.4,4.2,2.1,6.3
	c1.3,4.2,3,8.4,4.5,12.6c6.5,17.3,14.3,34.1,23.2,50.2c1.2,2.1,2.4,4.1,3.5,6.2l1.8,3.1c0.6,1.1,1.2,2.1,1.9,3.1l3.8,6.1l4,6l2,3
	l2.1,3l4.2,6c3,3.9,5.8,7.9,9,11.7c1.6,1.9,3.1,3.9,4.7,5.7l4.9,5.6c1.6,1.9,3.4,3.7,5.1,5.5l2.6,2.8l2.6,2.7
	c7.1,7.2,14.6,13.9,22.5,20.2l3,2.3l1.5,1.2l1.6,1.1l6.2,4.5l6.4,4.2c0.5,0.3,1.1,0.7,1.6,1l1.6,1l3.3,2c8.9,5.2,18.2,9.6,27.8,13.3
	c19.6,7.3,40.5,10.7,61.4,9.9c10.7-0.5,21.4-2.1,31.8-4.7l7.9-2.1l7.8-2.6l2-0.7l1.9-0.8l3.9-1.5l3.9-1.5c1.3-0.6,2.5-1.2,3.8-1.8
	c20.5-9.1,39.9-22.1,58.2-37.1c18.5-15.7,35.7-32.9,51.2-51.5c4.1-4.7,7.9-9.6,11.8-14.5l12-15.1l12.2-15.4c2-2.6,4.2-5.1,6.3-7.6
	l6.3-7.6c4.3-5,8.5-10.2,12.8-15.2l13.2-15c8.7-10.1,18-19.8,27.2-29.6c4.5-5,9.3-9.7,14.1-14.6c4.7-4.8,9.5-9.7,14.3-14.5
	l14.7-14.2l7.4-7.1l1.8-1.8l1.9-1.7l3.8-3.5c83-77,176.6-141.6,278-191.9c12.9-6.5,26.1-12.5,39.2-18.6l19.9-8.7
	c1.7-0.7,3.3-1.5,5-2.2l5-2.1l10.1-4.1c27-11,54.3-21,82.1-30.1c55.8-18.1,112.8-32.3,170.5-42.5c57.8-10.2,116.1-16.7,174.7-19.2
	c14.6-0.7,29.2-1.1,43.8-1.2s29.1-0.1,43.8,0.2c14.6,0.3,29.1,0.9,43.6,1.6c14.5,0.8,29,1.9,43.4,3.2s28.8,2.9,43.2,4.8
	c7.2,1,14.4,2,21.5,3.1c3.6,0.6,7.2,1.2,10.8,1.8l5.4,1l5.4,1.1c28,5.3,56.1,11.8,83.6,19.5l10.2,3c3.4,1,6.9,1.9,10.2,3l20.3,6.5
	l20.1,7l2.5,0.9l2.5,0.9l5,1.9l9.9,3.8c26.2,10.3,51.8,22.1,76.6,35.4c24.5,13.2,48.1,27.9,70.5,44.3c2.8,2,5.6,4.1,8.3,6.2l8.2,6.3
	c1.3,1,2.7,2.1,4,3.2l4,3.3l7.9,6.5l7.7,6.8l3.9,3.4l1.9,1.7l1.9,1.8l7.4,7l3.7,3.5l3.6,3.6c19.1,18.9,36.7,39.2,52.8,60.8l5.8,8.1
	c1,1.3,1.9,2.6,2.9,4l2.8,4.1l5.5,8.2l5.3,8.3l2.6,4.1c0.9,1.4,1.7,2.8,2.5,4.2c1.7,2.8,3.4,5.6,5,8.4c1.6,2.8,3.1,5.7,4.8,8.5
	c1.6,2.8,3.2,5.7,4.6,8.6l4.5,8.6c1.5,2.9,2.8,5.8,4.2,8.7c2.8,5.8,5.3,11.6,8,17.5c1.3,2.9,2.5,5.9,3.7,8.8l1.8,4.4
	c0.6,1.4,1.2,3,1.7,4.4c1.1,3,2.3,5.9,3.4,8.8l3.2,8.9c4.2,11.9,8,23.8,11.3,35.7c3.4,11.9,6.3,23.8,8.8,35.8s4.7,23.8,6.4,35.6
	c1.7,11.9,3.1,23.6,4.1,35.4c0.3,2.9,0.5,5.9,0.7,8.8c0.2,2.9,0.4,5.8,0.6,8.8c0,0.8,0.1,1.4,0.1,2.3c0.1,0.9,0.1,1.8,0.1,2.7
	c0.8,16.4,0.8,32.9-0.1,49.3c-0.3,0.9-0.8,1.7-1.4,2.5c-3.6,4-7.1,6.3-10.2,7.3c-1.4,0.5-2.9,0.7-4.4,0.6c-1.3-0.1-2.7-0.4-3.9-0.8
	c-4.9-1.7-8.4-6-10.4-9.4c-0.5-0.5-0.7-1.3-0.6-2C2728.7,764.2,2729,759.5,2729.2,751.6z"/>
<path class="st1" d="M582.9,407c6.6,1.6,13.4,2.8,20.1,3.7c13.6,1.7,28.1,2,46.4,0.2c6.8-0.7,18.4-2,32.4-4.2l8.4-1.4
	c9.6-1.7,19.4-3.7,29.2-6s19.8-4.9,29.8-7.9c5-1.4,10-3,15-4.6l7.5-2.5c2.5-0.8,5-1.7,7.5-2.6c40.2-14.5,80.4-34.6,117-60.8l3.4-2.4
	l3.4-2.5l6.8-5l6.6-5.2l3.3-2.6l3.2-2.6l6.5-5.4l6.3-5.6c4.2-3.7,8.3-7.6,12.4-11.4c16-15.4,31-31.9,44.7-49.4
	c13.3-16.9,25.5-34.7,36.5-53.2c10.5-17.6,20-35.8,28.4-54.4c0.6-1.2,1.2-2.5,1.6-3.6s1-2.1,1.4-3.2l0.7-1.7l0.2-0.4
	c0.1-0.1,0-0.3,0-0.4l-0.1-0.9c-0.1-1.2-0.2-2.4-0.3-3.6c-0.1-0.6-0.1-1.2-0.2-1.8l-0.2-1.2c-0.2-1.3-0.4-2.7-0.6-4
	c-0.9-5.2-2.2-10.3-3.8-15.3c-3.1-10.2-8.1-19.7-14.7-28c-3.4-4.3-7.4-8-11.8-11.2c-4.4-3.2-9.3-5.7-14.4-7.5
	c-4.9-1.7-10-2.7-15.2-3.1c-4.8-0.3-9.6-0.2-14.4,0.3c-8.6,1.1-17,3.3-25.2,6.4c-7.2,2.7-14.2,5.9-21,9.6c-1.6,0.9-3.2,1.7-4.7,2.6
	l-2.8,1.6l-2.1,1.2c-0.6,0.6-1.1,1.2-1.6,1.8l-2,2.2l-1.6,1.7l-3.1,3.3c-4.1,4.4-8.1,8.4-12,12.1c-18.2,17.7-38.2,33.4-59.6,47
	c-19.8,12.4-39.5,21.3-58,26.2s-35.8,5.8-50.7,3.5c-13.2-2-25.9-6.5-37.4-13.3c-1.3-0.7-2.5-1.5-3.7-2.2l-1.8-1.1
	c-0.6-0.4-1.1-0.8-1.7-1.2l-2.8-1.9l0,0l-0.8-0.8l-1.6-1.5c-4.3-3.9-8.2-7.1-11.8-10c-7.2-5.7-12.9-9.7-16.9-12.4s-6.2-4.1-6.6-4.4
	l4.5,3c-13.1-8.8-26.8-16.4-41.2-22.8c-7.8-3.5-15.8-6.5-23.9-9.1c-5.3-1.7-8.4-2.6-10-3l-1.9-0.5c0,0-1.1-0.3-3.1-0.8l-3.8-0.9
	l-5.2-1.1c-2-0.4-4.2-0.9-6.7-1.2s-5.1-0.9-8.1-1.2c-25.1-3.3-50.7-1.6-75.2,5c-23.2,6.5-45.2,16.8-65,30.6l-4.1,2.8
	c-1.3,1-2.6,2-4,3l-4,3.1l-4.1,3.3l-2.1,1.7c-0.3,0.3-0.7,0.5-1,0.8l-0.4,0.4l-0.4,0.3c-1,0.9-2.2,1.8-3.4,2.7
	c-2.4,1.8-4.9,3.5-7.6,5.1c-5.4,3.4-11,6.4-16.9,8.9c-6,2.7-12.3,4.9-18.6,6.7c-25.8,7.6-55.4,7.5-84.6-0.6
	c-15-4.2-29.5-10-43.2-17.3c-0.9-0.4-1.8-0.9-2.6-1.4l-2.6-1.5l-5.2-3l-2.6-1.5l-1.3-0.8l-1.3-0.8l-5.1-3.3l-5.1-3.3
	c-0.9-0.6-1.7-1.1-2.6-1.7l-2.5-1.8l-10-7.3c-13.4-10.3-26.2-21.4-38.3-33.2c-3.1-3-6.2-5.9-9.2-9l-8.9-9.4l-6.1-6.4l-2.3-2.3
	l-0.6-0.6c-0.1-0.2-0.4-0.4-0.7-0.4l-1.6-0.2c-1.1-0.2-2.2-0.3-3.3-0.4l-1.6-0.2l-1.5-0.1l-1.5-0.1h-1c-0.6,0-1.3,0-1.9,0
	c-1.3,0-2.5,0-3.8,0c-2.5,0-5.1,0.2-7.7,0.5c-5.3,0.5-10.5,1.7-15.6,3.4c-5.5,1.8-10.6,4.6-15.2,8.1c-4.9,3.8-8.9,8.5-11.7,14
	c-2.6,5.3-4.4,10.9-5.1,16.8c-1.3,11.1,0.2,21.4,2.6,31c0.5,2.5,1.3,4.7,2,7.1c0.4,1.2,0.7,2.3,1.1,3.5l1.2,3.4l1.2,3.4l0.4,1.2
	c0.2,0.5,0.4,1,0.7,1.5l1.3,2.2c1.2,2.1,2.4,4,3.7,6c4.9,7.9,10.1,15.5,15.4,23c2.6,3.8,5.2,7.5,8,11.1s5.4,7.3,8.3,10.9
	c11.2,14.4,22.8,28.3,34.9,41.6s24.5,26.2,37.4,38.3c3.2,3.1,6.4,6,9.7,9s6.4,6,9.8,8.8l9.9,8.6l10,8.3l5,4.1l5.1,4l10.1,7.9
	l10.2,7.5l5.1,3.7l5.2,3.6l10.3,7.1c3.4,2.3,6.9,4.5,10.4,6.8l5.1,3.3l2.6,1.7l2.6,1.6l8.8,5.3c2.6,1.5,5.1,3.1,7.6,4.5l7.3,4.1
	l6.9,3.8l3.2,1.8l3.1,1.6l11.1,5.7l4.5,2.3c1.4,0.7,2.6,1.2,3.8,1.8c16.5,7.9,30.2,12.5,43.5,15.7c3.4,0.8,6.7,1.4,10,2l5,0.9
	c1.7,0.3,3.4,0.6,5.1,0.8c6.9,0.8,14,1.5,21.7,2.1c-6.6-4.2-12.5-8-18.3-11.4c-1.5-0.8-2.9-1.8-4.3-2.7l-4.2-2.6
	c-2.8-1.7-5.7-3.4-8.6-5c-11.5-6.7-23.8-13.1-39.6-20.8c-1.1-0.5-2.3-1.1-3.6-1.8l-4.3-2.2l-10.6-5.3l-3-1.6l-3.1-1.8l-6.6-3.7
	l-7.1-4c-2.4-1.4-4.8-2.9-7.3-4.4l-8.5-5.1l-2.5-1.5l-2.5-1.6l-5-3.2c-3.3-2.2-6.7-4.3-10-6.5l-9.9-6.9c-1.7-1.1-3.3-2.3-5-3.5
	l-4.9-3.6l-9.9-7.3l-9.8-7.6l-4.9-3.8l-4.8-4l-9.7-8l-9.5-8.3c-3.2-2.7-6.3-5.6-9.4-8.5s-6.3-5.7-9.4-8.7
	c-12.4-11.7-24.5-24.2-36.1-37.1s-23-26.3-33.7-40.2c-2.8-3.5-5.4-6.9-8-10.5s-5.2-7.1-7.7-10.7c-5.1-7.2-10-14.5-14.6-21.9
	c-1.2-1.8-2.3-3.7-3.4-5.5l-0.4-0.7c0-0.1,0-0.1,0-0.1c-0.1-0.1-0.1-0.3-0.2-0.4l-1.1-3l-1.1-2.9c-0.3-1-0.6-2-0.9-3
	c-0.6-2-1.3-3.9-1.6-5.9c-2-7.8-2.9-15.6-2.1-22.3c0.4-3.1,1.3-6.1,2.6-8.8c1.3-2.5,3.1-4.7,5.4-6.4c4.6-3.6,11.4-5.8,18.8-6.6
	c1.9-0.2,3.7-0.3,5.6-0.3c1,0,1.9,0,2.9,0c0.5,0,0.9,0,1.4,0h0.8h0.1l-0.1-0.1l0,0l0.2,0.3l0.6,0.6l2.3,2.5l9.3,9.8
	c3.1,3.2,6.4,6.3,9.6,9.4c12.8,12.5,26.3,24.2,40.4,35l10.7,7.8l2.7,1.9c0.9,0.6,1.9,1.2,2.8,1.8l5.5,3.6l5.5,3.6l1.4,0.9l1.4,0.8
	l2.9,1.6l5.7,3.2l2.8,1.6c1,0.6,1.9,1.1,2.9,1.6c15.2,8.1,31.3,14.5,47.9,19.1c16.2,4.5,32.9,6.9,49.6,7.1c8.1,0,16.3-0.5,24.4-1.6
	c2-0.3,3.9-0.7,5.9-1l2.9-0.5l1.5-0.3l1.4-0.3c3.9-0.9,7.7-1.7,11.5-2.9c7.4-2.1,14.7-4.7,21.7-7.9c6.8-3,13.5-6.5,19.8-10.5
	c3.1-2,6.1-4,9.1-6.2c1.5-1.1,2.9-2.2,4.5-3.5l1.1-0.9c0.3-0.3,0.6-0.5,0.9-0.7l1.8-1.4l3.5-2.8l3.7-2.8c1.2-0.9,2.4-1.8,3.7-2.7
	l3.7-2.6c17.6-12.3,37.1-21.6,57.7-27.5c21.5-5.8,43.9-7.3,65.9-4.4c2.6,0.3,5,0.7,7.1,1.1c2.2,0.4,4.1,0.8,5.9,1.1l4.6,1l3.4,0.8
	c1.8,0.4,2.7,0.7,2.7,0.7l1.7,0.5c1.5,0.4,4.2,1.1,9,2.7c7.3,2.4,14.5,5.2,21.6,8.3c13.1,5.9,25.8,12.9,37.7,20.9
	c-3.2-2.1-4.5-2.9-4.2-2.7s2.4,1.5,6.1,4s8.9,6.2,15.5,11.4c3.3,2.6,6.9,5.6,10.6,9l1.4,1.3l0.7,0.6l0.8,0.7
	c0.2,0.3,0.5,0.5,0.8,0.7l4.3,3c0.7,0.4,1.3,0.9,2,1.4l2.1,1.3c1.4,0.9,2.8,1.8,4.4,2.7c6.5,3.8,13.4,7,20.5,9.7
	c8.1,3,16.6,5.2,25.2,6.5c18.2,2.9,39,1.7,60.2-4s43-15.6,64.4-28.9c22.8-14.4,44.1-31.2,63.5-50c4.1-3.9,8.4-8.2,12.8-12.8l3.3-3.6
	l3-3.2l0,0l1.5-0.9c1.4-0.8,2.8-1.5,4.2-2.3c5.8-3.2,11.8-5.9,18-8.3c6.3-2.4,12.9-4.1,19.6-5c6.4-0.9,13-0.3,19.2,1.7
	c6.2,2.2,11.7,6.1,15.7,11.3c4.7,6.1,8.3,13,10.5,20.4c1.3,4,2.3,8.1,3,12.2c0.2,1,0.3,2.1,0.5,3.1l0.1,0.6l0,0c0,0,0,0,0,0.1
	c-0.5,1-0.9,2-1.4,3c-8.1,17.9-17.2,35.3-27.2,52.1c-10.5,17.7-22.1,34.6-34.8,50.8c-13,16.6-27.2,32.3-42.5,46.9
	c-3.9,3.6-7.7,7.3-11.7,10.8l-6,5.3l-6.1,5.1l-3.1,2.6l-3.1,2.5l-6.3,5l-6.4,4.8l-3.2,2.4l-3.3,2.3c-34.7,24.8-73,44-111.3,57.8
	c-2.4,0.9-4.8,1.7-7.2,2.5l-7.2,2.4c-4.8,1.5-9.6,3.1-14.4,4.4c-9.5,2.8-19.1,5.3-28.5,7.5s-18.8,4.1-28,5.8l-8.1,1.4
	c-13.3,2.2-24.4,3.5-31,4.2c-17.5,1.9-31.2,3.6-44.3,5.9c-6.6,1.1-12.9,2.3-19.6,3.6s-13.6,2.7-21.2,3.8
	C568.7,403.4,575.8,405.4,582.9,407z"/>
<line class="st4" x1="2735.3" y1="1157.5" x2="2735.3" y2="763.5"/>
<path class="st1" d="M2731.4,792.3v336.4c0.1,12,1.4,18.8,3.9,28.8c2.5-10,3.8-16.8,3.9-28.8V792.3c-0.1-12-1.4-18.8-3.9-28.8
	C2732.8,773.5,2731.5,780.3,2731.4,792.3z"/>
</svg>
