<svg xmlns="http://www.w3.org/2000/svg" width="3587" height="195" viewBox="0 0 3587 195"><title>wavy-line</title><path d="M23,84.13c5.55,1.56,10.58,2.86,15.39,4.15,2.39.75,4.73,1.46,7,2.12s4.65,1.19,6.93,2,4.62,1.43,7,2.09l1.8.49L63,95.6c1.21.4,2.43.8,3.68,1.18s2.52.78,3.83,1.15,2.59.92,3.94,1.37c2.69.93,5.53,1.78,8.48,3,1.61.62,3.62,1.3,6,2.26s5,2.09,8.06,3.41l10,4.44,4.25,1.88L120,118l9.18,3.38,9.5,2.89a194.1,194.1,0,0,0,39.68,6c6.7.17,13.45.53,20.24.18l5.1-.15c1.71-.05,3.41-.07,5.13-.27l10.33-.94a182,182,0,0,0,20.78-3.73l2.6-.61,1.3-.3,1.28-.39,5.12-1.55c3.46-1,6.76-2.27,10.11-3.49l2.52-.92,2.44-1,4.89-2c3.23-1.37,6.37-2.81,9.55-4.21l4.67-2.07c1.56-.69,3.12-1.39,4.66-2,3.09-1.28,6.19-2.64,9.3-3.72l4.67-1.71c1.56-.52,3.15-1,4.73-1.46s3.15-1,4.74-1.42l4.84-1.12,4.85-1.12,5-.79,5-.8a22.94,22.94,0,0,1,2.51-.3l2.53-.23a232.64,232.64,0,0,1,41.25-.41l5.16.47c1.72.16,3.46.27,5.14.59l5.09.82,2.55.4c.85.14,1.71.25,2.54.47l5,1.17,2.51.58,1.26.29c.41.11.82.25,1.24.37l4.95,1.5,2.47.75c.83.25,1.64.59,2.46.88,3.27,1.21,6.55,2.35,9.83,3.79,1.65.69,3.28,1.35,4.94,2.07l5,2.22,10.19,4.52,5.3,2.2c1.76.74,3.52,1.49,5.37,2.13l5.48,2,1.37.51,1.41.43,2.81.85,5.65,1.71,5.75,1.35c1.92.44,3.84.92,5.77,1.31l5.82.93,5.84.93,5.84.55c7.82.92,15.58.91,23.39,1.17,7.81-.26,15.62-.25,23.51-1.18,2-.19,3.93-.34,5.91-.56l5.91-.94,5.91-1,5.87-1.35c2-.47,3.93-.87,5.87-1.41l5.77-1.75c3.9-1.08,7.58-2.6,11.36-4,1.9-.67,3.66-1.49,5.5-2.23s3.69-1.5,5.43-2.29l10.54-4.68c1.73-.75,3.48-1.57,5.19-2.27l5.14-2.14c1.71-.75,3.43-1.33,5.14-2s3.43-1.28,5.16-1.87L646,99.47c1.74-.52,3.47-1.1,5.25-1.46l5.31-1.23,2.66-.62,2.71-.43,5.42-.86,2.71-.44c.91-.11,1.83-.17,2.75-.26l5.52-.5,2.76-.26c.92-.08,1.83-.18,2.77-.18L695,92.91c1.87-.1,3.73,0,5.6,0l5.6.16c1.86.07,3.74.08,5.59.18l5.54.51,5.53.5a27.36,27.36,0,0,1,2.74.37l2.72.43,5.45.87,1.36.22,1.34.32,2.67.62,5.35,1.24c1.76.48,3.5,1,5.26,1.57a189.63,189.63,0,0,1,20.85,7.84l10.6,4.7c1.8.79,3.56,1.6,5.4,2.37l5.55,2.32c1.83.79,3.75,1.48,5.66,2.18l5.74,2.09,5.88,1.79c2,.58,3.9,1.23,5.91,1.64a180.12,180.12,0,0,0,24.08,4.3l6.05.55,3,.28c1,.1,2,.19,3,.19l12,.35c16,0,32.15-1.07,48.08-4.69l6-1.38c2-.55,3.9-1.17,5.85-1.75l2.92-.89,1.46-.44,1.43-.52,5.68-2.09c1.92-.67,3.74-1.46,5.57-2.22s3.69-1.52,5.49-2.3l10.59-4.7,5.2-2.29,5.14-2.14c.86-.35,1.72-.73,2.57-1.06l2.57-.94,5.14-1.89c1.73-.56,3.46-1.06,5.19-1.59l2.59-.79,1.3-.39,1.32-.31,5.27-1.22a53,53,0,0,1,5.3-1.09l5.37-.86c1.79-.26,3.55-.64,5.38-.75l10.88-1c7.34-.17,14.66-.59,22-.19,14.61.41,28.92,2.14,42.5,6.1,3.39,1,6.79,2,10.11,3.29,1.67.62,3.34,1.21,5,1.85l5,2.09,2.5,1,2.52,1.12,5,2.24,5.15,2.28c1.71.76,3.41,1.52,5.2,2.25l5.29,2.21c1.75.75,3.62,1.36,5.42,2s3.62,1.36,5.46,2l5.58,1.69c3.7,1.23,7.51,2,11.28,2.89s7.58,1.42,11.37,2.07l2.85.45,1.42.23c.47.06,1,.09,1.42.14l5.68.52,5.68.52c.94.1,1.88.11,2.82.14l2.82.08c3.75.1,7.5.24,11.24.3l11.2-.32c3.71,0,7.46-.48,11.18-.79l5.58-.51c1.86-.22,3.71-.57,5.57-.85,3.7-.61,7.41-1.08,11.06-2s7.33-1.6,10.88-2.78l5.35-1.63c1.79-.54,3.49-1.24,5.23-1.86s3.48-1.26,5.18-1.92l5-2.09c3.39-1.37,6.55-2.84,9.8-4.26l9.46-4.19a192.89,192.89,0,0,1,18.54-7c3.11-.92,6.17-2,9.34-2.61l4.71-1.1c.78-.17,1.56-.39,2.35-.52l2.39-.38,4.77-.76,2.38-.39,1.19-.19,1.21-.1,9.63-.88c1.59-.2,3.21-.2,4.83-.25l4.84-.13c3.22-.08,6.43-.27,9.63-.09l9.57.27c1.6,0,3.15.21,4.72.34l4.69.42,4.67.43,4.58.73,4.57.73c.76.13,1.53.21,2.27.39l2.23.52,4.45,1c1.48.34,3,.66,4.4,1.14l4.35,1.32c1.44.45,2.89.83,4.31,1.39l4.26,1.57c1.42.52,2.84,1,4.25,1.64l4.23,1.76,2.11.88,2.12.94,8.55,3.79c2.87,1.28,5.73,2.55,8.71,3.77l4.41,1.83c1.48.59,3,1.12,4.51,1.69l4.52,1.65c1.51.53,3.07.95,4.6,1.43a166.83,166.83,0,0,0,37,7c6.11.72,12.11.66,18.07.88,3,.16,6,0,8.9-.07l8.8-.26c11.71-.89,23.29-2.07,34.4-5A192.75,192.75,0,0,0,1620,114.26c9.69-4.26,18.56-8.44,27.36-11.61,4.37-1.74,8.78-2.88,13.09-4.24l6.54-1.52,3.24-.75,3.27-.53,6.47-1c.54-.08,1.07-.19,1.61-.25l1.62-.14,3.23-.3,6.38-.58c1-.13,2.12-.12,3.18-.16l3.17-.09,6.25-.18c1,0,2.06-.07,3.08-.07l3.06.09,6,.17,3,.08c1,0,2,0,2.94.14l11.4,1L1745.65,96c3.47.73,6.84,1.57,10.15,2.31,3.25,1,6.43,1.92,9.53,2.9,3.06,1.16,6.06,2.18,9,3.36l4.32,1.8c1.43.59,2.83,1.17,4.24,1.81,5.57,2.45,11,4.91,16.17,7.11,2.64,1.08,5.13,2.2,7.67,3.13l7.34,2.7a170.48,170.48,0,0,0,24.86,6.29c3.42.54,6.44,1,9,1.42l6.56.61,5.34.48,1.35.12c.89,0,2.22.07,4,.13l6.53.19,4.2.11c1.51.05,3.11-.06,4.82-.08l11.42-.34,13.8-1.27,7.75-1.23,4.08-.66c1.38-.28,2.77-.63,4.19-1l4.32-1c1.46-.34,3-.66,4.42-1.15,3-.91,6-1.77,9.11-2.82s6.22-2.22,9.36-3.49l4.74-2c1.6-.66,3.21-1.34,4.78-2l9.66-4.28c1.62-.71,3.27-1.48,4.91-2.16l5-2.07c1.67-.73,3.37-1.34,5.08-2l5.19-1.91,5.35-1.62c1.8-.54,3.6-1.16,5.49-1.53l5.65-1.31c1-.21,1.9-.49,2.88-.63l2.94-.47,6-1,1.51-.24,1.54-.14,3.1-.28,6.28-.58,1.59-.14,1.61,0,3.24-.09,6.56-.19c1.11,0,2.21-.08,3.32-.08l3.35.1A198.48,198.48,0,0,1,2076.27,95l6.95,1.11,6.91,1.6c1.15.29,2.33.5,3.47.85l3.45,1c2.3.73,4.65,1.31,6.95,2.23s4.63,1.67,7,2.6l7.05,2.94,14.66,6.5c5.08,2.18,10.31,4.39,15.8,6.32,1.37.47,2.7,1,4.12,1.44l4.22,1.29,4.25,1.28c1.43.39,2.89.69,4.34,1l4.37,1c1.46.34,2.92.7,4.4.9l8.93,1.42c1.49.28,3,.38,4.5.53l4.52.41c3,.24,6.06.65,9.09.65,6.07.13,12.2.53,18.38.2l9.31-.27,9.44-.84c1.58-.15,3.16-.28,4.74-.46l4.76-.75,4.79-.77,2.39-.39,2.39-.54c3.17-.76,6.38-1.42,9.55-2.28s6.32-1.89,9.46-2.9,6.21-2.25,9.28-3.44,6.08-2.49,9-3.79l8.82-3.91c2.9-1.28,5.83-2.62,8.7-3.78l4.34-1.81c1.44-.61,2.9-1.08,4.35-1.63l4.37-1.61c1.47-.48,3-.9,4.43-1.36l4.44-1.35c1.5-.39,3-.71,4.54-1.07l4.55-1.06,1.15-.26,1.16-.18,2.33-.37,4.67-.75,2.34-.38c.78-.14,1.58-.16,2.38-.25l9.57-.87a24,24,0,0,1,2.42-.14l2.43-.06,4.88-.14,4.9-.14c1.63,0,3.27.07,4.91.09l9.86.28c3.26.26,6.52.59,9.8.88s6.49.86,9.73,1.34c1.62.27,3.25.49,4.86.8l4.78,1.12,4.79,1.12,4.72,1.43c1.58.5,3.17.91,4.73,1.48l4.7,1.73c3.13,1.07,6.27,2.5,9.41,3.78s6.36,2.8,9.57,4.2l4.91,2.18c1.63.73,3.28,1.46,5,2.16l5.09,2.11c1.68.73,3.48,1.32,5.22,2s3.51,1.31,5.28,1.92l5.43,1.65,2.72.82c.9.29,1.81.55,2.74.75l5.55,1.29c14.86,3.31,30,4.45,45.13,4.61,15.08-.15,30.48-1.17,45.78-4.58l5.72-1.33c1-.2,1.9-.49,2.84-.78l2.81-.85,5.63-1.72,5.5-2c3.72-1.29,7.2-2.85,10.79-4.32,1.79-.74,3.47-1.52,5.22-2.28l5.17-2.3c3.38-1.49,6.79-3,10.13-4.39,1.68-.69,3.36-1.44,5-2.07l5.05-1.85,2.53-.93,2.55-.78,5.12-1.55,1.28-.39,1.31-.3,2.6-.6,5.22-1.22c14-2.84,28.78-3.53,43.51-3.33l5.53.16c1.83.08,3.7,0,5.51.26l10.94,1L2757,96.11c3.53.8,7.07,1.6,10.59,2.47l5.21,1.59c1.73.52,3.48,1,5.19,1.7l5.16,1.89c1.72.6,3.44,1.4,5.16,2.09,3.42,1.39,6.91,3,10.4,4.51l5.32,2.36c1.8.78,3.53,1.6,5.39,2.36,3.69,1.52,7.33,3.11,11.18,4.45,1.91.68,3.78,1.43,5.72,2.06l5.86,1.78,2.93.88c1,.3,2,.49,3,.73l6,1.39c1,.21,2,.49,3,.65l3,.49,6,1c1,.15,2,.34,3,.46l3,.28,6,.55c4,.47,8,.49,12.05.62l6,.17,1.5,0,1.51,0,3-.09,6-.17,3-.09c1,0,2,0,3-.15L2916.4,129c4-.56,8.06-1.26,12.09-1.89,2-.37,4-.89,6-1.34s4-.91,6-1.41l5.88-1.78c2-.6,3.94-1.16,5.83-1.9l5.72-2.1c1-.34,1.9-.72,2.82-1.11l2.77-1.15c3.74-1.52,7.3-3.13,10.89-4.72,7.1-3.13,14-6.29,20.91-8.77,1.73-.61,3.45-1.31,5.2-1.86l5.25-1.59,2.62-.8c.88-.24,1.78-.42,2.67-.63l5.34-1.24c.89-.19,1.76-.46,2.67-.58l2.72-.43,5.44-.87c.91-.14,1.8-.32,2.72-.41l2.76-.25,5.52-.51c3.66-.44,7.41-.43,11.13-.56l5.58-.16,1.4,0,1.39,0,2.79.08c3.71.13,7.45.15,11.14.37l11,1c3.63.49,7.21,1.14,10.81,1.68.91.12,1.78.36,2.67.56l2.64.61,5.29,1.23,5.2,1.57,2.59.78,1.3.39,1.28.48c3.42,1.28,6.84,2.43,10.25,3.92l5.12,2.15,5.17,2.29,10.53,4.66,5.44,2.27,2.72,1.13,2.8,1,5.6,2c1.88.66,3.82,1.19,5.73,1.79s3.81,1.21,5.76,1.68l5.84,1.36,2.91.67,1.46.33,1.47.24,5.88.94,2.93.47c1,.15,2,.33,2.94.39l5.87.54,5.86.53c2,.17,3.89.14,5.83.22l5.82.17,2.91.08c1,0,1.93.06,2.9,0l11.6-.33c1,0,1.93,0,2.9-.11l2.9-.26,5.81-.53,2.9-.27a28.44,28.44,0,0,0,2.89-.34l5.78-.92c1.93-.32,3.86-.59,5.77-1l5.72-1.32c1.89-.47,3.81-.83,5.68-1.39l5.6-1.69c3.76-1,7.32-2.5,10.95-3.8,1.83-.64,3.54-1.41,5.3-2.13l5.23-2.19,10.08-4.47,4.94-2.19,4.88-2c3.24-1.42,6.49-2.54,9.72-3.74.81-.29,1.61-.62,2.43-.87l2.45-.74,4.9-1.49c13.09-3.69,26.7-5.23,40.36-5.69l5.12-.15c1.71,0,3.41-.15,5.12,0l10.19.29,2.54.08,2.5.23,5,.46,5,.45,4.9.79,4.88.77,1.22.2,1.2.27L3435,97c3.18.76,6.38,1.38,9.47,2.42l4.66,1.41a24.19,24.19,0,0,1,2.31.79l2.3.84,4.58,1.68,1.49.62,5.76,2.39c1.87.79,3.72,1.64,5.5,2.41l10.07,4.46c3.13,1.35,6.07,2.53,8.58,3.58s4.8,1.78,6.56,2.43a90.14,90.14,0,0,0,9.53,2.93c1.53.39,3,.82,4.5,1.13l4.38.75c1.43.24,2.84.45,4.22.65l2,.28,2,.13c2.71.15,5.33.24,7.91.29a65,65,0,0,0,7.66-.37c2.54-.21,5.06-.48,7.61-.78,5.09-.81,10.29-2,15.85-3.16-5.55-1.57-10.58-2.87-15.39-4.16-2.39-.75-4.72-1.46-7.05-2.12s-4.64-1.19-6.93-2-4.62-1.44-7-2.1l-1.8-.49-1.79-.61c-1.21-.4-2.43-.79-3.68-1.18s-2.53-.77-3.83-1.15-2.59-.92-3.94-1.37c-2.69-.93-5.53-1.78-8.48-3-1.61-.62-3.62-1.3-6-2.26s-5-2.09-8.06-3.41l-10-4.44c-1.83-.8-3.68-1.65-5.66-2.49l-6.14-2.56-1.6-.66-5-1.85-2.53-.93c-.84-.32-1.69-.62-2.56-.87l-5.21-1.58c-3.46-1.15-7-1.87-10.59-2.71l-2.67-.62-1.34-.3-1.35-.22L3428,78l-5.42-.86-5.44-.51-5.46-.49-2.73-.25-2.72-.09-10.93-.31c-1.83-.09-3.65,0-5.48,0l-5.5.16-5.51.16c-1.84.08-3.69.31-5.54.46l-5.55.51-2.79.25c-.92.08-1.85.28-2.78.41l-5.58.89-2.79.45a26.69,26.69,0,0,0-2.78.53l-5.55,1.28-2.78.65-1.39.32-1.37.41-5.47,1.66-2.74.83c-.91.28-1.79.64-2.68,1-3.56,1.32-7.17,2.58-10.59,4.08l-5.19,2.17-5.06,2.24-10,4.42-4.92,2.06c-1.64.66-3.27,1.41-4.92,2-3.29,1.17-6.55,2.52-9.9,3.44l-5,1.52c-1.67.49-3.39.81-5.08,1.23l-5.11,1.18c-1.72.34-3.47.57-5.2.86l-5.22.84c-.87.16-1.75.23-2.64.31l-2.66.24-5.32.49-2.67.24c-.89.07-1.79.06-2.69.1l-10.82.31c-.9,0-1.81,0-2.71,0l-2.71-.08-5.43-.15c-14.45-.58-28.72-2.47-42.4-6.65-1.71-.53-3.43-1-5.14-1.59l-5.08-1.87-2.55-.93-2.55-1.06-5.09-2.12L3142,94.06l-5.3-2.35-5.44-2.28c-3.59-1.58-7.42-2.88-11.17-4.28l-1.41-.52-1.45-.44-2.9-.88-5.81-1.75-5.92-1.38-3-.68c-1-.22-2-.48-3-.62-4-.62-8-1.32-12-1.86l-12-1.09c-4-.24-8-.27-11.95-.41l-3-.08-1.49,0-1.5,0-6,.17c-4,.13-8,.13-12,.6l-6,.55-3,.28c-1,.1-2,.3-3,.45l-6,1-3,.49c-1,.14-2,.43-3,.64l-6,1.39c-1,.24-2,.44-3,.71l-2.93.89L2995,84.36c-1.95.61-3.83,1.37-5.74,2.06-3.86,1.34-7.52,2.92-11.21,4.46-1.88.76-3.62,1.58-5.43,2.37l-5.34,2.37c-3.51,1.55-7,3.14-10.47,4.53-1.74.7-3.47,1.51-5.2,2.11l-5.2,1.91a155.19,155.19,0,0,1-43.22,8.49c-.92.11-1.86.11-2.8.14l-2.81.07L2892,113l-2.81.09c-.46,0-.93,0-1.4,0l-1.4,0-5.61-.16c-3.74-.12-7.5-.13-11.17-.57l-5.54-.5-2.77-.25c-.92-.11-1.82-.29-2.73-.42l-5.44-.87-2.72-.44c-.91-.14-1.79-.39-2.68-.59l-5.34-1.24c-.89-.21-1.79-.38-2.66-.64l-2.62-.8-5.25-1.58c-1.74-.56-3.45-1.26-5.18-1.87-3.46-1.2-6.91-2.7-10.36-4.13-1.71-.69-3.48-1.52-5.21-2.28l-5.26-2.33c-3.57-1.58-7.1-3.18-10.82-4.69-1.86-.74-3.64-1.57-5.55-2.24l-5.68-2.09c-1.87-.74-3.82-1.3-5.77-1.89l-5.82-1.76c-3.94-1-7.9-1.89-11.85-2.76L2748.4,77.1,2736.47,76c-2-.24-4-.2-5.94-.28l-5.93-.17c-2,0-3.95-.15-5.92-.13l-5.91.17-5.91.17-3,.09-3,.27-5.92.54-3,.27c-1,.09-2,.17-3,.35-3.93.65-7.88,1.21-11.79,1.94l-5.84,1.35-2.92.68-1.46.34-1.43.44-5.72,1.73-2.86.87-2.78,1-5.56,2c-1.83.7-3.6,1.48-5.4,2.22-3.63,1.47-7.05,3-10.53,4.56l-5.1,2.27c-1.69.73-3.4,1.53-5.06,2.21-3.34,1.37-6.67,2.87-10,4l-5,1.83-5,1.54-2.52.76a22.77,22.77,0,0,1-2.54.7l-5.11,1.18c-13.67,3.05-27.82,4-42,4.17-14.16-.16-28.07-1.23-41.35-4.19l-5-1.15a21.11,21.11,0,0,1-2.45-.66l-2.43-.74-4.86-1.47c-1.6-.56-3.2-1.17-4.79-1.75s-3.19-1.11-4.79-1.8l-4.76-2c-1.58-.64-3.19-1.35-4.79-2.06s-3.21-1.42-4.81-2.13c-3.27-1.44-6.49-2.92-9.83-4.32S2454,88,2450.51,86.82l-5.17-1.89c-1.73-.62-3.52-1.1-5.27-1.65l-5.28-1.6-5.36-1.26-5.35-1.24c-1.79-.35-3.59-.6-5.38-.9-3.58-.53-7.16-1.26-10.73-1.48s-7.13-.67-10.67-.94l-10.57-.31c-1.76,0-3.52-.14-5.27-.1l-5.25.15-5.23.15-2.61.08a25.37,25.37,0,0,0-2.61.15l-10.44,1c-.86.09-1.73.12-2.6.27l-2.59.41-5.17.83-2.58.42-1.29.2-1.27.29-5.1,1.18c-1.69.41-3.39.77-5.07,1.21l-5,1.5c-1.65.51-3.31,1-4.94,1.53l-4.81,1.76c-1.59.6-3.22,1.15-4.77,1.8l-4.62,1.92c-3.12,1.27-6.05,2.61-9,3.92L2287.8,98c-2.87,1.25-5.69,2.38-8.52,3.57s-5.64,2.09-8.44,3.14a153.93,153.93,0,0,1-34.29,7.25l-8.65.78-8.69.25c-5.77.32-11.48-.08-17.15-.18-2.85,0-5.6-.38-8.38-.6l-4.15-.38c-1.38-.13-2.76-.21-4.1-.47l-8.06-1.29a37.54,37.54,0,0,1-4-.81l-3.9-.9A174.75,174.75,0,0,1,2139.63,98l-14.71-6.51-7.52-3.13c-2.52-1-5.11-1.91-7.65-2.85S2104.6,83.81,2102,83l-3.85-1.17c-1.28-.38-2.6-.63-3.89-1l-7.73-1.78-7.69-1.24a216.57,216.57,0,0,0-29.71-2.3l-3.59-.1c-1.19,0-2.37.06-3.55.08l-7,.2-3.47.1-1.73.06-1.73.16-6.84.62-3.38.31-1.68.16-1.67.27-6.61,1-3.26.53c-1.09.16-2.15.47-3.21.69l-6.32,1.47c-2.11.43-4.12,1.11-6.14,1.71l-6,1.82-5.71,2.09c-1.89.69-3.76,1.37-5.53,2.14l-5.3,2.22c-1.76.72-3.4,1.49-5.07,2.22l-9.62,4.26c-1.55.71-3.07,1.35-4.57,2l-4.43,1.85c-2.92,1.17-5.77,2.14-8.54,3.19a164.52,164.52,0,0,1-30.42,7l-12.67,1.17-10.65.3c-1.59,0-3.09.14-4.49.09l-3.92-.11-6.1-.18c-1.64-.05-2.88-.07-3.71-.11l-1.23-.11-4.9-.45-6-.55-8.18-1.29a153.88,153.88,0,0,1-22.27-5.63L1813,102.3c-2.3-.84-4.69-1.92-7.15-2.92-4.94-2.08-10.22-4.5-16-7-2.84-1.28-6-2.51-9-3.82s-6.48-2.42-9.84-3.68c-3.45-1.1-7-2.16-10.64-3.24-3.7-.85-7.47-1.78-11.34-2.59-3.89-.62-7.87-1.28-11.93-1.89L1724.6,76c-1.06-.13-2.11-.12-3.17-.16l-3.19-.09-6.48-.19-3.28-.09c-1.1,0-2.2.05-3.31.08l-6.7.19-3.39.1c-1.14,0-2.27,0-3.43.17l-7,.63-3.52.32-1.77.17c-.59.06-1.18.17-1.77.26l-7.17,1.14-3.62.59-3.62.84-7.32,1.7c-4.81,1.49-9.78,2.82-14.55,4.7-9.68,3.5-19.07,7.94-28.31,12a175.55,175.55,0,0,1-28.57,9.94c-9.87,2.63-20.42,3.69-31.21,4.52l-8.22.23c-2.75.07-5.52.23-8.3.07-5.55-.21-11.2-.14-16.77-.81a149.61,149.61,0,0,1-33.34-6.31c-1.37-.43-2.76-.8-4.12-1.28l-4.1-1.5c-1.37-.52-2.75-1-4.12-1.54l-4.13-1.72c-2.75-1.11-5.56-2.37-8.37-3.62l-8.61-3.82-2.18-1-2.25-.94-4.51-1.88c-1.49-.65-3.06-1.21-4.62-1.79l-4.69-1.72c-1.55-.61-3.18-1-4.79-1.55l-4.86-1.47c-1.61-.54-3.27-.9-4.92-1.28l-5-1.15-2.49-.58c-.84-.19-1.68-.29-2.52-.44l-5.06-.81-5.07-.8-5.09-.48-5.11-.46c-1.71-.14-3.42-.36-5.13-.37l-10.26-.29c-3.43-.18-6.87,0-10.32.09l-5.19.15c-1.73.06-3.46.06-5.21.27l-10.5.95-1.31.13-1.32.2-2.63.42-5.29.85-2.64.42c-.88.15-1.75.39-2.63.58l-5.27,1.22c-3.54.72-7,1.89-10.44,2.92l-2.6.79c-.87.28-1.7.61-2.55.92l-5.09,1.86c-1.72.6-3.35,1.31-5,2l-5,2.06-9.64,4.26c-3.14,1.38-6.33,2.86-9.45,4.11l-4.7,2c-1.57.61-3.14,1.16-4.72,1.75s-3.14,1.21-4.73,1.69l-4.8,1.45c-12.8,3.8-26.3,5.62-40.15,6.28l-10.44.3c-3.49,0-7-.19-10.49-.28l-2.63-.07c-.87,0-1.75,0-2.61-.14l-5.21-.48-5.21-.47c-.43,0-.87-.07-1.3-.12l-1.28-.21-2.57-.41c-3.42-.6-6.9-1-10.24-1.87s-6.78-1.47-10.08-2.58l-5-1.51c-1.66-.55-3.3-1.2-5-1.79s-3.31-1.16-5-1.88l-5-2.07c-1.64-.66-3.33-1.42-5-2.17l-5-2.23-5.16-2.29-2.58-1.14-2.67-1.12-5.33-2.22c-1.82-.7-3.67-1.36-5.5-2-3.64-1.43-7.46-2.5-11.25-3.66-.94-.28-1.89-.58-2.84-.84l-2.9-.68-5.79-1.34c-1.93-.51-3.89-.77-5.84-1.09l-5.86-.94c-1-.14-2-.33-2.94-.44l-2.94-.27-5.88-.54-3-.27-1.47-.13c-.49,0-1,0-1.47-.06l-5.87-.17c-7.83-.41-15.68,0-23.55.21l-11.87,1.08c-2,.13-4,.53-5.93.82l-5.94,1c-2,.26-4,.76-5.92,1.21l-5.89,1.37-1.48.35-1.45.44-2.9.87c-1.93.6-3.87,1.16-5.79,1.78l-5.66,2.08-2.83,1c-.93.36-1.83.75-2.75,1.13l-5.49,2.29-5.34,2.35L939,98.27c-1.73.75-3.44,1.44-5.16,2.17s-3.44,1.46-5.16,2.06l-5.17,1.89-1.29.48-1.3.39-2.62.79c-1.74.52-3.48,1.08-5.23,1.57l-5.33,1.23c-14.21,3.24-29.11,4.25-44.08,4.25l-11.22-.32c-.94,0-1.86-.09-2.78-.18l-2.77-.26-5.55-.5a163.92,163.92,0,0,1-21.7-3.86c-14.25-3.4-27.59-9.82-42.09-16.19a204.62,204.62,0,0,0-22.7-8.53c-2-.58-3.91-1.21-5.88-1.75l-6-1.39-3-.69-1.49-.35c-.5-.1-1-.17-1.51-.25l-6-1-3-.48c-1-.16-2-.33-3-.4l-6-.55-6-.55c-2-.11-4-.13-6-.2l-6-.17c-2-.06-4-.15-6-.05l-12,.35c-1,0-2,.11-3,.2l-3,.27-6,.55c-1,.1-2,.17-3,.29l-3,.48-6,1-3,.48-3,.68-5.94,1.38c-2,.41-3.93,1.05-5.88,1.63l-5.82,1.77c-1.91.65-3.79,1.38-5.68,2.06s-3.81,1.36-5.61,2.15L618.43,91c-1.84.75-3.57,1.56-5.35,2.34L602.61,98c-1.74.79-3.43,1.45-5.14,2.17s-3.41,1.48-5.12,2.08c-3.43,1.21-6.8,2.63-10.27,3.57l-5.16,1.57c-1.74.49-3.5.83-5.25,1.25l-5.24,1.22-5.35.85-5.33.86c-1.8.2-3.61.33-5.41.51-7.19.86-14.53.84-21.8,1.09-7.27-.26-14.57-.23-21.69-1.09l-5.35-.49-5.27-.85-5.26-.83c-1.73-.36-3.43-.79-5.15-1.18l-5.15-1.2-5-1.53-2.53-.76-1.26-.39-1.24-.46-5-1.82c-1.66-.58-3.31-1.28-5-2l-5-2.06-10.06-4.46-5.11-2.27c-1.71-.75-3.49-1.46-5.23-2.2-3.46-1.51-7.1-2.8-10.71-4.12-.9-.32-1.79-.68-2.71-1l-2.77-.84L413.57,82c-.46-.13-.92-.29-1.39-.41l-1.4-.32L408,80.58l-5.62-1.3c-.93-.24-1.88-.37-2.82-.52l-2.82-.46-5.65-.9c-1.88-.35-3.76-.47-5.63-.65l-5.63-.51a248,248,0,0,0-44.46.45l-2.76.25c-.92.08-1.84.16-2.76.33l-5.5.88-5.49.88-5.43,1.25L308,81.54c-1.78.5-3.54,1.06-5.31,1.59s-3.54,1.05-5.28,1.63l-5.14,1.89c-3.47,1.2-6.73,2.63-10,4-1.67.68-3.26,1.39-4.85,2.1l-4.79,2.12c-3.12,1.37-6.23,2.79-9.3,4.09l-4.58,1.91-2.28.95-2.29.84c-3,1.1-6.06,2.31-9.14,3.15l-4.58,1.4-1.14.34-1.16.27-2.33.54a164.77,164.77,0,0,1-18.71,3.36l-9.47.86c-1.57.19-3.17.2-4.76.25l-4.76.13c-6.33.35-12.62,0-18.88-.16a177,177,0,0,1-36-5.4l-8.5-2.58-8.35-3.08-8.27-3.46L114,96.44,103.89,92c-3.13-1.36-6.07-2.54-8.58-3.59s-4.8-1.77-6.56-2.43A92.55,92.55,0,0,0,79.22,83c-1.53-.39-3-.82-4.49-1.12l-4.39-.76c-1.43-.23-2.83-.45-4.22-.65l-2.05-.28-2-.13c-2.7-.15-5.33-.24-7.91-.28a62.88,62.88,0,0,0-7.66.36c-2.53.22-5.06.48-7.61.78C33.76,81.78,28.56,82.92,23,84.13Z" style="fill:var(--theme-color-accent-primary)"/></svg>
