<!-- Todo, 
 Add CSS inside this SVG, assigning color to a class name instead of 
 repeating a (variable) class name multple times.  
 -->

<svg xmlns="http://www.w3.org/2000/svg" width="2871" height="979" viewBox="0 0 2871 979"><title>hippo</title><path d="M2247,913s7-18,0-45c-27.65-106.64-60.25-263.5-256-328,0,0-257-91-409,67,0,0-141-58-211,28,0,0-62-20-94-16,0,0-4-53-62-83,0,0,29-45,72-76,6.18-4.45-70-31-128,50,0,0-97-64-213,12,0,0-62-84-134-46l92,89s-64,42-28,176c0,0-26,4-30,20,0,0-32-34-58-26,0,0-60,16-50,68,0,0,20,24,32,28,0,0-40,24-12,70v16c34-22,93.5-24.27,127.76,0,28.24,20,104.09,26,139.67,0s108.78-20,135.67,0,83,28.31,138.67,0c45.23-23,89.36-18.91,136.23,0,57,23,78.2,19.36,135.13,0,55.87-19,77.83-24.7,135.67,0,56.2,24,91.2,24,141.67,0,55.36-26.33,58.42-27.43,133.68,0,65.85,24,91.71,27.79,140.66,0C2188,880,2247,913,2247,913Z" style="fill:#f8ffff"/><path d="M2247,913a47.64,47.64,0,0,0,4.81-9.93,54.24,54.24,0,0,0,2.57-10.18,62.23,62.23,0,0,0-1.14-23.9c-.15-.65-.32-1.37-.5-2.18s-.4-1.58-.63-2.48c-.45-1.77-1-3.79-1.53-6s-1.18-4.62-1.83-7.17q-2.58-9.92-5.18-20-2.73-10.38-5.67-20.87c-3.94-14-8.19-28.07-13.07-42.13-9.75-28.12-21.88-56.21-37.65-82.86a350.38,350.38,0,0,0-26.55-38.42l-3.69-4.59c-.62-.76-1.22-1.54-1.86-2.29l-1.94-2.21c-2.61-2.94-5.18-5.93-7.83-8.85l-8.21-8.52c-1.34-1.45-2.81-2.78-4.24-4.14l-4.31-4.08a334.76,334.76,0,0,0-78.21-54.06l-5.32-2.73c-1.79-.88-3.62-1.66-5.43-2.5l-10.87-5c-3.67-1.54-7.38-3-11.07-4.49l-5.54-2.23c-1.84-.76-3.72-1.35-5.59-2l-11.21-4-2.78-1-2.89-1c-1.91-.63-3.81-1.22-5.72-1.8-7.62-2.32-15.27-4.41-23-6.34a581.5,581.5,0,0,0-93.15-15.4,482.88,482.88,0,0,0-92.94,1l-5.72.67-5.69.78c-3.79.48-7.56,1.16-11.32,1.74-7.51,1.34-15,2.76-22.35,4.53s-14.65,3.7-21.86,5.82-14.29,4.55-21.24,7.23a297.49,297.49,0,0,0-76.29,42.17c-5.66,4.31-11.09,8.85-16.34,13.5-1.34,1.13-2.6,2.34-3.88,3.53l-3.82,3.57c-1.29,1.17-2.49,2.43-3.72,3.65l-1.84,1.84-.3.3h0s0,0,0,0l-2-.74-2.44-.86q-4.86-1.68-9.73-3.17-9.75-3-19.47-5.31a289.82,289.82,0,0,0-52.63-7.76,200,200,0,0,0-50.72,3.55c-4,.81-8,1.84-11.83,2.92s-7.63,2.36-11.28,3.79-7.19,3-10.63,4.56-6.73,3.42-9.87,5.31a124.64,124.64,0,0,0-17.2,12.28c-1.31,1.07-2.54,2.2-3.74,3.32l-1.81,1.66-1.71,1.71c-1.14,1.13-2.25,2.25-3.29,3.41l-1.58,1.71-.66.72-.19.22-.67.79h0l-.21-.06-.5-.15c-2.63-.79-5.17-1.54-7.63-2.23-4.91-1.4-9.46-2.6-13.62-3.65-8.31-2.1-15-3.59-19.76-4.54l-5.59-1.11-2.36-.41c-.44-.06,1.48.2,6,1.13-8.42-1.64-16.85-3.09-25.25-3.87-2.08-.26-4.2-.34-6.28-.48l-3.11-.19c-1,0-2.1,0-3.13,0h-4.49l-.26,0-.5,0-.33,0h0c-.1-.47-.19-.93-.28-1.39-.4-1.89-.84-3.76-1.33-5.56-1-3.6-2.11-7-3.32-10.22a115.56,115.56,0,0,0-7.92-16.68A118.1,118.1,0,0,0,1257,561.61c-1.87-2.09-.41-.77,4.58,5.76a120.93,120.93,0,0,0-8.45-10.11c-1.53-1.56-3-3.17-4.61-4.64l-2.37-2.24-2.45-2.13c-3.26-2.85-6.7-5.44-10.18-7.93-1.76-1.2-3.54-2.38-5.32-3.54l-4.69-2.82h0v0c2.25-3.2,4.6-6.34,7-9.43,4.75-6.19,9.67-12.13,14.69-17.86a298.45,298.45,0,0,1,31.61-31.19l4.15-3.4,1-.85.51-.43.26-.21.35-.36,2.88-3,5.72-5.89,1.43-1.47c.17-.13.07-.24.1-.36s0-.3,0-.44a8.38,8.38,0,0,0-.11-1,7.32,7.32,0,0,0-1.61-3.22c-1.66-1.94-4.65-3.54-8-4.68l-2.5-.81-.64-.19-.58-.15-.71-.19c-.94-.24-1.88-.46-2.82-.65a83.07,83.07,0,0,0-11.12-1.51,107.88,107.88,0,0,0-41.55,5.56,124.51,124.51,0,0,0-34,17.79,153.67,153.67,0,0,0-25.13,23.47c-1.77,2-3.44,4.1-5.06,6.14l-2,2.64h0l-.19-.1-.81-.44c-2.14-1.17-4.29-2.27-6.41-3.28a198.21,198.21,0,0,0-44.45-15.07,191.84,191.84,0,0,0-26.72-3.82l-4.34-.29,7.15.5,6,.65c1.14.11,2.35.27,3.64.47l4.06.61A201,201,0,0,0,1024,483l-4.12.87c-1.36.29-2.73.55-4.07.93l-8,2.09c-2.62.75-5.17,1.61-7.73,2.41-1.27.41-2.55.78-3.8,1.23l-3.71,1.38A239.83,239.83,0,0,0,965,504.07l-6.26,3.46-3.08,1.71c-1,.56-2,1.13-3,1.75l-5.31,3.3h0l0,0c-.71-.84-1.41-1.68-2.12-2.48q-2.12-2.46-4.26-4.75c-2.85-3.07-5.72-5.94-8.59-8.65a165.18,165.18,0,0,0-33.08-24.58,114.44,114.44,0,0,0-26.08-10.53l-2.41-.64c-.77-.19-1.51-.31-2.21-.45l-3.68-.71c-2.13-.36-3.62-.48-4.36-.59-1.51-.16-.13-.07,4.37.59A104.81,104.81,0,0,1,887.21,468a101.49,101.49,0,0,0-22.81-6.61,87.16,87.16,0,0,0-22.64-.61l-2.73.31-1.36.16c-.45.06-.89.17-1.34.25L831,462.58c-1.73.41-3.42.95-5.11,1.42l-2.51.74-2.43.92-2.4.92-1.56.59c-.67.23-1.39.62-2.1.95l-8.45,4-4.18,2-.26.13c-.16,0,.07.12.09.18l.41.4.81.8,1.61,1.6,3.22,3.19,3.28,3.17,47.16,45.63,34.25,33.12c.6.59,1.2,1.16,1.79,1.73l.44.43.13.13h0l0,0-.21.2c-.58.53-1.13,1.07-1.66,1.6A92.52,92.52,0,0,0,882.87,579a115.59,115.59,0,0,0-11.32,20.47c-.64,1.36-1.1,2.69-1.6,3.9s-1,2.34-1.3,3.41l-1.86,5.43c-.9,3.06-1.46,5-1.79,6.12l-.38,1.53-.78,3.2c-.43,1.57-.88,3.93-1.58,7.46-.38,1.76-.65,3.83-1,6.24-.17,1.2-.4,2.49-.55,3.87l-.48,4.43-.15,1.42-.18,1.75L859.7,651c-.12,2.22-.41,5.26-.43,9.44s-.09,9.48.19,16.2.94,14.87,2.39,24.63c.6,4.91,1.62,10.17,2.63,15.92.55,2.86,1.23,5.81,1.88,8.9.35,1.54.65,3.12,1,4.71s.81,3.2,1.22,4.85l.25,1h0c-.07,0,.23-.07-.47.12-1,.28-1.92.57-2.89.89q-2.91.95-5.86,2.23a42.58,42.58,0,0,0-11.73,7.42c-.47.42-.93.86-1.38,1.35s-.89,1-1.32,1.48c-.21.26-.43.5-.63.78l-.25.34,0,0h0s.19.18-.45-.39c-1.79-1.59-3.64-3.15-5.57-4.69a117.09,117.09,0,0,0-12.62-8.8,75.35,75.35,0,0,0-15.25-7.08,50.29,50.29,0,0,0-9-2.05,39.1,39.1,0,0,0-9.85,0c-.67.12-1.41.19-2.69.47l-2.38.6-.71.2-.81.25c-.56.17-1.17.37-1.82.59a101.11,101.11,0,0,0-11,4.49,91.89,91.89,0,0,0-18,11.22L753,747l-1.25,1.09c-.86.74-1.79,1.56-2.76,2.54a64,64,0,0,0-6.68,7.52,55.85,55.85,0,0,0-7.39,13,54.4,54.4,0,0,0-3.83,21v1.58c0,.53.07,1.06.11,1.59l.26,3.29c.13,1.11.32,2.22.49,3.36l.45,2.86.07.4c0,.13,0,.28.13.37l.52.62,1.06,1.25,1.37,1.59,1.15,1.31,2.4,2.65c1.65,1.79,3.37,3.63,5.23,5.5s3.8,3.78,5.89,5.71c1,1,2.16,1.93,3.27,2.92s2.31,1.95,3.59,2.9l1.93,1.45.24.18,0,0,.09.07.1.06h0l-.6.55-1,1c-.68.65-1.3,1.36-2,2.05-1.27,1.43-2.53,2.92-3.7,4.52a53.31,53.31,0,0,0-6.14,10.7,48.77,48.77,0,0,0-3.47,12.78,50.64,50.64,0,0,0,.21,13.95,64,64,0,0,0,3.81,13.92l1.43,3.39c.51,1.12,1.09,2.21,1.63,3.33.28.55.55,1.12.85,1.67s.62,1.08.93,1.62l.7,1.23s0,0,0,0v24.89c0,.07.12-.05.18-.07l.21-.13.41-.26.84-.51,3.34-2.06,6.88-4.16c1.16-.72,2.31-1.37,3.46-2L770,917c1.09-.56,2.24-1,3.37-1.55,1.34-.62,2.78-1.15,4.31-1.79s3.25-1.24,5.23-1.85a118.27,118.27,0,0,1,15.62-4,134.8,134.8,0,0,1,26.78-2.31,126.1,126.1,0,0,1,18.86,1.63c3.46.52,7.06,1.33,10.81,2.27a102.74,102.74,0,0,1,11.52,3.82,78,78,0,0,1,12.13,6.07c1,.58,2,1.3,3,2l3.52,2.32c1.25.78,2.54,1.49,3.85,2.23s2.64,1.37,4,2c10.88,5,23.12,8.2,36.38,10.23a191.58,191.58,0,0,0,42.74,1.62,150.08,150.08,0,0,0,23.24-3.49,103.84,103.84,0,0,0,23.73-8.44c2-.94,3.86-2.11,5.79-3.24.94-.59,1.87-1.25,2.81-1.88l2.55-1.74a63.52,63.52,0,0,1,10.08-5.67,102.5,102.5,0,0,1,23.47-7.19,152.27,152.27,0,0,1,25.91-2.42c2.22-.06,4.45,0,6.7,0s4.49.16,6.74.35c4.52.28,9.06.79,13.6,1.48s9.08,1.56,13.57,2.69a114.13,114.13,0,0,1,13.24,4.14,64.49,64.49,0,0,1,12.15,6.09l2.89,2,3.39,2.27c.57.37,1.13.78,1.72,1.12l1.77,1,3.57,1.95a112,112,0,0,0,30.76,10.09,149.81,149.81,0,0,0,32.78,2.15l4.15-.22,2.08-.11c.69-.05,1.38-.15,2.07-.22l8.32-1,8.28-1.49,2.07-.38,2.06-.5,4.1-1,4.12-1c1.37-.37,2.71-.84,4.07-1.25l4.06-1.29c1.35-.46,2.73-.81,4-1.37l8-3.12c.66-.27,1.34-.5,2-.8l2-.91,3.91-1.83,7.61-3.58,3.66-1.73c.62-.28,1.22-.59,1.84-.84l1.89-.75,3.76-1.51,1.89-.76c.63-.24,1.28-.43,1.92-.65l3.86-1.27c1.3-.42,2.57-.89,3.9-1.2a130,130,0,0,1,32.44-4.92,151.13,151.13,0,0,1,33.43,3.06,215.85,215.85,0,0,1,33.13,9.62l16.71,6.48,8.65,3.09c2.89,1,5.87,1.88,8.81,2.83,1.47.48,3,.88,4.49,1.27l4.53,1.2c1.5.44,3.06.72,4.6,1l4.64,1c1.55.3,3.14.49,4.71.73s3.14.51,4.74.63l4.8.39c.8.05,1.6.14,2.4.17l2.41,0a139.22,139.22,0,0,0,38-4.91c12.25-3.14,24.12-7.06,36-11.06s23.51-8,35.33-11.15,23.7-5.25,35.59-5.1c.75,0,1.49,0,2.23,0l2.23.16,4.46.31c1.49.18,3,.41,4.45.61s3,.36,4.45.72l4.44.92c.74.16,1.48.29,2.22.47l2.21.59c2.94.81,5.9,1.52,8.81,2.54s5.87,1.83,8.77,3l4.36,1.61,2.18.81,2.17.89,17.65,7.23a229.86,229.86,0,0,0,37.42,11.52c1.6.39,3.24.63,4.88.9l4.91.8c1.63.28,3.3.37,5,.56l5,.48,5,.18c1.67,0,3.34.17,5,.07l5-.17c.84,0,1.67,0,2.51-.11l2.49-.25a152.3,152.3,0,0,0,38.64-9.08c6.16-2.26,12.19-4.8,18.09-7.54,3-1.33,5.83-2.71,8.71-4.07l8.6-4c5.73-2.65,11.45-5.2,17.17-7.38a85.18,85.18,0,0,1,17.13-4.81,62.2,62.2,0,0,1,8.62-.67,73.66,73.66,0,0,1,8.73.57,128.25,128.25,0,0,1,17.73,3.8c11.87,3.36,23.72,7.59,35.53,11.82s23.7,8.64,35.74,12.54,24.33,7.45,37.16,9.4l4.83.62,2.41.32,2.45.15,4.89.29a22.22,22.22,0,0,0,2.45,0l2.46,0c1.64,0,3.29,0,4.92-.13l4.91-.49,2.45-.24c.8-.13,1.61-.29,2.41-.43l4.83-.89a21.08,21.08,0,0,0,2.38-.55l2.36-.63c1.56-.43,3.15-.81,4.69-1.28l4.57-1.58c1.5-.55,3.07-1,4.51-1.65l4.41-1.85c1.46-.63,2.95-1.21,4.34-1.93l4.25-2.07c1.41-.69,2.85-1.34,4.2-2.11L2126,922l3.85-2.07c.64-.34,1.28-.7,1.93-1l2-.93a127,127,0,0,1,16.06-6.5,124.67,124.67,0,0,1,16.67-4.18l4.23-.7,4.24-.52c1.41-.18,2.84-.24,4.25-.37l.58,0c.53,0,1.05-.1,1.57-.11,2.08-.06,4.1-.22,6-.18a135,135,0,0,1,17.68,1.07c8.54,1.1,15.21,2.18,21.69,3.09l9.73,1.46c3.31.53,6.77,1.09,10.52,2a73.5,73.5,0,0,0-8.72-6.64,75.37,75.37,0,0,0-9-5.05,78.18,78.18,0,0,0-22.66-6.49,140.33,140.33,0,0,0-19.29-1.23c-2.12,0-4.33.12-6.61.18-.57,0-1.14.08-1.72.12l-.63.05c-1.55.14-3.11.21-4.66.41l-4.65.56-4.63.76a136.12,136.12,0,0,0-18.25,4.59,137.56,137.56,0,0,0-17.53,7.08l-2.14,1c-.71.35-1.4.74-2.1,1.11l-4.18,2.24-7.85,4.27c-1.3.74-2.65,1.33-4,2l-4,1.94c-1.33.68-2.69,1.22-4,1.79l-4.07,1.71c-1.34.62-2.74,1-4.12,1.51l-4.13,1.43c-1.39.42-2.8.76-4.2,1.14l-2.1.57a17.14,17.14,0,0,1-2.12.49,96.14,96.14,0,0,1-34.77.66c-11.76-1.77-23.55-5.15-35.3-9s-23.46-8.11-35.37-12.42c-5.94-2.14-11.91-4.26-18-6.31s-12.14-4-18.4-5.77a140.75,140.75,0,0,0-19.42-4.15,86.91,86.91,0,0,0-10.25-.66,73.57,73.57,0,0,0-10.37.81,96.21,96.21,0,0,0-19.53,5.44c-6.17,2.35-12.09,5-17.92,7.7l-8.71,4.08c-2.88,1.36-5.78,2.77-8.6,4-5.67,2.63-11.4,5-17.21,7.18a140.35,140.35,0,0,1-35.64,8.4l-2.26.23c-.76.06-1.52.06-2.28.09l-4.55.16c-1.51.11-3,0-4.55-.07l-4.55-.15-4.54-.45c-1.52-.17-3-.24-4.55-.5l-4.52-.74c-1.51-.25-3-.47-4.52-.84a219.05,219.05,0,0,1-35.46-10.93l-17.61-7.22-2.24-.91-2.27-.85-4.56-1.69c-3-1.17-6.14-2.11-9.24-3.13s-6.26-1.84-9.42-2.7l-2.38-.64c-.8-.19-1.61-.34-2.42-.52l-4.84-1c-1.6-.38-3.27-.54-4.9-.79s-3.29-.47-4.93-.67l-5-.35-2.49-.18c-.83,0-1.67,0-2.5,0-13.34-.18-26.47,2.12-38.8,5.5s-24.28,7.39-36.08,11.37-23.4,7.82-35,10.8a127,127,0,0,1-34.8,4.55l-2.16,0c-.72,0-1.44-.11-2.16-.16l-4.31-.34c-1.44-.1-2.86-.39-4.3-.58s-2.86-.38-4.28-.65l-4.27-.89c-1.42-.31-2.85-.56-4.26-1l-4.24-1.12c-1.41-.37-2.82-.74-4.22-1.21-2.8-.9-5.61-1.7-8.39-2.69l-8.32-3-16.72-6.47a226.26,226.26,0,0,0-35-10.15,163.08,163.08,0,0,0-36-3.27,141.41,141.41,0,0,0-35.35,5.36c-1.45.34-2.84.85-4.24,1.3l-4.2,1.38c-.69.24-1.4.45-2.09.71l-2,.82-4.08,1.63-2,.82c-.68.27-1.32.61-2,.91l-3.94,1.86-7.55,3.55-3.65,1.71-1.82.85c-.61.28-1.25.5-1.87.75L1278,920c-1.23.53-2.52.85-3.78,1.27l-3.79,1.21c-1.26.39-2.51.82-3.78,1.17l-3.84,1-3.82.95-1.91.47-1.93.34-7.69,1.39-7.71.9c-.64.07-1.28.16-1.92.21l-1.93.1-3.85.2a137.06,137.06,0,0,1-30.14-2,99.55,99.55,0,0,1-27.55-9l-3.08-1.68-1.54-.84c-.5-.29-1-.64-1.44-.95l-2.86-1.91-.71-.48-.85-.59-1.73-1.19a75.15,75.15,0,0,0-14.35-7.23,125.71,125.71,0,0,0-14.66-4.59c-4.9-1.23-9.79-2.19-14.66-2.91s-9.73-1.28-14.56-1.59c-2.41-.2-4.81-.25-7.21-.36s-4.78-.11-7.16,0a163.2,163.2,0,0,0-27.94,2.63,113.56,113.56,0,0,0-26.2,8.06,73.92,73.92,0,0,0-11.86,6.68l-2.6,1.76c-.78.52-1.53,1.07-2.32,1.56-1.63,1-3.21,1.94-4.91,2.75a91.83,91.83,0,0,1-21.05,7.45A138,138,0,0,1,971.17,928a180.83,180.83,0,0,1-40.09-1.52c-12.38-1.89-23.76-4.94-33.19-9.27-1.18-.53-2.28-1.14-3.41-1.69s-2.15-1.2-3.17-1.83l-3.09-2c-1.18-.76-2.3-1.6-3.49-2.27a90.55,90.55,0,0,0-13.89-7,115.1,115.1,0,0,0-12.91-4.27c-4.15-1.05-8.12-1.94-11.93-2.52a137.64,137.64,0,0,0-20.58-1.77,146.58,146.58,0,0,0-29.09,2.51,129.64,129.64,0,0,0-17.12,4.37c-2.17.67-4,1.42-5.78,2s-3.31,1.31-4.82,2c-1.27.59-2.55,1.11-3.78,1.75l-.93.46,0,0h0v-7.18c0-.14,0-.31-.05-.43l-.22-.39-.9-1.56c-.34-.61-.69-1.22-1-1.83l-.81-1.41c-.26-.48-.48-1-.73-1.44-.46-1-1-1.9-1.4-2.86L757.5,887a52.5,52.5,0,0,1-3.11-11.32,37,37,0,0,1,2.46-20.43,41.22,41.22,0,0,1,4.78-8.32c.92-1.27,1.93-2.46,2.94-3.61.54-.55,1-1.12,1.58-1.65l.8-.79,1.25-1.15c.62-.56,1.3-1.09,2-1.61a23,23,0,0,1,2.08-1.56c.77-.51,1.49-1,2.29-1.51l2.39-1.52,4.71-3,.56-.35.27-.18s.12-.06.11-.08l-.15-.06-1.2-.5-2.37-1-5-2.09-2.51-1c-.69-.37-1.31-.75-2-1.12L767.47,823l-1-.55-.48-.28c-.12-.07-.15-.11-.23-.16l-1.61-1.21a115.76,115.76,0,0,1-11.55-10.47c-1.74-1.75-3.37-3.5-4.93-5.19l-2.28-2.52-1.9-2.17h0v0l0-.28c-.14-.95-.31-1.89-.42-2.8l-.21-2.69c0-.44-.08-.87-.09-1.3v-1.27a42.61,42.61,0,0,1,3-16.55,44.1,44.1,0,0,1,5.85-10.31,53.45,53.45,0,0,1,5.49-6.17c.81-.81,1.59-1.5,2.32-2.13l1-.92,1-.81a79.71,79.71,0,0,1,15.75-9.77,88.82,88.82,0,0,1,9.7-4l1.54-.5.64-.19.6-.17,1.68-.43c.87-.19,1.33-.22,1.77-.31a27.23,27.23,0,0,1,6.81,0,39.25,39.25,0,0,1,6.85,1.58,64.44,64.44,0,0,1,12.84,6A105.56,105.56,0,0,1,831,755.36c1.76,1.4,3.45,2.83,5.09,4.28.21.18,1.3,1.17,2.08,1.9s1.66,1.57,2.47,2.38c1.64,1.61,3.26,3.38,4.88,5.06.8.84,1.6,1.67,2.39,2.51l.53.55.27.28c0-.1.09-.29.14-.43l.56-1.87q.6-2,1.2-4l.59-2,.3-1,.32-.87a14.94,14.94,0,0,1,1.41-3.22c.14-.24.28-.4.42-.6l.21-.31c.11-.15.25-.29.37-.44a10.42,10.42,0,0,1,.77-.87c.26-.28.55-.56.85-.83a31.27,31.27,0,0,1,8.52-5.31c1.57-.69,3.18-1.29,4.79-1.82.8-.27,1.61-.51,2.41-.74.19,0,1.36-.38,2.19-.56s1.79-.41,2.7-.58l5.57-.93.69-.11.34-.06a.76.76,0,0,0,.16,0l0-.16-.32-1.27-.63-2.54q-1.15-4.56-2.25-8.95c-.4-1.6-.8-3.17-1.18-4.71s-.68-3.06-1-4.55c-.63-3-1.29-5.84-1.82-8.6-1-5.54-2-10.61-2.54-15.32-1.39-9.38-1.91-17.16-2.28-23.55s-.32-11.43-.18-15.37.3-6.81.4-8.9c.07-1.05.12-1.9.16-2.59l.17-1.64.15-1.33c.15-1.47.3-2.85.44-4.15s.36-2.49.52-3.62c.35-2.24.59-4.18,1-5.81.64-3.27,1.06-5.47,1.45-6.91l.73-3,.35-1.42c.3-1,.82-2.81,1.65-5.62.47-1.38,1-3,1.7-5,.31-1,.77-2,1.19-3.11s.87-2.31,1.45-3.55a103.88,103.88,0,0,1,10.17-18.4,79.68,79.68,0,0,1,9.12-10.94c.45-.46.91-.92,1.4-1.36l.54-.51.82-.73c.55-.48,1.18-.93,1.77-1.4s1.18-.94,1.83-1.41l2-1.4,2-1.42,1-.7.12-.09c.06,0,.09-.06,0-.09l-.2-.19-.4-.39L901,554l-34.24-33.13c-12.88-12.46-27.65-26.74-44.56-43.11h0l2.84-1.07,2.11-.81,2.18-.63c1.46-.41,2.92-.89,4.42-1.24l4.56-.91c.38-.07.77-.17,1.15-.22l1.17-.13,2.36-.27a75.43,75.43,0,0,1,19.56.53,90.52,90.52,0,0,1,20.18,5.86A93,93,0,0,0,863,473.06c-3.92-.56-5.12-.65-3.81-.51.65.1,1.93.19,3.8.51l3.22.63c.61.12,1.26.22,1.93.39l2.12.56a102.67,102.67,0,0,1,23.38,9.46,153.58,153.58,0,0,1,30.68,22.83c2.69,2.54,5.39,5.24,8.06,8.12q2,2.16,4,4.44c.66.76,1.31,1.53,2,2.31,1.38,1.68,2.68,3.32,4,5.09l2,2.64.12.16s.08.16.14.08l.34-.21.69-.43,1.38-.86,5.59-3.47,6-3.74c.93-.6,1.89-1.14,2.87-1.67l2.94-1.63,6-3.31a230.88,230.88,0,0,1,26.27-11.59l3.51-1.31c1.19-.42,2.4-.77,3.6-1.16,2.42-.75,4.84-1.58,7.31-2.28l7.54-2c1.26-.36,2.55-.59,3.84-.87l3.89-.82a189.63,189.63,0,0,1,67.2-1.38l-3.83-.57c-1.2-.19-2.35-.34-3.43-.44l-5.68-.62-6.73-.46,4.09.27a181.93,181.93,0,0,1,25.18,3.61A186.26,186.26,0,0,1,1144.91,509c2,.95,3.95,2,5.94,3l.74.41.2.11.39.23.77.45c1,.62,2.07,1.19,3.11,1.85l3.13,2,.79.5.39.25c.07.08.13.06.17,0l.13-.18,1.08-1.48,4.39-6,2.54-3.3c1.52-1.91,3.08-3.84,4.73-5.74a141.67,141.67,0,0,1,23.19-21.67,112.55,112.55,0,0,1,30.74-16.12,96.26,96.26,0,0,1,37-5,72.44,72.44,0,0,1,9.54,1.29c.78.16,1.55.34,2.32.53l.56.16h0s0,0,0,0l-.18.14-.73.55-.36.27-2,1.6-4.34,3.57a310.67,310.67,0,0,0-32.87,32.41c-5.19,5.93-10.28,12.07-15.19,18.47-2.44,3.21-4.87,6.45-7.23,9.81-1.14,1.56-2.26,3.27-3.36,4.91s-2.2,3.3-3.28,5l-.41.63-.2.31.33.18,1.3.73,2.61,1.47,5.24,2.93,1.39.79.62.37,1.25.76,2.49,1.5,4.86,3.23c3.16,2.27,6.29,4.62,9.24,7.2l2.22,1.93,2.14,2c1.45,1.33,2.78,2.79,4.16,4.19a107.34,107.34,0,0,1,7.61,9.11c-4.49-5.88-5.8-7.07-4.11-5.19a107.35,107.35,0,0,1,11,15.55,103.75,103.75,0,0,1,7.11,15c1.08,2.87,2.09,5.92,3,9.11.44,1.61.82,3.22,1.17,4.91l.26,1.29.45,2.73c.24,1.87.41,3.82.59,5.8l.13,1.47c-.07.36.29.19.48.2l.64,0,2.58-.2,5.21-.39,2.63-.2.33,0h4c.93,0,1.86,0,2.8,0l2.87.18c1.92.13,3.85.19,5.81.45a240.19,240.19,0,0,1,24.11,3.69c-4.36-.9-6.19-1.14-5.77-1.09l2.27.4,5.41,1.08c4.59.92,11.11,2.37,19.22,4.41,4.06,1,8.51,2.2,13.3,3.57,2.4.67,4.89,1.4,7.44,2.17l3.24,1,4,1.27.51.16.25.08a.83.83,0,0,0,.15-.17l.59-.69,1.19-1.41,2.41-2.83,1.22-1.44.28-.32.17-.19.36-.38c.47-.52,1-1,1.43-1.55.94-1.06,2-2.08,3-3.1l1.55-1.55,1.63-1.5c1.09-1,2.21-2,3.39-3a113.75,113.75,0,0,1,15.58-11.12c2.86-1.72,5.87-3.29,9-4.83s6.36-2.91,9.72-4.16,6.83-2.41,10.37-3.48,7.2-2,11-2.71a188,188,0,0,1,47.74-3.31,276.43,276.43,0,0,1,50.47,7.45q9.38,2.24,18.75,5.11,4.68,1.44,9.34,3l2.31.81,2.71,1c1.52.56,3.13,1.22,4.71,1.86l1.19.49a.31.31,0,0,0,.52-.11l.45-.45,1.8-1.8,5.06-5.08c1.18-1.17,2.33-2.38,3.57-3.5l3.67-3.43c1.22-1.14,2.44-2.3,3.72-3.39,5-4.46,10.25-8.8,15.67-12.94a285.67,285.67,0,0,1,73.3-40.5c6.69-2.58,13.56-4.81,20.48-7s14-4,21.13-5.63,14.37-3.08,21.65-4.38c3.65-.56,7.3-1.22,11-1.69l5.52-.76,5.56-.65a470.33,470.33,0,0,1,90.66-1,570.37,570.37,0,0,1,91.24,15.09c7.51,1.88,15,3.92,22.38,6.17,1.85.57,3.69,1.14,5.51,1.74l2.69.9,2.77,1,11,3.88c1.83.67,3.69,1.25,5.48,2l5.38,2.17c3.58,1.46,7.19,2.86,10.76,4.36l10.54,4.81c1.76.81,3.53,1.57,5.27,2.43l5.15,2.64a323,323,0,0,1,75.5,52.16l4.15,3.93c1.37,1.31,2.79,2.59,4.08,4l7.91,8.2c2.55,2.81,5,5.69,7.53,8.52l1.88,2.14c.61.72,1.19,1.47,1.79,2.2l3.55,4.42a340.3,340.3,0,0,1,25.65,37.1c15.25,25.79,27.08,53.13,36.63,80.69,4.79,13.79,9,27.66,12.87,41.47q2.93,10.37,5.62,20.69l5.16,19.88c.66,2.54,1.28,4.95,1.85,7.17s1.1,4.25,1.56,6c.23.88.44,1.7.64,2.45s.32,1.36.45,1.94c2,8.24,3,14.76,3.95,21.11.45,3.17.86,6.31,1.11,9.61A64.28,64.28,0,0,1,2247,913Z" style="fill:#202020"/><path d="M1003.48,504.62S1145.36,599.71,1069,656c-68.26,50.32-104.63,79.18-51,132,65.89,64.89,37.9,113-22,142,0,0-69.47,7.25-101.21-9.36,0,0-77.74-45.62-134.74-5.62,0,0-33-46,10-84l-33-25s-12-62,67-72l42,25,29-18s-53-111,29-176l-93-92s56-35,135,43C946,516,989,487.23,1003.48,504.62Z" style="fill:#e8f9f9"/><path d="M2254.5,853.5l-4,56s-76-25-128,7c0,0-72,40-128,5,0,0-82-45-146-5,0,0-77,42-151-3,0,0-55-31-125,4,0,0-65,39-130,0,0,0-62-20-76-18,0,0,12.43-32.34-3.5-61.5-7.47-13.67,25.2-48.8,9-62-11.83-9.63-22-33.25-46-38C1285.61,730,1877,935,2254.5,853.5Z" style="fill:#e8f9f9"/><path d="M1572.6,612.16S2060,444,2202,903l36,6,12.11-7s4.56-203.75-168.77-316.37h0s-263.13-187.3-508.74,26.54" style="fill:var(--theme-color-accent-primary);opacity:0.42"/><path d="M2621,336.5c0,77.28-69,141.52-146.3,141.52S2330,413.78,2330,336.5,2397.42,195,2474.7,195,2621,259.22,2621,336.5Z" style="fill:var(--theme-color-accent-primary)"/><path d="M768,823.84c.25.1.35.12.58.53a9,9,0,0,1,1.8,5.22,4.78,4.78,0,0,1-1.08,3.17,9,9,0,0,1-4.35,2.66,3.48,3.48,0,0,1-1.18.12A75.91,75.91,0,0,1,744,824.81a68.78,68.78,0,0,1-16.21-17.37,68,68,0,0,1-5.57-10.58l-.62-1.57a24,24,0,0,1-.92-2.53c.07-.9.15-1.79.25-2.69,0-.54.08-.67.12-.94l.09-.74c.28-1.95.63-3.86,1-5.75a98.86,98.86,0,0,1,7.36-21.94,81.34,81.34,0,0,1,12.9-19.54l1-1.11,1-1.06,2.1-2.1,2.21-2,1.12-1,1.17-.92,2.34-1.83,2.46-1.68c1.61-1.16,3.36-2.1,5.07-3.11a75.89,75.89,0,0,1,22.1-8l2.86-.54,1.44-.26,1.44-.18,2.88-.34,1.5-.18.58-.07.67,0,.91,0a81.28,81.28,0,0,1,11.67,1.5l1.33.27.8.19,1.6.37c1.06.28,2.12.54,3.17.86,2.11.6,4.2,1.34,6.27,2.12l.83.41c.53.27,1.32.62,2.28,1.16a55.82,55.82,0,0,1,7.42,4.75,45,45,0,0,1,8.29,8.13,36.57,36.57,0,0,1,5.67,10.22c.3.7.48,1.42.7,2.07s.42,1.28.54,1.9c.26,1.23.51,2.32.63,3.32a20.1,20.1,0,0,1,.1,4.64c-.24,2.23-.8,2.83-1.49,2.35-1.43-1-3.17-6.31-6.79-11.48.06.33-.8-1.16-2.53-3.25a37.8,37.8,0,0,0-7.54-6.82,47.44,47.44,0,0,0-9.36-4.81c-1.35-.54-2.53-.89-3.34-1.17l-1.3-.38c-1.69-.63-3.43-1.16-5.19-1.64-.88-.23-1.77-.46-2.66-.65l-.67-.16-1.08-.22c-.8-.17-1.61-.3-2.42-.45-1.62-.26-3.25-.49-4.87-.65-.81-.07-1.62-.14-2.4-.18l-.58,0h-.13l-1,.12-2.46.3c-.83.1-1.65.17-2.46.35-1.61.32-3.25.55-4.83,1a60.29,60.29,0,0,0-32.74,19.49c-8.43,9.83-14,22.4-16.59,35.4-.33,1.62-.6,3.25-.82,4.85l0,.44h0l.11.28.45,1.11a54.68,54.68,0,0,0,4.53,8.43,55.92,55.92,0,0,0,13.1,13.93A63.55,63.55,0,0,0,768,823.84Z" style="fill:#202020"/><path d="M1215.48,542.21c-.17.25-.23.33-.7.49a8.31,8.31,0,0,1-5.65.45c-2-.64-3.74-2.51-4.11-6.79a3.07,3.07,0,0,1,.14-1.1c3.93-5.82,8-11.46,12.26-17,6.77-8.86,13.91-17.46,21.48-25.71l4-4.26c1.35-1.42,2.67-2.86,4.1-4.21l2.47-2.11c1.56-1.31,3.71-3.17,6.36-5.13l4.15-3.12c1.42-1.1,3-2.08,4.58-3.13l4.69-3c1.61-.9,3.19-1.77,4.7-2.57,1.26-.71,2.41-1.34,3.47-1.9s2.09-.94,3-1.31a35.31,35.31,0,0,1,4.28-1.51c2.13-.57,2.91-.28,2.7.54s-1.36,2.23-3.13,3.93c-.88.86-1.92,1.78-3.06,2.76s-2.3,2.18-3.57,3.33c.33-.16-1.07,1.08-3.34,3l-3.78,3.57c-1.38,1.34-3,2.68-4.37,4.22-2.91,3-5.87,6-8,8.39l-3.54,3.93-6.66,7c-7.27,7.94-14.16,16.27-20.72,24.86C1223.23,531.15,1219.24,536.64,1215.48,542.21Z" style="fill:#202020"/><path d="M1377.5,624.5s175-37,232,56c0,0,35,25,22-13C1631.5,667.5,1541.5,517.5,1377.5,624.5Z" style="fill:var(--theme-color-accent-primary);opacity:0.42"/><path d="M1401.44,608.12c103.92-62,219.56,39.88,214.45,38.22,0,0-117.78-52.68-178.33-38C1425.86,611.17,1396.08,611.32,1401.44,608.12Z" style="fill:#fff;opacity:0.45"/><path d="M1275.27,626.76c-30.33-8.68,100.73-9.76,141.47,43.5C1449.12,712.6,1353,649,1275.27,626.76Z" style="fill:var(--theme-color-accent-primary);opacity:0.42"/><path d="M1278.8,631.35a1.85,1.85,0,0,1-1.55-.4c-2.74-1.39-6.31-3.9-8.08-7.63a9.82,9.82,0,0,1-1-3,9.13,9.13,0,0,1,.1-3.59c.56-2.58,2.13-5.53,5.23-8.71a6.94,6.94,0,0,1,1.94-1.29,186.52,186.52,0,0,1,44.17-.57,168.44,168.44,0,0,1,28.78,5.69c2,.62,4,1.14,6,1.84l5.9,2.09c3.87,1.57,7.76,3.09,11.51,5l1.6.89c.52.3,1.16.64,1.89,1.08l2.46,1.57c1.8,1.2,4,2.5,6.38,4.3s5,3.62,7.61,5.93c1.31,1.13,2.69,2.27,4,3.49l4,3.9,2,2c.65.7,1.29,1.43,1.93,2.15l3.86,4.37c1.24,1.5,2.39,3.08,3.57,4.61s2.37,3,3.36,4.66l3,4.71c.49.78,1,1.53,1.43,2.31s.84,1.57,1.26,2.34c.71,1.29,1.39,2.52,2,3.7s1.28,2.27,1.75,3.41q1.51,3.33,2.62,6c.37.91.72,1.76,1,2.57s.5,1.61.71,2.34c.42,1.46.74,2.73,1,3.82.9,4.35.22,5.88-1.39,5.38s-4.26-2.95-7.41-6.62c-1.62-1.82-3.53-3.82-5.45-6.09l-1.47-1.73-1.62-1.71c-1.08-1.16-2.19-2.36-3.3-3.59.14.33-.38-.2-1.41-1.34s-2.76-2.75-4.76-4.82c-1-1.06-2.15-2.11-3.39-3.23l-3.88-3.56-4.42-3.56c-.76-.59-1.47-1.25-2.29-1.8l-2.41-1.7c-3.14-2.36-6.57-4.34-9.69-6.28-3.28-1.73-6.25-3.45-9-4.62-1.35-.61-2.56-1.21-3.66-1.69l-2.9-1.15-2.52-1a129.31,129.31,0,0,0-16.88-6.15,144.49,144.49,0,0,0-24.54-4.79A161.7,161.7,0,0,0,1278.8,631.35Z" style="fill:#202020"/><path d="M1202,536l-.48.28-.19.09c-.06,0,.1,0,.17.06a6.11,6.11,0,0,1,1,.77c.62.55,1.21,1.1,1.78,1.63,1.14,1.07,2.2,2,3.28,2.91a24.4,24.4,0,0,0,7.55,4.11,76.09,76.09,0,0,1,9,3.77,73,73,0,0,1,12.23,7.7,74.86,74.86,0,0,1,9.6,9c1.16,1.3,2.08,2.41,2.71,3.2l1,1.23.93,1.27c.6.81,1.43,2,2.39,3.47a88.61,88.61,0,0,1,6.39,11.73,108.09,108.09,0,0,1,5.14,14c1.27,4.36,2.07,8,2.47,9.87a23,23,0,0,0,3.53,8.39A61.47,61.47,0,0,0,1277,627a34.64,34.64,0,0,0,4.73-9.11,20.06,20.06,0,0,0,.42-9.91c-.38-2.06-1.24-6.19-2.68-11.15a116.92,116.92,0,0,0-5.93-16.12,102.71,102.71,0,0,0-7.59-13.8c-1.16-1.75-2.16-3.17-2.88-4.13l-1.13-1.51-1.16-1.49c-.74-.95-1.84-2.29-3.24-3.88A88.73,88.73,0,0,0,1245.93,545a86.43,86.43,0,0,0-14.9-9.4,79,79,0,0,0-11-4.5,19.2,19.2,0,0,0-10.39-.57,21.21,21.21,0,0,0-4.76,1.77,21.94,21.94,0,0,0-2.4,1.43,7.29,7.29,0,0,0-1.21,1c-.06.1-.23.22-.14.38a2.45,2.45,0,0,0,.29.35Z" style="fill:#202020"/><path d="M895.79,554.27a2.3,2.3,0,0,1,1.67-.82c3.34-.87,8.17-1,11.68,1.32a10,10,0,0,1,2.27,2.27,13.58,13.58,0,0,1,1.64,3.18,23.75,23.75,0,0,1,1,9.55,6.45,6.45,0,0,1-.54,2A154.41,154.41,0,0,0,901,586.16,157.94,157.94,0,0,0,890.28,602c-.79,1.24-1.45,2.54-2.18,3.8s-1.44,2.54-2.08,3.85l-2,3.89-1.81,4c-.3.66-.62,1.32-.91,2l-.81,2c-.54,1.35-1.11,2.69-1.62,4l-1.44,4.09-.72,2-.61,2.08a123.23,123.23,0,0,0-4.44,20.48l-.3,1.5c-.18,1-.54,2.39-.81,4.18s-.58,4-.94,6.41-.49,5.22-.77,8.16l-.15,4.58-.09,2.39,0,1.22,0,1.22c0,1.65.07,3.33.11,5,0,.84,0,1.7.06,2.55L869,694l.39,5.18c.12,1.73.42,3.43.62,5.13s.41,3.41.62,5.07.58,3.28.86,4.86c.92,5.4,2.18,9.77,2.87,13.46.33,1.86.79,3.44,1.08,4.88s.53,2.68.67,3.76c.57,4.35,0,5.93-1.65,5.41s-4.08-3.21-7.15-7.37c-.37-.53-.79-1.06-1.16-1.64s-.72-1.19-1.11-1.81q-1.12-1.87-2.32-4c-.77-1.41-1.66-2.86-2.38-4.43s-1.47-3.21-2.22-4.89c.06.38-.31-.34-1-1.92-.32-.79-.81-1.77-1.2-3s-.89-2.6-1.41-4.13-1.09-3.22-1.66-5l-1.52-5.82c-.27-1-.53-2.06-.8-3.11s-.44-2.15-.66-3.24c-.42-2.2-.84-4.44-1.26-6.69s-.58-4.56-.85-6.82c-.13-1.13-.31-2.25-.38-3.36l-.19-3.31c-.1-2.18-.3-4.3-.3-6.31l0-5.68c0-.88,0-1.73,0-2.54l.14-2.28.24-3.72.17-2.41c0-.55.09-.84.09-.84l1-5.29c.17-.88.31-1.77.5-2.65l.61-2.61,1.25-5.22,1.51-5.14.72-2.47.84-2.42,1.69-4.84c.61-1.6,1.27-3.17,1.9-4.75l1-2.37c.33-.79.69-1.56,1-2.33l2.12-4.65L864,598.2c.75-1.53,1.58-3,2.41-4.48s1.62-3,2.52-4.41A181.86,181.86,0,0,1,881.28,571,179.18,179.18,0,0,1,895.79,554.27Z" style="fill:#202020"/><path d="M1599,591c.68.51,5.16-.63,12.67-3.34C1724,547,2131,428,2238,909l12.11-7s4.56-203.75-168.77-316.37h0s-263.13-187.3-508.74,26.54" style="fill:#fff;opacity:0.45"/><path d="M2262.32,908.05a2.12,2.12,0,0,1-.58,1.67c-1.72,2.83-4.82,6.25-8.84,7.28s-9-.32-14.43-6.64a6.51,6.51,0,0,1-1-1.89l-.07-5c0-1.67-.13-3.35-.19-5-.15-3.35-.25-6.71-.44-10l-.69-10-.18-2.51-.24-2.49-.49-5c-3.55-35.29-11.2-70.11-23.89-103-3.08-8.26-6.65-16.31-10.31-24.32-3.83-7.92-7.76-15.8-12.17-23.42a345.05,345.05,0,0,0-29.41-43.77,366.23,366.23,0,0,0-76.75-72.27A400.57,400.57,0,0,0,2037.36,574a374.84,374.84,0,0,0-48.42-21.22c-4.12-1.44-8.28-2.81-12.35-4-1-.3-2-.57-3-.82l-3.27-.82-6.53-1.64-13.06-3.28c-2.18-.59-4.37-1-6.55-1.45l-6.56-1.37-13.12-2.73-13.2-2.18-6.59-1.1-3.3-.55-3.32-.41-13.26-1.63c-2.21-.26-4.42-.59-6.63-.78l-6.65-.54-13.3-1.07c-4.44-.22-8.88-.34-13.32-.52l-6.66-.25c-2.22-.1-4.44,0-6.65,0l-13.31.08c-4.43.12-8.86.41-13.28.6l-6.64.33-6.61.61-6.62.61-3.3.31-1.65.15-1.65.22c-35.1,4.31-69.68,12.86-102.07,26.68l-9.3,4.16-2.67,1.2-2.62,1.29-5.25,2.59c-1.75.86-3.5,1.72-5.21,2.67l-5.58,2.5-2.89,1.28-3.3,1.59c-2.33,1.14-5,2.32-7.75,3.74s-5.73,2.88-8.75,4.48l-4.57,2.48c-1.55.83-3.12,1.66-4.65,2.56-3.09,1.76-6.23,3.49-9.22,5.31s-6,3.57-8.77,5.26c-9.31,6-15.29,10.17-19.11,12.24s-5.44,2.2-5.6.5,1.48-5.14,4.38-9.4a109.8,109.8,0,0,1,12.22-14.47c-.33.18.2-.42,1.39-1.61l2.26-2.2c.91-.85,2-1.8,3.16-2.86,4.66-4.3,11.45-9.76,18.47-15.13l5.34-3.87c1.78-1.27,3.51-2.56,5.26-3.7l5-3.36c1.6-1.06,3.1-2.09,4.54-3l6.93-4.28,2-1.21.7-.4,11.09-5.48,5.63-2.53,6.62-3,12.89-5.21a390.16,390.16,0,0,1,53.13-16c9-2.19,18.11-3.67,27.2-5.3,9.15-1.23,18.27-2.65,27.47-3.34,36.73-3.58,73.69-2.13,110,2.51l6.82.84c2.28.27,4.52.72,6.78,1.07l13.55,2.25,3.38.56c1.13.18,2.26.38,3.37.63l6.72,1.4,13.42,2.8,3.35.7,3.31.83,6.62,1.65,13.22,3.32,3.38.86c1.21.33,2.38.66,3.52,1,2.3.68,4.54,1.38,6.77,2.12,4.45,1.46,8.83,3,13.18,4.66a407.25,407.25,0,0,1,50.36,23.12,424,424,0,0,1,46.85,29.48,390.85,390.85,0,0,1,79.65,76.88l4.22,5.52,4.08,5.63c1.37,1.87,2.69,3.78,4,5.7s2.62,3.82,3.9,5.75c2.49,3.92,5.08,7.77,7.42,11.77,1.19,2,2.41,4,3.58,6l3.42,6.06,1.7,3,1.62,3.07,3.24,6.16,3.06,6.24c1,2.08,2.06,4.15,3,6.27l2.87,6.33c1,2.1,1.81,4.26,2.73,6.39s1.81,4.26,2.65,6.42l2.49,6.48,1.24,3.24,1.15,3.28,2.29,6.55c1.49,4.38,2.82,8.81,4.23,13.22,1.23,4.45,2.57,8.88,3.72,13.35l1.69,6.72.84,3.36.75,3.38a450.67,450.67,0,0,1,8.83,54.55l.52,5.27.25,2.63.19,2.64.74,10.55c.19,3.52.3,7,.46,10.56.06,1.76.16,3.52.2,5.28Z" style="fill:#202020"/><path d="M1372.62,633.05a192.17,192.17,0,0,1,19.16-9.47c6.12-2.68,12-5.07,18-7.43s12.12-4.66,18.74-7,13.71-4.65,21.75-6.84c2.74-.69,6.32-1.67,11.6-2.63a134.37,134.37,0,0,1,21.71-2.27c2.36-.05,6.33,0,9.7.1,1.69,0,3.23.2,4.35.25l1.81.12,5.28.67,4.7.75,4.38.84a151.29,151.29,0,0,1,16.64,4.52c2.44.88,4.77,1.64,6.91,2.54l3.14,1.25,2.9,1.27a167.84,167.84,0,0,1,16.44,8.36c7.31,4.23,13.76,8.22,19.74,12.07l17,11c11,7.14,21.7,13.93,34.39,22.8-7-13.77-14-25-23-35.64a136.76,136.76,0,0,0-15.43-15.54,143,143,0,0,0-21-14.94c-1-.59-2.14-1.28-3.41-2l-4.22-2.27c-1.52-.85-3.23-1.66-5.06-2.57l-2.85-1.39-3.12-1.39-3.33-1.48-3.61-1.45c-2.47-1-5.17-1.93-8-3a173.44,173.44,0,0,0-19.42-5.3l-5.14-1-5.53-.82c-1.74-.23-3.31-.36-4.43-.49l-1.8-.18-2.13-.19c-1.32-.1-3.12-.32-5.11-.38-4-.23-8.66-.27-11.43-.14a155.94,155.94,0,0,0-25.46,2.72c-6.15,1.15-10.3,2.3-13.45,3.14a126.47,126.47,0,0,0-24.27,9.53,118.22,118.22,0,0,0-18.66,12,128.37,128.37,0,0,0-28.56,31.75Z" style="fill:#202020"/><path d="M840,777c3.58-2.08,6.52-3.4,9-5.07a29.25,29.25,0,0,0,7-6.28,72.12,72.12,0,0,1,7.23-7.57,61.53,61.53,0,0,1,12.58-8.79,65.15,65.15,0,0,1,13-5l4.35-1c.52-.12,1-.15,1.23-.2l.43-.06,1.66-.23,1.93-.26,2.55-.16a84.27,84.27,0,0,1,14.36.33l4.1.58c.69.1,1.37.18,2.05.3l2,.42,4,.81c1.29.28,2.53.66,3.73,1l3.4.9c1.07.29,2,.66,3,.94l4.23,1.36a31.14,31.14,0,0,0,5,1.31,25,25,0,0,0,4.72.25A53.63,53.63,0,0,0,962,749a43.27,43.27,0,0,0-6-9,22.58,22.58,0,0,0-3.9-3.17A25.34,25.34,0,0,0,947,734.3l-4.68-1.59c-1-.32-2.08-.73-3.28-1.06l-3.83-1c-1.34-.35-2.73-.77-4.2-1.09l-4.53-.93-2.33-.48c-.78-.13-1.58-.23-2.38-.34l-4.77-.66a98.55,98.55,0,0,0-17.11-.32l-3.11.22-2.36.33-2,.29-.53.08c-.35.06-.86.09-1.51.23l-5.42,1.17a80.52,80.52,0,0,0-16.38,6.27,76.34,76.34,0,0,0-15.83,11,77.59,77.59,0,0,0-8.85,9.44A21.64,21.64,0,0,0,839.26,766,27.77,27.77,0,0,0,840,777Z" style="fill:#202020"/><path d="M1177,730s111,15,150,12l-50,26-9,8S1235,735,1177,730Z" style="fill:#e8f9f9"/><path d="M1174,736a60.65,60.65,0,0,0,7.76,5,17.47,17.47,0,0,0,7.89,1.8c1.67,0,5,0,9.06.3a121.16,121.16,0,0,1,13.23,1.56,90.74,90.74,0,0,1,11.59,2.76c1.51.43,2.71.88,3.54,1.18l1.32.47s.47.16,1.28.52,2,.81,3.38,1.47a68.66,68.66,0,0,1,9.88,5.76,56.78,56.78,0,0,1,9.11,8.33,69.83,69.83,0,0,1,4.92,6.67,14.43,14.43,0,0,0,2.38,3.11,16.89,16.89,0,0,0,2.79,2.45c.53.37,1.09.72,1.69,1.08s1.16.74,1.8,1.11c1.28.76,2.73,1.54,4.38,2.45a43.28,43.28,0,0,0,1.82-4.76c.23-.76.43-1.52.58-2.27a20.23,20.23,0,0,0,.22-2.2,16,16,0,0,0-.4-4.44,23.15,23.15,0,0,0-1.92-4.63,64.94,64.94,0,0,0-18.21-19.65,82.7,82.7,0,0,0-12.43-7.18c-1.71-.8-3.15-1.35-4.13-1.78s-1.56-.61-1.56-.61l-1.57-.58c-1-.36-2.44-.91-4.22-1.43a104,104,0,0,0-13.49-3.29,129.59,129.59,0,0,0-15-1.78c-4.54-.29-8.27-.25-10.13-.22C1182.7,727.4,1178.79,730.36,1174,736Z" style="fill:#202020"/><path d="M1327,826c-6-11-20-31-39-36-6.19-1.63,2-5.55,18-17,21-15,51,8,35,35C1330.5,825.71,1330.21,831.89,1327,826Z"/><path d="M821.25,776.31c-10.86,6.24-30.54,20.69-35.11,39.8-1.49,6.23-5.59-1.84-17.4-17.61-15.47-20.65,6.84-51.17,34.2-35.78C820.89,772.81,827.07,773,821.25,776.31Z"/><path d="M890.58,781.5s61.63-18,77.91,11,19.77,63,5.81,62-4.65,29-30.23,30-15.12,52-75.58,4c0,0-38.38-20-55.82-17,0,0-34.88-32,0-52C812.67,819.5,837.09,785.5,890.58,781.5Z" style="fill:#d8eae8"/><path d="M906,854a16.8,16.8,0,0,1-3.59,3.57c-1.08.84-2,1.56-3.06,2.49a8.46,8.46,0,0,1-3.71,1.85,8.13,8.13,0,0,1-9.36-5.48,9.42,9.42,0,0,1-.34-1.76l0-.67,0-.67a9.42,9.42,0,0,1,.34-1.76,8.13,8.13,0,0,1,9.36-5.48,8.46,8.46,0,0,1,3.71,1.85c1.08.93,2,1.65,3.06,2.49A16.8,16.8,0,0,1,906,854a8.91,8.91,0,0,0,1.68-5.81,9.21,9.21,0,0,0-3.16-6.1,11,11,0,0,0-1.09-.89,14,14,0,0,0-1.58-1,15.69,15.69,0,0,0-10.54-1.85,15.93,15.93,0,0,0-10.21,6.38,15.59,15.59,0,0,0-2.94,8L878.1,854l.06,1.31a15.59,15.59,0,0,0,2.94,8,15.73,15.73,0,0,0,4.35,4.11,15.91,15.91,0,0,0,5.86,2.27,15.69,15.69,0,0,0,10.54-1.85,14,14,0,0,0,1.58-1,11,11,0,0,0,1.09-.89,9.21,9.21,0,0,0,3.16-6.1A8.91,8.91,0,0,0,906,854Z" style="fill:#202020"/><path d="M867.62,836a12.9,12.9,0,0,1-3.77.47c-1,0-1.89,0-3,.07a6.09,6.09,0,0,1-6.09-8.15,6.3,6.3,0,0,1,.6-1.2l.28-.42.34-.38a6.11,6.11,0,0,1,1-.88,6.1,6.1,0,0,1,8.06,1,6.4,6.4,0,0,1,1.36,2.8c.21,1,.41,1.89.67,2.88a12.58,12.58,0,0,1,.49,3.77,6.69,6.69,0,0,0,3.66-2.68,6.9,6.9,0,0,0,.92-5.07,11.77,11.77,0,0,0-2.63-5.54A12.16,12.16,0,0,0,866.1,820a11.91,11.91,0,0,0-4.51-1.35,12.13,12.13,0,0,0-7.9,2.09,13.74,13.74,0,0,0-2,1.75l-.63.75-.57.81a13.29,13.29,0,0,0-1.2,2.36,12.09,12.09,0,0,0,0,8.17,11.85,11.85,0,0,0,12,7.85,6.89,6.89,0,0,0,4.67-2.16A6.72,6.72,0,0,0,867.62,836Z" style="fill:#202020"/><path d="M889.44,826a11.32,11.32,0,0,1-.43-3.46c0-.94,0-1.74-.07-2.72a5.76,5.76,0,0,1,.56-2.8,5.59,5.59,0,0,1,6.93-2.79,6.53,6.53,0,0,1,1.1.55l.38.26.36.31a6.51,6.51,0,0,1,.81.93,5.63,5.63,0,0,1-1,7.41,5.79,5.79,0,0,1-2.57,1.24c-1,.2-1.74.39-2.65.62a11.7,11.7,0,0,1-3.46.45,6.18,6.18,0,0,0,2.46,3.37,6.35,6.35,0,0,0,4.66.84,10.91,10.91,0,0,0,5.09-2.42,11.24,11.24,0,0,0,2.54-3.18,11,11,0,0,0,1.23-4.15,11.11,11.11,0,0,0-1.92-7.26,11.79,11.79,0,0,0-1.61-1.82l-.69-.59-.74-.52a11.75,11.75,0,0,0-2.16-1.1,11.16,11.16,0,0,0-7.51,0,10.89,10.89,0,0,0-7.22,11,6.41,6.41,0,0,0,2,4.29A6.15,6.15,0,0,0,889.44,826Z" style="fill:#202020"/><path d="M1276.09,810.92s54.29,36.36,36.15,70.31-48.77,61.25-56.18,49.36-30.69,17.18-47-2.58-59.11,25.39-49.2-57.63c0,0-3.77-45.14-17.12-57,0,0,9.86-51,50-37.49C1192.78,775.94,1240.15,771,1276.09,810.92Z" style="fill:#d8eae8"/><path d="M1268.5,843.5a16.8,16.8,0,0,1-3.59,3.57c-1.08.84-2,1.56-3.06,2.49a8.46,8.46,0,0,1-3.71,1.85,8.13,8.13,0,0,1-9.36-5.48,9.42,9.42,0,0,1-.34-1.76l0-.67,0-.67a9.42,9.42,0,0,1,.34-1.76,8.13,8.13,0,0,1,9.36-5.48,8.46,8.46,0,0,1,3.71,1.85c1.08.93,2,1.65,3.06,2.49a16.8,16.8,0,0,1,3.59,3.57,8.91,8.91,0,0,0,1.68-5.81,9.21,9.21,0,0,0-3.16-6.1,11,11,0,0,0-1.09-.89,14,14,0,0,0-1.58-1,15.69,15.69,0,0,0-10.54-1.85,15.93,15.93,0,0,0-10.21,6.38,15.59,15.59,0,0,0-2.94,8l-.06,1.31.06,1.31a15.59,15.59,0,0,0,2.94,8,15.73,15.73,0,0,0,4.35,4.11,15.91,15.91,0,0,0,5.86,2.27,15.69,15.69,0,0,0,10.54-1.85,14,14,0,0,0,1.58-1,11,11,0,0,0,1.09-.89,9.21,9.21,0,0,0,3.16-6.1A8.91,8.91,0,0,0,1268.5,843.5Z" style="fill:#202020"/><path d="M1202.62,860a12.9,12.9,0,0,1-3.77.47c-1,0-1.89,0-2.95.07a6.09,6.09,0,0,1-6.09-8.15,6.3,6.3,0,0,1,.6-1.2l.28-.42.34-.38a6.11,6.11,0,0,1,1-.88,6.1,6.1,0,0,1,8.06,1,6.4,6.4,0,0,1,1.36,2.8c.21,1,.41,1.89.67,2.88a12.58,12.58,0,0,1,.49,3.77,6.69,6.69,0,0,0,3.66-2.68,6.9,6.9,0,0,0,.92-5.07,11.77,11.77,0,0,0-2.63-5.54,12.16,12.16,0,0,0-3.47-2.76,11.91,11.91,0,0,0-4.51-1.35,12.13,12.13,0,0,0-7.9,2.09,13.74,13.74,0,0,0-2,1.75l-.63.75-.57.81a13.29,13.29,0,0,0-1.2,2.36,12.09,12.09,0,0,0,0,8.17,11.85,11.85,0,0,0,12,7.85,6.89,6.89,0,0,0,4.67-2.16A6.72,6.72,0,0,0,1202.62,860Z" style="fill:#202020"/><path d="M1234.39,862.71a12.69,12.69,0,0,1-.34,3.78c-.21,1-.38,1.85-.55,2.91a6.39,6.39,0,0,1-1.24,2.85,6.1,6.1,0,0,1-8,1.37,7.25,7.25,0,0,1-1-.84l-.35-.37-.3-.41a6.8,6.8,0,0,1-.65-1.17,6.09,6.09,0,0,1,2.73-7.66,6.27,6.27,0,0,1,3-.73c1.07,0,1.93,0,3-.05a12.84,12.84,0,0,1,3.78.32,6.64,6.64,0,0,0-1.84-4.15,6.91,6.91,0,0,0-4.75-2,11.91,11.91,0,0,0-6,1.4,12.12,12.12,0,0,0-3.43,2.8,11.87,11.87,0,0,0-2.28,4.13,11.84,11.84,0,0,0,1.66,10.47l.6.78.67.73a12.4,12.4,0,0,0,2,1.66,12,12,0,0,0,8,1.77,11.89,11.89,0,0,0,4.45-1.52,12.27,12.27,0,0,0,3.36-2.91,11.9,11.9,0,0,0,2.41-5.64,6.91,6.91,0,0,0-1.13-5A6.66,6.66,0,0,0,1234.39,862.71Z" style="fill:#202020"/><path d="M1216.28,842.65a16,16,0,0,1-2.65-4c-.58-1.16-1.08-2.13-1.75-3.3a8,8,0,0,1-1-3.8,7.69,7.69,0,0,1,6.82-7.68,8.39,8.39,0,0,1,1.69,0l.64.08.62.16a8.46,8.46,0,0,1,1.56.65,7.68,7.68,0,0,1,1,12.81c-1.06.83-1.9,1.54-2.87,2.39a16.21,16.21,0,0,1-4,2.67,8.48,8.48,0,0,0,5.1,2.64,8.75,8.75,0,0,0,6.24-1.81,15,15,0,0,0,2.3-2.13,15.82,15.82,0,0,0,2.48-4,15.57,15.57,0,0,0,1.18-5.48,15.14,15.14,0,0,0-4-10.66,15.79,15.79,0,0,0-3.8-3,16.83,16.83,0,0,0-3.09-1.26l-1.21-.3-1.23-.18a16.25,16.25,0,0,0-3.34,0,15.37,15.37,0,0,0-4.64,1.29,14.83,14.83,0,0,0-4.63,3.28,15,15,0,0,0-3.18,5,14.83,14.83,0,0,0-.23,10.13,14,14,0,0,0,1.3,2.85,8.76,8.76,0,0,0,5.08,4.06A8.45,8.45,0,0,0,1216.28,842.65Z" style="fill:#202020"/><path d="M981.53,669.17s-17.8,37.78-47,8.89c0,0-14.89-26.82,2.12-39.77,0,0,19.38-21.57,37.53.11C974.22,638.4,988.51,653.93,981.53,669.17Z"/><path d="M974.12,669.65c.14-.22.2-.3.63-.44a9.39,9.39,0,0,1,5.47-.66c2,.38,4.13,2,4.57,6.55a3.36,3.36,0,0,1-.15,1.19,51.76,51.76,0,0,1-7.28,9.16,42.66,42.66,0,0,1-4.64,4,32.77,32.77,0,0,1-5.5,3.22,26.24,26.24,0,0,1-16.7,1.92,37,37,0,0,1-14.21-6.79c-1-.76-1.93-1.55-2.89-2.33-.48-.4-.9-.82-1.35-1.23l-1.57-1.47-.57-.55a1.79,1.79,0,0,1-.51-.62c-.26-.49-.52-1-.77-1.45l-.49-1-.39-.84c-.51-1.1-1-2.22-1.43-3.34a57.94,57.94,0,0,1-3.71-14.26,33.36,33.36,0,0,1,1.68-15.9,25.55,25.55,0,0,1,4.4-7.41,16.86,16.86,0,0,1,1.46-1.58,17.62,17.62,0,0,1,1.56-1.44l.73-.61-.06.06h0l.13-.14c.5-.51,1-.95,1.44-1.4a42.46,42.46,0,0,1,6.14-4.67,35.13,35.13,0,0,1,7.16-3.46,26.2,26.2,0,0,1,15.59-.72l.9.26c.66.17,1.26.44,1.89.67a16.23,16.23,0,0,1,1.81.79l.94.53c.59.36,1.42.92,2.42,1.64l1.56,1.27c.55.45,1.07,1,1.66,1.55s1.12,1.18,1.7,1.82a24,24,0,0,1,1.63,2l.76,1c.35.44.61.82.89,1.23.55.8,1.07,1.61,1.56,2.46a44.38,44.38,0,0,1,2.68,5.34A34,34,0,0,1,986,655.49a22,22,0,0,1-.74,7.75,14.37,14.37,0,0,1-2,4.34c-1.38,1.85-2.22,2-2.51,1.23s-.14-2.46-.23-4.68a27.29,27.29,0,0,0-1.33-7.82c0,.33-.42-1.26-1.53-3.7a38.16,38.16,0,0,0-5.51-8.56c-.59-.7-1.26-1.44-1.82-2l-1.06-1c-.33-.31-.67-.69-1-.93a23.46,23.46,0,0,0-1.88-1.51l-.88-.63-.84-.5A14.91,14.91,0,0,0,962,636.2a4.18,4.18,0,0,0-.74-.26l-.26-.07a11.52,11.52,0,0,0-3.23-.81,12.16,12.16,0,0,0-3.35.05,20.8,20.8,0,0,0-8.5,3.48,30.83,30.83,0,0,0-3.89,3.11l-1,1-.56.51-.42.36-.42.35a7.42,7.42,0,0,0-.76.72,5.69,5.69,0,0,0-.71.77,14.26,14.26,0,0,0-3.24,7.7,28.54,28.54,0,0,0,.64,9.84A51.2,51.2,0,0,0,939,673.08l.57,1.18h0l1.56,1.45a44.66,44.66,0,0,0,4.12,3.19,21,21,0,0,0,8.54,3.62,13.84,13.84,0,0,0,8.22-1.18C966.64,679.26,970.91,674.73,974.12,669.65Z" style="fill:#202020"/><path d="M1148.39,680.88s37.36,19.16,42.86-21.74c0,0-4.6-30.5-26.09-30.37,0,0-28.67-5.29-29.82,23.12C1135.34,651.89,1133.48,673,1148.39,680.88Z"/><path d="M1150.28,688.46a1.26,1.26,0,0,1-.74-.61,7.37,7.37,0,0,1-1.81-5.67c.47-2.07,2.2-3.86,5.87-5.3a3.09,3.09,0,0,1,1-.17c5.67,2.08,11.85,3.07,16.79,1.9a13.87,13.87,0,0,0,7.82-4.67,25,25,0,0,0,4.6-9.33l.67-2.81c.11-.46.17-1,.26-1.45l.19-1.13c0-.05,0,0,0,0l-.26-1.26c-.22-.95-.47-1.91-.74-2.86a45.43,45.43,0,0,0-4.49-10.67,21.26,21.26,0,0,0-6.89-7.41,13,13,0,0,0-4.18-1.67,6.06,6.06,0,0,0-1.13-.19,7.36,7.36,0,0,0-1.16-.11l-.7,0-.9-.07-.63-.07c-.39-.06-.84-.11-1.28-.14a26.84,26.84,0,0,0-10.56,1.07,13.88,13.88,0,0,0-6.94,4.75l-.29.39a10.44,10.44,0,0,0-.58.89,6.17,6.17,0,0,0-.51,1l-.33.51c-.19.35-.46.88-.79,1.55l-.49,1.18c-.18.43-.31.94-.49,1.45s-.3,1.11-.46,1.71a18.63,18.63,0,0,0-.39,2l-.2,1.17c0,.26-.11.64-.15,1-.1.72-.17,1.5-.22,2.28a43.93,43.93,0,0,0-.06,4.88,35,35,0,0,0,1.67,9.44,29.9,29.9,0,0,0,5.4,9c1.35,1.63,1.64,2.44.81,2.7s-2.79-.1-5.22-1.54a22.14,22.14,0,0,1-7.35-7.43c.15.4-1.12-1.44-2.42-4.68a44.75,44.75,0,0,1-2.89-12.63,36.72,36.72,0,0,1-.15-3.71l0-1.68c0-.58,0-1.11,0-1.71a33.91,33.91,0,0,1,.39-3.43l.27-1.6.37-1.52a27.61,27.61,0,0,1,1.64-4.68,14,14,0,0,1,.62-1.3l.25-.45a25.22,25.22,0,0,1,9.29-9,33.09,33.09,0,0,1,14.26-4,42.36,42.36,0,0,1,7.12.12l.92.1.68.1h.19l1,0a18.56,18.56,0,0,1,2,.19,16.39,16.39,0,0,1,2,.34,24.68,24.68,0,0,1,7.44,2.83,29.24,29.24,0,0,1,6.12,4.7,41.49,41.49,0,0,1,8,11.76,63.65,63.65,0,0,1,4.34,12.74c.13.55.24,1.09.36,1.68s.18,1,.26,1.51l.12.74-.1.75-.64,3.87a55.09,55.09,0,0,1-1.74,6.67,33.58,33.58,0,0,1-7.37,12.76,26.54,26.54,0,0,1-13.52,7.67,31.93,31.93,0,0,1-6.37.81,42.81,42.81,0,0,1-6.13-.31A52.73,52.73,0,0,1,1150.28,688.46Z" style="fill:#202020"/><path d="M1159.28,662.7s9.39,4.82,10.77-5.46c0,0-1.15-7.67-6.56-7.63,0,0-7.2-1.33-7.49,5.81C1156,655.42,1155.53,660.73,1159.28,662.7Z" style="fill:#fff"/><path d="M952.28,668.7s9.39,4.82,10.77-5.46c0,0-1.15-7.67-6.56-7.63,0,0-7.2-1.33-7.49,5.81C949,661.42,948.53,666.73,952.28,668.7Z" style="fill:#fff"/><path d="M1350.91,839.1c-.09-.08-.12-.11,0-.56a26.82,26.82,0,0,1,2.84-6.24,18.27,18.27,0,0,1,7.8-7.6,2.37,2.37,0,0,1,.91-.25,70.23,70.23,0,0,1,7.82,7.27,65.49,65.49,0,0,1,12.48,19.08,53.78,53.78,0,0,1,3.46,12.09c.14,1,.33,2,.4,3s.14,1.93.21,2.85,0,1.83,0,2.71,0,1.71-.07,2.51a57.7,57.7,0,0,1-1,7.68l-.66,2.83-.2.45a10.87,10.87,0,0,1-.62,1.21,43.84,43.84,0,0,1-2.34,4,38.09,38.09,0,0,1-3.64,4.65c-.69.75-1.38,1.5-2.11,2.18s-1.5,1.29-2.23,1.86c-.58.5-1.12,1-1.64,1.33s-1,.68-1.51.94a9.71,9.71,0,0,1-2.45,1,2.58,2.58,0,0,1-2.88-.79,5.51,5.51,0,0,1-.84-3.28,16.84,16.84,0,0,1,.16-2.18c.11-.76.18-1.58.34-2.38-.17.09,0-.79.38-2.12.18-.67.32-1.47.51-2.32a26.61,26.61,0,0,0,.54-2.66c.13-.89.27-1.79.41-2.64s.13-1.61.18-2.28a10.78,10.78,0,0,0,.07-1.6v-.6l.12-.49c.06-.31.22-.78.3-1.37s.21-1.32.34-2.15.14-1.77.24-2.79a35.18,35.18,0,0,0-.48-6.92,35.94,35.94,0,0,0-2.33-7.75,47.05,47.05,0,0,0-8.9-13.34,54.94,54.94,0,0,0-4-3.86C1351.58,839.62,1351,839.15,1350.91,839.1Z" style="fill:#202020"/><path d="M784,826a23.1,23.1,0,0,0-8.74-1.11,15.12,15.12,0,0,0-7.85,3.13,70.72,70.72,0,0,0-7.41,6.36,69.12,69.12,0,0,0-9.34,11.31,63.46,63.46,0,0,0-6.15,12c-.58,1.7-1.12,3.08-1.38,4.08l-.42,1.55-.42,1.55c-.29,1-.51,2.46-.87,4.22A28.1,28.1,0,0,0,741,872c-.11,1-.27,2.12-.34,3.26a67.39,67.39,0,0,0,0,7.27,74.36,74.36,0,0,0,.7,7.5c.17,1.23.45,2.41.66,3.57s.41,2.29.72,3.33c.58,2.09,1,4,1.57,5.58s1,2.79,1.28,3.62a14.8,14.8,0,0,0,2.07,3.92,15.8,15.8,0,0,0,2.68,2.9A30.5,30.5,0,0,0,758,917a44.21,44.21,0,0,0,1.69-8.3,14.45,14.45,0,0,0,0-3.6,25.54,25.54,0,0,0-.9-3.74c-1-2.83-3.83-11.51-4-19.49a56.89,56.89,0,0,1,0-5.7c0-.88.18-1.72.26-2.52a19.26,19.26,0,0,1,.3-2.22c.28-1.35.42-2.48.64-3.23l.32-1.19.33-1.19c.19-.76.63-1.81,1.07-3.11a50.19,50.19,0,0,1,4.79-9.24,56.93,56.93,0,0,1,7.46-9,74.1,74.1,0,0,1,6-5.29,17.68,17.68,0,0,0,4.71-5.5C781.82,831.58,782.67,829.09,784,826Z" style="fill:#202020"/><path d="M1340,842a26.91,26.91,0,0,0,7.57-.93l1.82-.5,1.75-.63a31.12,31.12,0,0,0,3.4-1.47,43.33,43.33,0,0,0,11.81-8.74c.83-.92,1.62-1.88,2.44-2.86l1.21-1.49,1.08-1.59c.71-1.07,1.43-2.17,2.15-3.31s1.23-2.35,1.85-3.58c.3-.62.61-1.24.92-1.87s.53-1.29.8-1.94c.51-1.32,1-2.68,1.52-4.07.13-.35.25-.7.38-1.06s.19-.69.29-1c.19-.7.38-1.42.57-2.14.38-1.46.76-3,1.15-4.5a39.55,39.55,0,0,0,.74-4.35,49,49,0,0,0,.38-5.82,51.44,51.44,0,0,0-.51-7.94,50,50,0,0,0-2.61-10.38c-.34-.86-.71-1.88-1.2-3s-1-2.26-1.72-3.42a40.54,40.54,0,0,0-2.17-3.51l-1.18-1.7c-.41-.55-.85-1.06-1.26-1.58l-1.22-1.49-1.24-1.31c-.8-.81-1.49-1.6-2.15-2.14l-2.1-1.86-.47-.42-1.36-1-2-1.57-2.63-1.72a32.43,32.43,0,0,0-3-1.77c-1-.55-2.09-1.21-3.17-1.67l-3.13-1.44c-1-.48-2-.78-2.85-1.13a104,104,0,0,0-23.5-5.75c-1.54-.19-3-.43-4.32-.54l-3.72-.32-1.89-.16c-.47,0-.92-.09-1.4-.11l-.71,0-.67.16-1.29.32-1.12.32-1.29.4a60.81,60.81,0,0,0-16.2,8,49.36,49.36,0,0,0-11.26,10.78A41.59,41.59,0,0,0,1270,782a49.86,49.86,0,0,1,16.61-19.81,78.94,78.94,0,0,1,10.66-6.47,85.89,85.89,0,0,1,13.35-5.5l1-.29.09,0h.08l1.23.12,3.36.3c1.21.1,2.47.32,3.84.49a90,90,0,0,1,20,4.89c1.45.5,3.06,1.27,4.75,2,.86.35,1.62.85,2.43,1.27a20.22,20.22,0,0,1,2.27,1.31l2,1.25,1.47,1.12,1,.74.33.29,1.45,1.32c.48.39.92.94,1.47,1.5l.84.9.82,1c.27.35.57.69.84,1.06l.78,1.15A25,25,0,0,1,1362,773c.47.76.77,1.57,1.15,2.27s.57,1.41.82,2a34.56,34.56,0,0,1,1.79,7.11,37.89,37.89,0,0,1,.13,9.71,26.35,26.35,0,0,1-.43,2.74c-.31,1.37-.62,2.7-.92,4-.14.66-.29,1.31-.43,1.95-.06.32-.13.64-.2,1s-.17.6-.25.89c-.34,1.17-.66,2.33-1,3.46-.16.56-.26,1.15-.46,1.67l-.55,1.59c-.34,1.07-.68,2.11-1,3.13s-.8,2-1.17,2.93c-.19.49-.37,1-.55,1.46l-.65,1.37-1.26,2.77a57.66,57.66,0,0,1-6.55,10.21,31.8,31.8,0,0,1-2.13,2.4l-1.16,1.19-1.27,1.12A27.37,27.37,0,0,1,1340,842Z" style="fill:#202020"/><path d="M934,530c7.14-.32,12.88-.33,18.44-1.19a63.08,63.08,0,0,0,17.26-5.35c3.46-1.57,10.39-4.71,19.06-8a247.63,247.63,0,0,1,29.18-9,210.61,210.61,0,0,1,27.09-4.65c1.81-.2,3.45-.33,4.91-.44s2.71-.21,3.75-.25c2.07-.12,3.23-.17,3.23-.17l3.24-.08c1,0,2.29,0,3.75,0s3.09,0,4.9.08a166.94,166.94,0,0,1,26.92,3c5,1,10,2.28,14.87,3.7s9.45,3.14,13.64,4.8a164.62,164.62,0,0,1,18.14,8.65,70,70,0,0,0,16.43,6.69A180,180,0,0,0,1177,531c-2.34-6.74-4.77-12.34-8.31-17.18a45.63,45.63,0,0,0-14.87-13.05,167.1,167.1,0,0,0-20.74-10.09c-4.81-1.92-10.12-3.86-15.69-5.52s-11.38-3.13-17.12-4.23a186.9,186.9,0,0,0-30.77-3.37c-2-.06-3.92-.1-5.56-.08s-3.07,0-4.24,0l-3.65.11s-1.32.05-3.65.17c-1.17.05-2.59.13-4.22.27s-3.49.26-5.51.47a230.55,230.55,0,0,0-30.17,5.08,263.29,263.29,0,0,0-32,9.82c-9.46,3.57-17,7-20.71,8.84a48.37,48.37,0,0,0-15.68,11.53A64.37,64.37,0,0,0,934,530Z" style="fill:#202020"/><path d="M820.87,473.79l75.34,80.6s40.3,10.51,31.54-7C918.58,529,820.87,473.79,820.87,473.79Z" style="fill:#d8eae8"/><path d="M803.5,472.5c1.88,8.4,3.64,13.59,9.83,19.28,3.35,3.08,13.55,12.18,22.95,20.48l18,15.79s8.54,7.56,18,15.79,19.91,17.14,23.51,20a31.89,31.89,0,0,0,4.78,3.25,25.54,25.54,0,0,0,4.81,1.95,43.53,43.53,0,0,0,11.12,1.45,61.79,61.79,0,0,0-3.94-10.36,25.18,25.18,0,0,0-2.79-4.21,30.94,30.94,0,0,0-4-4.06C902.35,549,892,540.14,882.56,532l-18-15.65-40.84-36.19C817.39,474.64,812.05,473.48,803.5,472.5Z" style="fill:#202020"/><path d="M802,474c4.58.64,8.19,1.39,11.75,1.58a40.84,40.84,0,0,0,11.35-1,128.61,128.61,0,0,1,12.78-2.14,109.58,109.58,0,0,1,19.08-.53,106.35,106.35,0,0,1,17,2.5l5.25,1.44c1.23.39,1.92.64,1.92.64l1.92.67c.61.22,1.37.45,2.22.79l2.84,1.2c1,.47,2.21.86,3.36,1.5l3.73,1.87,1,.5,1,.58,2,1.17a47.51,47.51,0,0,1,4.05,2.53l4,2.77,3.84,3c.63.5,1.27,1,1.88,1.5l1.74,1.59q1.74,1.56,3.35,3l5.42,5.56c1.47,1.66,2.62,3.05,3.41,3.94s1.45,1.6,2.17,2.3,1.36,1.43,2.05,2.06a30.2,30.2,0,0,0,4.34,3.31A75.6,75.6,0,0,0,946,522a48.23,48.23,0,0,0-1.24-12.21,31.53,31.53,0,0,0-2.19-5.47,28.82,28.82,0,0,0-1.6-2.8c-.64-.91-1.36-1.84-2.15-2.79s-2.12-2.6-3.77-4.48-3.79-4-6.11-6.32l-3.82-3.47c-.66-.6-1.33-1.2-2-1.82s-1.43-1.14-2.16-1.73l-4.43-3.49-4.68-3.2c-1.52-1.1-3.15-2-4.71-2.93l-2.32-1.36-1.13-.66-1.15-.59-4.36-2.17c-1.36-.73-2.74-1.2-3.95-1.74l-3.33-1.39c-1-.39-1.88-.66-2.6-.92l-2.25-.77s-.8-.3-2.25-.76l-6.13-1.71a121.6,121.6,0,0,0-19.74-3,123.14,123.14,0,0,0-21.85.59,124.59,124.59,0,0,0-14.44,2.54,29,29,0,0,0-11.47,5.33A37.34,37.34,0,0,0,802,474Z" style="fill:#202020"/><path d="M1293,458a30.08,30.08,0,0,0-4-6.33,25.65,25.65,0,0,0-4.82-4.59,21.72,21.72,0,0,0-12.74-4,95.06,95.06,0,0,0-15.06,1A123.75,123.75,0,0,0,1235,449.3a154.13,154.13,0,0,0-18.12,7.46c-2.34,1.09-4.16,2.14-5.48,2.81l-2,1.07s-.73.4-2,1.13-3.11,1.76-5.3,3.06-4.72,2.92-7.43,4.73l-4.16,2.86c-.71.5-1.44,1-2.16,1.51l-2.13,1.59-4.33,3.25c-1.43,1.11-2.81,2.26-4.19,3.37s-2.75,2.21-4,3.32L1170,488.7l-3.36,3-2.84,2.7-4,3.88a23.24,23.24,0,0,0-6.16,10.64c-.93,3.9-1,8.26-.85,13.55,5.37-.3,9.61-.63,13.27-1.69a22.2,22.2,0,0,0,10-5.72l3.79-3.49,2.63-2.46,3.09-2.7,3.37-2.95c1.17-1,2.42-2,3.65-3s2.5-2.06,3.78-3.06l3.88-2.92,1.91-1.44c.64-.47,1.29-.9,1.92-1.35l3.69-2.57c2.39-1.61,4.64-3,6.52-4.21l4.62-2.7,1.73-1,1.76-.91c1.14-.56,2.73-1.47,4.74-2.39a134.16,134.16,0,0,1,15.32-6.22,103.94,103.94,0,0,1,17.34-4.18,88.16,88.16,0,0,1,11.7-1,23.85,23.85,0,0,0,10.21-2.44c1.6-.75,3.25-1.7,5.08-2.74A65,65,0,0,1,1293,458Z" style="fill:#202020"/><path d="M.5,900.5l7.17,2c2.28.65,4.5,1.12,6.63,1.89,4.26,1.42,8.36,2.49,12.4,4l3.07,1,1.55.49,1.53.6c2.06.8,4.18,1.54,6.37,2.31,2.16.92,4.4,1.81,6.77,2.7,2.33,1.07,4.78,2.08,7.4,3.24l5.25,2.45,7.2,3.55c2.76,1.35,5.69,2.86,9.08,4.4l3.55,1.64c2.42,1,4.9,2,7.36,3s5.09,1.74,7.65,2.61a18.91,18.91,0,0,0,2,.57l2,.52,4,1,2,.5,2,.37,4,.72,4,.71,4.08.42,4.08.41c1.37.11,2.74.34,4.1.34l8.2.26c1.38,0,2.75.14,4.13.08l4.14-.13c2.76-.11,5.53-.13,8.32-.32l8.41-.85,2.11-.22,2.11-.37,4.24-.75c1.41-.27,2.83-.46,4.24-.8l4.21-1.08,4.22-1.1,4.15-1.39,4.14-1.41,4-1.64c1.33-.56,2.72-1.07,4-1.68l3.91-1.8c2.65-1.2,5.1-2.46,7.65-3.7l7.43-3.66c2.45-1.11,4.89-2.32,7.35-3.35l3.69-1.5,1.85-.76c.62-.24,1.25-.43,1.87-.64a118.7,118.7,0,0,1,31.39-6.37,17.36,17.36,0,0,1,2.05-.12l2.07-.07,4.15-.13,4.16-.13,4.16.13,4.18.14,2.09.06,1,0,1,.11,8.26.83a114.1,114.1,0,0,1,31.84,9l3.9,1.8,2,.9,2,1,8,4c2.68,1.35,5.55,2.65,8.38,4,1.39.67,2.89,1.25,4.36,1.85l4.42,1.8a133.9,133.9,0,0,0,37.71,7.93c3.18.21,6.36.24,9.55.36l2.39.08c.8,0,1.6,0,2.4,0l4.79-.15a162,162,0,0,0,19.28-1.59l4.83-.85,2.42-.43a24.56,24.56,0,0,0,2.41-.51l4.79-1.23c1.59-.43,3.22-.77,4.76-1.34l4.7-1.58c.77-.27,1.57-.51,2.33-.81l2.28-.93,4.55-1.86c1.48-.65,2.93-1.34,4.39-2,3-1.34,5.73-2.76,8.58-4.14l4.15-2c1.37-.67,2.76-1.39,4.11-2,2.72-1.25,5.44-2.56,8.17-3.61,1.37-.54,2.72-1.14,4.09-1.64l4.15-1.39a122.74,122.74,0,0,1,34.79-5.67c6-.35,12,0,18,.21l8.89.9a20.11,20.11,0,0,1,2.2.33l2.18.39,4.36.77a15.89,15.89,0,0,1,2.15.48l2.13.55,4.27,1.09c1.4.43,2.78.93,4.18,1.39l2.09.7c.7.23,1.4.47,2.08.77,2.75,1.15,5.51,2.16,8.26,3.51l4.13,1.92,4.19,2.06,8.56,4.2,4.45,2.07,2.23,1,2.31.94,4.64,1.89c1.55.6,3.17,1.09,4.76,1.64l2.39.81c.8.26,1.59.55,2.41.74L647,938.2a136.36,136.36,0,0,0,19.76,3.28c1.65.16,3.3.34,5,.48l4.93.16,4.92.16,2.46.07,2.46-.07,9.84-.32c3.3-.28,6.6-.65,9.89-1,1.65-.11,3.29-.47,4.93-.74l4.93-.88a48.64,48.64,0,0,0,4.89-1.11l4.87-1.26a24.57,24.57,0,0,0,2.4-.72l2.38-.8c1.58-.54,3.18-1.05,4.74-1.63l4.6-1.87,2.3-.94c.76-.32,1.48-.67,2.23-1l4.42-2c1.46-.69,2.85-1.39,4.28-2.09l8.37-4.12c1.38-.68,2.73-1.28,4.1-1.92s2.72-1.31,4.08-1.83c2.73-1.08,5.43-2.32,8.2-3.15l4.13-1.4c1.39-.41,2.8-.73,4.2-1.1l4.21-1.08,4.3-.76,4.29-.77,4.38-.44c2.92-.28,5.81-.69,8.78-.69l8.86-.26,8.84.28a122,122,0,0,1,33.83,6.25c2.72.82,5.35,2,8,3.08,1.33.51,2.65,1.18,4,1.78l4,1.85,8.09,4,4.12,2,4.25,2c2.79,1.36,5.79,2.51,8.72,3.71,1.44.64,3,1.12,4.49,1.64l4.54,1.52c3.06.91,6.17,1.63,9.25,2.44,3.11.64,6.23,1.14,9.33,1.7l1.17.21,1.17.12,2.33.24,4.66.47c3.1.4,6.18.39,9.25.51,6.15.36,12.28,0,18.38-.18a161.66,161.66,0,0,0,18.3-2.3l2.28-.41a22.16,22.16,0,0,0,2.26-.48l4.48-1.15L999,937a21,21,0,0,0,2.22-.65l4.37-1.47a158,158,0,0,0,16.65-6.93l7.75-3.8,3.76-1.85,1.88-.93,1.85-.85c2.46-1.14,4.92-2.32,7.37-3.26l3.67-1.5c1.23-.44,2.48-.84,3.71-1.26l3.7-1.24,3.76-1,3.76-1c1.26-.27,2.55-.46,3.82-.69a150.23,150.23,0,0,1,15.41-2l7.81-.25c1.3,0,2.59-.09,3.89-.11l3.87.12,7.71.26,7.55.77c2.53.16,4.94.74,7.39,1.13l3.65.65,3.57.91,3.55.91.88.23.87.29,1.73.59c2.3.79,4.62,1.48,6.87,2.47s4.51,1.8,6.76,2.89l3.35,1.56c1.12.51,2.26,1.1,3.39,1.64l6.83,3.37,3.46,1.69,3.55,1.64c1.19.54,2.35,1.11,3.56,1.63l3.66,1.49c1.23.49,2.43,1,3.66,1.47l3.75,1.26,3.74,1.26c1.26.38,2.54.67,3.8,1l3.79,1c.63.16,1.26.33,1.89.48l1.91.34,7.59,1.34c2.52.32,5,.54,7.53.8l3.74.38c1.24.09,2.47.09,3.7.14l7.35.23,1.83.06,1.83-.05,3.63-.12,7.21-.23,7.18-.73,3.56-.36c1.18-.15,2.36-.4,3.54-.6l7-1.25,6.86-1.77a151.8,151.8,0,0,0,25.3-9.87c7.76-3.79,14.77-7.45,21.77-10.25,3.46-1.53,7-2.55,10.4-3.75l5.22-1.35,2.58-.67c.87-.18,1.75-.31,2.62-.47l5.18-.93,1.28-.22,1.31-.13,2.59-.26,5.13-.53a24.1,24.1,0,0,1,2.56-.15l2.55-.08,5-.16,2.49-.08,2.47.08c3.27.13,6.5.16,9.63.35l9.16.93c2.94.48,5.81,1,8.63,1.51s5.45,1.38,8.1,2c2.59.83,5.11,1.7,7.58,2.54,2.44,1,4.82,1.93,7.14,2.94s4.56,2.08,6.79,3.17c8.85,4.32,17.17,8.65,25,11.56.95.4,1.91.73,2.86,1.05l2.79.93c1.83.59,3.54,1.27,5.26,1.65l4.88,1.26,2.26.58c.74.18,1.46.28,2.16.41l7.41,1.31c2.13.34,3.93.44,5.37.61l4.38.45,1.1.11c.37,0,.83.09,1.37.12l1.9.06,5.35.17,3.44.11c.61,0,1.25,0,1.9,0l2-.06,9.35-.29c.86,0,1.74-.12,2.64-.21l2.78-.27,5.89-.6c2-.24,4.15-.7,6.35-1.06a69.08,69.08,0,0,0,6.77-1.39c2.31-.6,4.71-1.18,7.16-1.87L1555,934c2.49-1,5-2,7.61-3.08s5.09-2.33,7.68-3.56l7.74-3.81,3.92-1.93c1.32-.65,2.63-1.22,4-1.85,2.66-1.29,5.39-2.36,8.16-3.49,1.38-.61,2.8-1.05,4.24-1.53l4.33-1.47,4.51-1.16,2.29-.59,1.15-.3,1.18-.21,4.78-.84,2.42-.43c.81-.16,1.66-.19,2.49-.29l5-.51,2.55-.26c.86-.1,1.74-.07,2.61-.12l5.29-.16,2.67-.09,1.35,0,1.35,0c3.6.14,7.27.19,11,.4l5.52.56c1.85.22,3.74.3,5.57.69l5.56,1,1.41.25c.46.08.91.23,1.38.34l2.76.71c3.73.83,7.37,2.19,11.09,3.42,7.37,2.8,14.75,6.5,22.76,10.45a165.15,165.15,0,0,0,26.17,10.66,147.46,147.46,0,0,0,29.3,5.06c2.49.14,5,.18,7.49.27l3.77.12c.63,0,1.26.05,1.9.05l1.89-.06,7.63-.24,1.91-.06,1,0,1-.1,3.87-.39,3.89-.4a37.32,37.32,0,0,0,3.91-.5l7.84-1.39c2.62-.56,5.21-1.3,7.83-2l2-.51,1.92-.64,3.86-1.3c2.62-.81,5.06-1.93,7.59-2.93s4.91-2.18,7.37-3.29c1.24-.56,2.43-1.13,3.6-1.72l3.55-1.75,7-3.43a122.4,122.4,0,0,1,28.23-10.25c9.85-2.14,20.24-2.86,30.83-3,10.6.18,21.23.9,31.51,3.24l3.82,1,1.92.49a15.84,15.84,0,0,1,1.9.55l3.76,1.27c1.26.44,2.53.81,3.76,1.36l3.74,1.52c.63.26,1.25.5,1.87.78l1.88.86,3.75,1.74c1.26.59,2.54,1.24,3.81,1.86l7.78,3.83c1.29.65,2.64,1.29,4,1.91l4.09,1.9c1.38.62,2.83,1.17,4.24,1.76s2.84,1.19,4.29,1.71l4.42,1.5,2.22.74,1.11.37,1.13.29,4.55,1.17c1.52.37,3,.85,4.57,1.07,3.07.54,6.15,1.14,9.23,1.61l9.29.94c1.56.2,3.09.18,4.64.25l4.64.15,4.65.14,4.66-.14,4.67-.15c1.56-.07,3.11,0,4.68-.25l9.42-.95c3.14-.49,6.29-1.09,9.44-1.64a20.83,20.83,0,0,0,2.34-.53l2.34-.6,4.68-1.21c1.56-.42,3.07-1,4.6-1.49s3.07-1,4.58-1.57L2107,932c1.49-.6,3-1.21,4.39-1.89l4.3-2c1.44-.66,2.78-1.35,4.18-2l8.19-4c1.36-.69,2.68-1.28,4-1.9s2.67-1.25,4-1.84a117,117,0,0,1,16.26-5.7,138.05,138.05,0,0,1,34.69-4.24c11.91.06,23.76,1,35,3.88l4.23,1.09,4.14,1.4c2.79.85,5.5,2,8.24,3.15,1.37.52,2.73,1.2,4.1,1.82s2.73,1.25,4.11,1.92l8.39,4.13,4.29,2.1,4.44,2,2.22,1,2.31.94,4.61,1.88c1.56.59,3.17,1.09,4.75,1.64l2.39.8a24.67,24.67,0,0,0,2.4.74l4.88,1.26c1.63.4,3.25.88,4.9,1.12l4.94.88c1.65.27,3.3.65,5,.76l9.9,1,9.86.32,2.46.07,2.46-.07,4.93-.16,4.94-.16c1.64-.12,3.3-.32,5-.47,3.3-.36,6.61-.58,9.91-1.26s6.61-1.07,9.86-2l4.89-1.26a24.86,24.86,0,0,0,2.41-.74l2.39-.8c1.59-.55,3.21-1,4.77-1.65l4.63-1.88,2.31-.95,2.23-1,4.46-2.06,8.55-4.21,4.18-2.06,4.13-1.92c2.75-1.34,5.5-2.36,8.25-3.5l1-.42,1-.35,2.09-.7,4.17-1.4,4.26-1.09,2.13-.55a17.44,17.44,0,0,1,2.14-.49c2.91-.49,5.79-1.08,8.71-1.49l8.87-.9c3-.17,6-.21,9-.32s6,0,9,.09l4.48.14,1.12,0,1.11.11,2.21.23,4.41.45,2.2.22c.73.1,1.45.25,2.17.37l4.32.77,2.15.38c.73.12,1.41.34,2.12.51l4.22,1.09c.7.18,1.41.34,2.1.55l2.06.7,4.13,1.38c1.37.45,2.71,1.09,4.07,1.61s2.72,1.07,4.07,1.7l4.06,1.88c1.34.6,2.72,1.28,4.09,2l4.11,2,4.22,2.07,2.11,1,2.18,1,4.36,2c1.48.64,3,1.24,4.51,1.86a124.76,124.76,0,0,0,18.7,6,46.06,46.06,0,0,0,4.78,1l4.8.85c.8.13,1.6.3,2.4.41l2.4.24,4.8.49,2.4.24a21.33,21.33,0,0,0,2.39.17l4.76.16,4.75.15c.79,0,1.58.06,2.37.05l2.37-.07,9.48-.31c3.16-.26,6.33-.62,9.49-.93.79-.09,1.58-.14,2.37-.26l2.36-.42,4.72-.83,2.36-.43c.78-.14,1.55-.38,2.33-.56l4.65-1.2,2.32-.6,2.27-.76,4.54-1.53c1.53-.47,2.95-1.12,4.42-1.7l4.37-1.78c2.79-1.3,5.66-2.58,8.35-3.9l8-3.94,3.91-1.91,3.86-1.78,1.92-.9c.64-.28,1.29-.52,1.93-.79l3.84-1.57c1.27-.56,2.58-.92,3.87-1.37l3.88-1.31c2.61-.75,5.26-1.37,7.87-2.07,2.67-.54,5.36-1,8-1.46,1.32-.28,2.7-.35,4.06-.5l4.07-.42,2-.2a17.18,17.18,0,0,1,2-.15l4.12-.13,4.11-.13c1.37-.05,2.74-.11,4.1,0l8.17.26c.68,0,1.37,0,2,.08l2,.21,4,.41c1.33.14,2.66.25,4,.41l3.9.7,3.89.69a15.64,15.64,0,0,1,1.92.42l1.89.49a76.54,76.54,0,0,1,7.5,2.14l3.69,1.24.92.31.14.06.16.06c6.92,2.68,13.19,5.75,18.57,8.4l7.4,3.62,5.69,2.6c2.88,1.25,5.71,2.29,8.38,3.28s5.41,1.58,8,2.25,5.1.93,7.53,1.3l1.81.26,1.81.12,3.56.16a82.22,82.22,0,0,0,13.86-.67,64.12,64.12,0,0,0,7-1.18c2.38-.47,4.81-1,7.31-1.53l-7.17-2c-2.28-.65-4.5-1.12-6.63-1.89-4.26-1.42-8.36-2.49-12.39-4l-3.07-1-1.56-.49-1.53-.6c-2.06-.8-4.18-1.54-6.37-2.31s-4.4-1.81-6.77-2.7c-2.33-1.07-4.79-2.08-7.4-3.24l-5.25-2.45-7.2-3.55c-5.44-2.69-12.12-6-20-9l-.18-.08-.16-.06-1.05-.36-4.21-1.42c-2.79-1-5.7-1.69-8.59-2.45l-2.17-.56a20.34,20.34,0,0,0-2.19-.48l-4.4-.79-4.42-.78c-1.48-.19-3-.31-4.44-.47a183.24,183.24,0,0,0-35.76-.35l-4.53.46c-1.51.17-3,.26-4.54.57-3,.55-6.07,1-9.1,1.66-3,.79-6,1.51-9,2.37L2687,900c-1.46.52-3,.94-4.4,1.57l-4.3,1.75c-.72.3-1.45.58-2.15.89l-2.08,1-4.16,1.93-4,2-7.94,3.91c-2.63,1.29-5.19,2.42-7.8,3.64l-3.9,1.59c-1.3.51-2.59,1.11-3.92,1.51l-4,1.33-2,.67-2,.52a117.72,117.72,0,0,1-16.56,3.26c-2.84.27-5.68.6-8.54.84l-8.69.27-2.17.07c-.73,0-1.46,0-2.18,0l-4.36-.14-4.37-.14a19.61,19.61,0,0,1-2.17-.15l-2.15-.22-4.31-.44-2.16-.21c-.72-.1-1.41-.25-2.12-.37l-4.24-.75a37.42,37.42,0,0,1-4.21-.87,110.22,110.22,0,0,1-16.39-5.22c-1.35-.55-2.69-1.08-4-1.66l-4-1.87-2-.93-2.05-1-4.1-2-4.22-2.07c-1.4-.7-2.8-1.39-4.28-2.06l-4.39-2c-1.45-.68-3-1.25-4.52-1.89s-3-1.28-4.59-1.8l-4.71-1.59-2.36-.79c-.8-.24-1.61-.43-2.41-.64l-4.83-1.25c-.81-.19-1.61-.44-2.42-.58l-2.45-.44-4.89-.87c-.82-.13-1.63-.3-2.45-.41l-2.45-.25-4.91-.5-2.46-.25-1.22-.12-1.22,0-4.89-.16c-3.27-.08-6.53-.28-9.79-.09s-6.53.16-9.81.35l-9.86,1c-3.29.47-6.57,1.13-9.86,1.69-.82.13-1.63.35-2.44.56l-2.44.62-4.88,1.26c-1.6.51-3.18,1.06-4.77,1.59l-2.39.81-1.19.4-1.15.47c-3.07,1.27-6.22,2.46-9.13,3.88l-4.44,2.07-4.3,2.11-8.41,4.13-4.13,1.91-2.06,1-2.07.84-4.13,1.68c-1.38.53-2.78.95-4.17,1.44a122.7,122.7,0,0,1-35,5.91l-4.52.14-2.27.07-2.26-.07-9-.28-8.91-.89c-1.5-.1-2.93-.44-4.39-.68l-4.36-.77c-1.46-.21-2.87-.64-4.29-1l-4.26-1.1a18.86,18.86,0,0,1-2.1-.64l-2.09-.71c-1.39-.48-2.79-.9-4.17-1.43-5.51-2.18-10.92-4.59-16.5-7.4l-8.49-4.18c-1.44-.7-2.94-1.37-4.41-2.06s-2.93-1.39-4.48-2c-3.07-1.24-6.09-2.56-9.29-3.55l-4.75-1.59-4.84-1.26c-12.95-3.3-26.11-4.31-39-4.37a154,154,0,0,0-38.7,4.79,133,133,0,0,0-18.46,6.47c-1.46.64-2.89,1.33-4.33,2s-2.91,1.32-4.27,2L2113,912c-1.35.65-2.71,1.36-4,2l-4,1.84c-1.33.65-2.66,1.18-4,1.71l-4,1.62c-1.34.5-2.68.91-4,1.38s-2.66.94-4,1.31l-4.09,1-2,.53a20.45,20.45,0,0,1-2.06.46c-2.78.47-5.55,1-8.33,1.45l-8.47.85c-1.4.2-2.85.16-4.27.23l-4.29.13-4.27.14-4.27-.14-4.26-.14c-1.41-.06-2.85,0-4.23-.22l-8.35-.84c-2.74-.42-5.45-1-8.17-1.42a39.34,39.34,0,0,1-4-.94l-4-1-1-.25-1-.32-1.94-.66-3.87-1.3c-1.29-.46-2.55-1-3.82-1.53s-2.54-1-3.81-1.58l-3.8-1.75c-1.26-.58-2.52-1.17-3.81-1.82l-7.74-3.81c-1.31-.64-2.59-1.29-3.94-1.92l-4-1.87-2-.94c-.68-.3-1.39-.57-2.09-.86l-4.18-1.71c-1.38-.6-2.84-1-4.27-1.54l-4.31-1.44a18.57,18.57,0,0,0-2.17-.64l-2.19-.57-4.39-1.13c-11.76-2.66-23.51-3.45-35-3.63-11.48.18-23,1-34.22,3.4a139,139,0,0,0-31.67,11.45l-7.1,3.5-3.46,1.7c-1.15.58-2.3,1.13-3.42,1.64-2.26,1-4.51,2.16-6.76,3s-4.46,1.92-6.73,2.6l-3.38,1.14-1.68.57-1.72.44c-2.29.56-4.54,1.23-6.84,1.71l-6.93,1.23a31.11,31.11,0,0,1-3.49.45l-3.49.35-3.49.36-.87.09-.88,0-1.76,0-7,.22-1.74.06c-.58,0-1.16,0-1.74,0l-3.46-.11c-2.3-.08-4.6-.11-6.87-.24a132.94,132.94,0,0,1-26-4.46,150.59,150.59,0,0,1-23.71-9.69c-7.77-3.83-15.79-7.88-24.14-11-4.25-1.42-8.4-3-12.68-3.92l-3.17-.81c-.52-.12-1-.28-1.57-.38l-1.59-.29-6.3-1.12c-2.09-.43-4.16-.53-6.23-.77l-6.14-.62c-4-.24-8-.29-12-.43-.49,0-1,0-1.47,0l-1.47,0-2.91.09-5.76.18c-1,0-1.9,0-2.85.13l-2.84.29-5.61.57c-.92.11-1.85.15-2.77.32l-2.74.48-5.41,1-1.34.24-1.32.34-2.61.67-5.16,1.34-5,1.66c-1.64.56-3.27,1.08-4.81,1.75l-4.61,1.88c-1.55.59-2.94,1.32-4.4,2s-2.88,1.31-4.24,2l-4,2-7.64,3.76c-2.45,1.17-4.81,2.25-7.14,3.31s-4.58,1.89-6.78,2.75c-17.7,6.43-32.84,7.12-43.12,7.23l-1.87.06c-.6,0-1.18,0-1.75,0l-3.16-.1-4.91-.16-1.74,0c-.49,0-.9-.09-1.23-.11l-1-.11-3.93-.4c-1.3-.15-2.93-.23-4.83-.54l-6.54-1.16c-.61-.12-1.26-.2-1.9-.36l-2-.51-4.27-1.1c-1.5-.32-3-.93-4.6-1.44l-2.44-.82c-.83-.27-1.68-.56-2.53-.93-6.85-2.55-14.5-6.51-23.75-11-2.3-1.13-4.79-2.24-7.28-3.4s-5.24-2.17-8-3.29c-2.81-1-5.69-1.95-8.66-2.9-3-.76-6.1-1.62-9.27-2.34-3.18-.56-6.44-1.17-9.76-1.71l-10.18-1c-3.44-.21-6.94-.25-10.51-.39l-2.68-.08-2.71.08-5.49.17-2.78.09c-.93,0-1.86.05-2.8.17l-5.7.57-2.89.3-1.45.15-1.45.25-5.87,1c-1,.18-2,.34-3,.55l-3,.76-6,1.55c-3.91,1.34-8,2.55-11.81,4.24-7.82,3.14-15.36,7.08-22.69,10.66a136,136,0,0,1-22.7,8.88l-6,1.55-6.2,1.1c-1,.17-2.07.4-3.13.53l-3.2.32-6.46.66-6.62.21-3.33.1-1.67.06-1.68-.06-6.75-.21c-1.13,0-2.27,0-3.4-.13l-3.36-.35c-2.24-.24-4.51-.42-6.77-.71l-6.69-1.19-1.69-.29c-.55-.13-1.1-.29-1.65-.43l-3.31-.85c-1.1-.29-2.22-.54-3.32-.87l-3.27-1.11-3.28-1.1c-1.09-.41-2.17-.88-3.26-1.31l-3.28-1.34c-1.09-.46-2.18-1-3.28-1.49l-3.29-1.53-3.35-1.64-6.85-3.37c-1.16-.57-2.3-1.15-3.5-1.71l-3.63-1.68c-2.38-1.15-4.93-2.15-7.47-3.19s-5.16-1.91-7.79-2.81l-2-.66-1-.33-1-.27-4.06-1-4.09-1-4.13-.75c-2.77-.45-5.54-1.08-8.33-1.28l-8.39-.85c-2.8-.12-5.6-.19-8.41-.28l-4.22-.14c-1.41,0-2.82.08-4.23.12l-8.51.28a168.76,168.76,0,0,0-17.25,2.19c-1.44.27-2.89.5-4.33.8l-4.3,1.11-4.31,1.11-4.23,1.41c-1.41.48-2.83.94-4.23,1.45l-4.12,1.67c-2.78,1.08-5.41,2.33-8.06,3.56l-2,.93-1.92.94-3.87,1.91-7.56,3.7a141.83,141.83,0,0,1-15,6.27,122.73,122.73,0,0,1-32,6.19c-5.6.15-11.22.5-16.86.16-2.82-.11-5.67-.09-8.44-.46l-4.19-.43-2.09-.21-1-.11-1-.18c-2.74-.51-5.5-.94-8.23-1.5-2.69-.72-5.4-1.34-8.08-2.13l-4-1.34c-1.33-.45-2.66-.86-4-1.44-2.62-1.08-5.25-2.07-7.88-3.35l-3.95-1.84-4-2-8.19-4-4.27-2c-1.45-.65-2.83-1.36-4.34-1.94-3-1.19-5.9-2.52-9-3.48l-4.62-1.55c-1.55-.5-3.15-.85-4.72-1.28L854.8,896c-1.6-.32-3.2-.59-4.8-.88l-4.81-.85c-1.6-.26-3.21-.35-4.82-.54l-4.83-.49c-.8-.07-1.61-.17-2.41-.22l-2.41-.08-9.63-.31c-3.22.06-6.43.19-9.65.29s-6.47.45-9.71.75l-4.87.51-4.87.86-4.86.87c-1.61.38-3.22.81-4.83,1.22s-3.22.8-4.81,1.28L772.77,900c-3.19,1-6.17,2.34-9.24,3.56-1.55.6-3,1.33-4.45,2s-3,1.35-4.39,2c-11.48,5.6-22,11.18-33.23,14.27L717.21,923a37,37,0,0,1-4.29,1l-4.35.77a42.86,42.86,0,0,1-4.38.67l-8.89.88-9,.28c-12.07.06-24.12-.79-35.53-3.62l-4.27-1.09a21.28,21.28,0,0,1-2.1-.65l-2.09-.71c-1.4-.49-2.8-.9-4.18-1.44L634,917.37l-2.07-.84-2.07-.95-4.13-1.91-8.42-4.14-4.3-2.12-4.44-2.07c-2.92-1.42-6.08-2.61-9.15-3.88-.76-.33-1.55-.61-2.35-.87l-2.39-.8c-1.6-.53-3.18-1.1-4.79-1.59L585,896.94l-2.45-.63a23.32,23.32,0,0,0-2.45-.54l-4.94-.88-2.47-.44c-.82-.14-1.65-.31-2.47-.37l-9.89-1c-6.56-.23-13.11-.6-19.65-.23l-4.91.16a22.79,22.79,0,0,0-2.46.18l-2.46.25-4.93.5c-.82.09-1.64.16-2.46.26l-2.46.43a124.24,124.24,0,0,0-19.43,4.64l-4.73,1.6c-1.56.57-3.07,1.23-4.6,1.84-3.1,1.2-6,2.6-8.94,3.95-1.49.67-2.86,1.39-4.29,2.08l-4.22,2.08c-2.75,1.34-5.52,2.76-8.22,4-1.35.62-2.71,1.27-4.06,1.87l-4.06,1.65-2,.83c-.68.27-1.37.47-2,.71l-4.11,1.38a40.66,40.66,0,0,1-4.15,1.17l-4.18,1.08a17,17,0,0,1-2.12.44l-2.14.38-4.26.76A148.57,148.57,0,0,1,416,926.47l-4.4.14c-.73,0-1.46,0-2.19,0l-2.2-.07c-2.92-.12-5.85-.14-8.75-.32a118.29,118.29,0,0,1-33.29-7l-3.95-1.61c-1.31-.55-2.63-1-3.94-1.68-2.63-1.22-5.23-2.39-7.9-3.74l-8.06-4-2-1-2.1-1-4.21-1.95c-1.42-.63-2.9-1.2-4.35-1.8s-2.88-1.22-4.38-1.73l-4.49-1.52c-1.5-.49-3-1-4.52-1.4l-4.57-1.18a46.68,46.68,0,0,0-4.59-1l-4.62-.82-2.3-.41c-.77-.13-1.53-.28-2.3-.34l-9.2-.93-1.14-.11-1.14,0-2.28-.07-4.55-.15-4.54-.14-4.53.14-4.52.14-2.26.08a21.59,21.59,0,0,0-2.26.14,134.19,134.19,0,0,0-35.53,7.24c-.71.24-1.43.47-2.13.73l-2.07.85-4.13,1.68c-2.73,1.15-5.32,2.43-8,3.63L201,911c-2.46,1.2-4.94,2.48-7.34,3.55L190,916.23c-1.2.57-2.41,1-3.61,1.51l-3.59,1.47-3.64,1.22-3.62,1.23-3.69.94-3.67.95c-1.23.31-2.5.47-3.74.7l-3.74.67-1.86.33-1.9.2-7.56.76c-2.53.18-5.09.19-7.62.29l-3.8.12c-1.26.06-2.52,0-3.78-.07l-7.53-.24c-1.26,0-2.47-.21-3.71-.31l-3.67-.37-3.66-.37-3.58-.63-3.56-.63-1.78-.32-1.73-.45-3.46-.89-1.72-.44a13.86,13.86,0,0,1-1.7-.5c-2.25-.77-4.49-1.49-6.71-2.28l-6.57-2.7-3.29-1.52c-3.08-1.38-6-2.9-8.71-4.19l-7.4-3.61-5.69-2.61c-2.88-1.25-5.72-2.29-8.38-3.28-2.77-.83-5.41-1.58-8-2.25s-5.1-.93-7.53-1.3l-1.81-.26-1.81-.11-3.56-.17a83.28,83.28,0,0,0-13.86.67,69.32,69.32,0,0,0-7,1.18C5.43,899.45,3,900,.5,900.5Z" style="fill:var(--theme-color-accent-primary)"/><path d="M1263.89,472l-54.69,58.51s-29.26,7.64-22.9-5.08C1193,512.11,1263.89,472,1263.89,472Z" style="fill:#d8eae8"/></svg>



