<svg xmlns="http://www.w3.org/2000/svg" width="400" height="400" viewBox="0 0 400 400"><title>leonisa</title><path d="M364,241.78c-1,1.58-9.69,15.39-18.65,15.42a8.15,8.15,0,0,1-7.13-5.1,21.15,21.15,0,0,1-13.18,5c-7.34,0-11.5-7.11-9.57-15.8-2.34,2.43-16.77,15.8-27.94,15.8-5.22,0-9.37-3.08-10.84-9.48-4.75,4.1-10.75,10.45-19,9.48-3.61-.44-7.34-3.93-7.81-9.48-1.87,2.47-9.93,9.37-18.11,9.48-9.49,0-10.91-9.29-5.68-17.78,0,0,11.89-19.45,15.27-25.05.9-1.58,2.64-5.77-2.37-5.77-7.59,0-13.34,7.71-16.53,12.84l-20.82,35.76H191.58l23.85-40.65c.09-.09,4.37-7.66-2.52-7.63-6.08,0-11.76,6.48-19,10a67.8,67.8,0,0,1-5.9,13.23c-2.1,3.71-15.65,25.09-29.15,25.09-7.47,0-8.85-9.67-8.12-15.64-3.41,3.66-17.39,15.6-25.42,15.64-4.15,0-8.22-.74-10.38-6-7,3.34-13.82,6.15-22.27,6.15-7,0-14.57-2-26.78-6.62-.52.34-12,6.6-23.53,6.6-7.46,0-13.55-3.16-13.55-8.28s5.61-7.73,11.26-7.73c8.82,0,15.8,2.44,22.12,4.59,20.24-17.86,30-37.18,38.43-51.85,9.21-16,24.56-51.21,50-51.21A25.42,25.42,0,0,1,165.18,147a16.65,16.65,0,0,1,4.63,4.83c.93,1.58-1,3.5-2.73,1.69-4.9-5.61-10.06-8.11-15.16-8.11-20.23,0-31.85,33.4-40.94,50.17-17.16,31.7-25.21,40.68-41.25,52.84,5.12,1.8,14.22,5.34,23.33,5.34,8.61,0,19-5,21-6.06-2.12-25.29,27.37-51.87,36.07-39.35,4.07,5.86-6.94,26.43-30,39.89,0,.1,1.08,5.52,5.79,5.52,8.16,0,21-13.9,25.92-20.2,5.25-6.78,9.49-14.13,12.33-17.7.79-1.06,3.3-4.13,4.32-5.17,8.59-8.93,16.07-5.58,18.12-3.73,4.27-1.19,8.75,1.75,8.1,8,5.36-2.56,12.64-10.19,19.47-10.22,4.74,0,7.9,2.6,10.07,7,15.41-13.07,24.69-5,25.4,1.9.27,2.24-1.33,5.44-2.39,7.32,0,0-12.06,20.2-13.59,22.68s-6.45,10.16-1.41,10.16c7.13,0,15.46-10.59,16.6-12.1,2.56-3.17,23-37,23-37h9l-22.21,38.61a24.26,24.26,0,0,0-2.34,5.85,3.51,3.51,0,0,0,2.34,4.36h.16c10.25,3,24.67-21,26.35-23.9,4.52-7.82,14.44-24.62,22.82-26.87l-.84,7.62c-6.32-1.26-7,1.58-3.63,20.18a32.67,32.67,0,0,1-1.17,16.41c9.37-4.93,17.38-17.39,17.62-17.54a177.34,177.34,0,0,1,14.08-17c4.27-4.47,9.72-7.71,14.13-7.73a10.33,10.33,0,0,1,9.65,7l4.5-7h8.87S346.24,247.69,345.51,249c-.3.55-2.07,4.74,1.09,4.74,6.59,0,13.67-12.9,14-13.51C361.11,240.21,364.57,240.56,364,241.78Zm-243.87,3.16c18.66-14,30.77-31.43,25.29-34.43S120.16,231,120.12,245ZM58.9,248.1a60.5,60.5,0,0,0-16.72-3.35c-4.44,0-9.38.91-9.38,4.28s5.71,4.74,10.12,4.74c7.62,0,15.71-5.45,16-5.64Zm130.79-28.25a12.62,12.62,0,0,1-2-.23,6.82,6.82,0,0,1-5.71-6.55,6.49,6.49,0,0,1,2.21-4.74s-2.21-1.74-8.94,5.07c-5.19,5.28-17.39,25.4-18.34,33.48-.54,4.52,1.23,6.42,2.93,6.77,8.31,1.72,21.82-16.74,25.28-23.71A67,67,0,0,0,189.69,219.85Zm1.59-6.32c0-1.36-.24-3-2.19-3a2.6,2.6,0,0,0-2.35,2.83.48.48,0,0,0,0,.17c0,2.59,2.78,3,4.14,2.73a11.51,11.51,0,0,0,.44-2.79ZM295.9,220c-2.66,3.16-10.1,15.81-11.51,17.94l-.1.16c3,3.84,1.58,8.88-4.23,9.66.08.27.6,6.13,5,6.12,6.67,0,11.78-8.84,12.53-17.14.61-6.16-.11-13.58-1.61-16.8ZM345.65,231c3.65-6.12,6.89-11.15,7.67-14.72.82-3.9-1.06-5.88-3.37-6.07-3.78-.3-10,3.48-20.28,18.78-9.39,14-11.58,24.85-5.92,24.83C332.26,253.85,342.22,236.81,345.65,231Zm-67.81-44.26c-2.84,3.4-3.28,7.71-1,9.64s6.44.73,9.28-2.67,3.29-7.71,1-9.64-6.37-.74-9.22,2.65Z" style="fill:#020203"/></svg>