<svg xmlns="http://www.w3.org/2000/svg" width="400" height="400" viewBox="0 0 400 400"><title>nike</title><path d="M71.68,172.34S62.81,189,62.81,203.5c0,0-.8,34.06,34.4,34.06h4.86s7.07,2.22,128.82-34.06H200l-1.61-38.23L184,203.5H161.8l35-92.84H218l-9.63,26.63,22.8-26.63H298l-5.79,15.42H269.42l-7.07,19.6h21.21L276.81,163H255.92l-8.34,22.82h25.06l-1.9,6.74s90.92-23.46,100.56-26c0,0-259.11,122.79-301.52,122.79,0,0-40.95.25-40.95-33.16C28.83,256.17,24.15,225,71.68,172.34Zm149.88,24.74,31.07-84-33,35.12ZM170.8,110.66,136.31,203.5h21.42l34.7-92.84Zm-96,92.84H96.26L111.69,163,110,203.5h22.7l34.7-92.84h-21.2l-15.85,41.05,2.56-41.05H110ZM91,224.91a4.58,4.58,0,0,1-6.87,4,4.42,4.42,0,0,1-1.67-1.68,4.58,4.58,0,0,1,7.93-4.58A4.43,4.43,0,0,1,91,224.91Zm-.89,0A3.55,3.55,0,0,0,89,222.29a3.69,3.69,0,0,0-5.21,0v0a3.69,3.69,0,1,0,6.31,2.62Zm-5.77-2.45h2.22a1.93,1.93,0,0,1,1.34.36,1.3,1.3,0,0,1,.43,1,1.25,1.25,0,0,1-.33.86,1.77,1.77,0,0,1-1,.52,1.53,1.53,0,0,1,.41.23,2.74,2.74,0,0,1,.4.5s.26.49.78,1.42H87.13a11,11,0,0,0-.94-1.67.71.71,0,0,0-.49-.28h-.14v1.91H84.31Zm1.22,2.07h.54a1.16,1.16,0,0,0,.74-.17.53.53,0,0,0,.22-.44.51.51,0,0,0-.21-.44,1.12,1.12,0,0,0-.71-.18h-.58ZM311.72,115.24a4.57,4.57,0,1,1-.61-2.3A4.43,4.43,0,0,1,311.72,115.24Zm-.89,0a3.71,3.71,0,0,0-3.69-3.71,3.63,3.63,0,0,0-2.62,1.11,3.71,3.71,0,0,0,0,5.23,3.63,3.63,0,0,0,2.62,1.11,3.72,3.72,0,0,0,3.69-3.74Zm-5.77-2.46h2.22a2,2,0,0,1,1.34.37,1.34,1.34,0,0,1,.43,1,1.25,1.25,0,0,1-.33.86,1.77,1.77,0,0,1-1,.52,2,2,0,0,1,.43.23,2.28,2.28,0,0,1,.38.5s.28.49.79,1.42h-1.44a11.91,11.91,0,0,0-.94-1.67.69.69,0,0,0-.48-.28h-.16v1.93h-1.21Zm1.19,2.06h.53a1.32,1.32,0,0,0,.75-.17.54.54,0,0,0,.22-.44.51.51,0,0,0-.21-.44,1.06,1.06,0,0,0-.71-.18h-.58Z"/></svg>