<svg xmlns="http://www.w3.org/2000/svg" width="400" height="400" viewBox="0 0 400 400"><title>oregon-food-bank</title><path d="M144.88,240.39a2.6,2.6,0,0,0-2.37-1.19,2.53,2.53,0,0,0-2.33,1.19c-.92,1.5-1.1,10.57-1.1,16.29s.18,12.4,1.1,13.89a2.53,2.53,0,0,0,2.33,1.19,2.6,2.6,0,0,0,2.37-1.19c.93-1.49,1.06-8.18,1.06-13.89s-.13-14.79-1.06-16.29m3.34,32.42a7.75,7.75,0,0,1-11.42,0c-2.2-2.51-2.16-10.28-2.16-16.13s0-16,2.16-18.53a7.75,7.75,0,0,1,11.42,0c2.2,2.51,2.16,12.67,2.16,18.53s0,13.62-2.16,16.13"/><path d="M166.84,240.39a2.6,2.6,0,0,0-2.37-1.19,2.53,2.53,0,0,0-2.33,1.19c-.92,1.5-1.1,6.32-1.1,12s.18,14.72,1.1,16.21a2.51,2.51,0,0,0,2.33,1.19,2.58,2.58,0,0,0,2.37-1.19c.93-1.49,1.06-10.49,1.06-16.21s-.13-10.54-1.06-12m3.34,30.49a7.75,7.75,0,0,1-11.42,0c-2.2-2.51-2.16-12.6-2.16-18.45s0-11.77,2.16-14.28a7.75,7.75,0,0,1,11.42,0c2.2,2.51,2.16,8.42,2.16,14.28s0,15.94-2.16,18.45"/><rect x="118.7" y="153.23" width="41.41" height="3.67"/><rect x="239.21" y="153.22" width="41.7" height="3.67"/><path d="M201.66,86.62S198,87,198,95.32v43.59c0,2.94,1.27,7.07,3.67,7.07,0,0-.54-29.72,38.32-36,0,0,2.6,35-30.57,44.47,0,0,2.38-14.46,13.89-24.21,2.11-1.78,5.95-4.33,5-8.26,0,0-23.11,13.44-22.23,36.37,0,0,18.32-.33,31.18-21.07,8.51-13.72,5.63-30.85,5.63-30.85s-29.63.9-41.18,24.57Z"/><path d="M199.84,65.81s-29.38,18.5-10,51.15c0,0,2.24-1.47.67-6.72S180.19,88,199.84,70c17.45,14.5,11.76,30.12,10.19,35.37s.67,6.72.67,6.72C227,82.59,199.84,65.81,199.84,65.81"/><path d="M193.22,136.75s-3,.17-4.95-4.36-7.69-21.68-32.13-19.32c0,0-2.73,31.2,33.65,41.27a61.36,61.36,0,0,0-15.93-21.61c-3.79-3.2-5.47-6.29-4.49-7.61,0,0,20.67,12.42,25,33.23,0,0-43.28-3.57-41.66-48.49,0,0,32.38-7.86,40.55,26.89"/><rect x="118.69" y="219.26" width="162.21" height="3.67"/><polygon points="222.7 283.4 222.39 279.75 280.79 274.76 280.79 278.38 222.7 283.4"/><rect x="118.75" y="287.15" width="57.94" height="3.67" transform="translate(-25.9 14.78) rotate(-5.27)"/><path d="M251.83,311.44a4.09,4.09,0,0,1-5.07,1.09c-5.77-3-13.24-3.14-20.51-3.29-13.43-.28-28.66-.59-28.66-22.15h3.67c0,18,11.06,18.19,25.07,18.48,9.11.19,18.53.38,25.5,5.87"/><path d="M153.19,321.55h0c3.27-7.81,13.05-10.8,22.51-13.68,11.25-3.43,21.88-6.67,21.88-17.12h3.68c0,13.16-13,17.13-24.49,20.63-7.66,2.34-15,4.57-18.6,9a4.3,4.3,0,0,1-5,1.2"/><path d="M197.58,330.52a3.67,3.67,0,0,0,3.68,3.67v-52l-3.68.34Z"/><path d="M239,291.74c-9.25,1.31-17.23,2.43-21.38-1.17-2.13-1.85-3.32-5-3.62-9.59l-3.66.34c.39,5.57,2,9.52,4.87,12,5.41,4.7,14.17,3.47,24.3,2s21.21-3,31.5.69a3.89,3.89,0,0,0,4.83-2c-12.14-5.85-25.27-4-36.84-2.37"/><path d="M160.07,298.66c-10.25.93-21.86,2-29.79,9.81a4,4,0,0,0,5.14.45c6.84-4.95,16-5.79,25-6.61,13.28-1.21,27-2.46,28.48-19l-3.73.34c-1.53,12.85-12,13.82-25.08,15"/><path d="M266.6,235.82h3.93v12.4h.07l5.75-12.4h3.94l-5.36,10.83,6.38,15.74h-4.19l-4.46-11.32-2.13,4.1v8.43H266.6Zm-21.52,0h3.79l5.94,18.66h.08V235.82h3.92v28.91h-3.69l-6-17.59H249v18.5h-3.93Zm-14.72,0h3.28l6.54,30.49h-3.94l-1.56-8.21h-5.37l-1.86,9.34h-3.94ZM232,244H232L230,254.29H234Zm-21.65,5.16h1.79a3.09,3.09,0,0,0,2.69-1c.43-.7.65-3.39.65-4.66a4.67,4.67,0,0,0-.73-2.87,3.37,3.37,0,0,0-2.76-1h-1.64Zm0,15.9h1.71c1.53,0,2.51-.45,2.92-1.36a4.71,4.71,0,0,0,.46-1.54c0-.56,0-4.4,0-5.11a6.38,6.38,0,0,0-.57-3.22,3.13,3.13,0,0,0-2.81-1.09h-1.75Zm-3.92-29.23h5.75c2.52,0,4.34.75,5.44,2.16a8.25,8.25,0,0,1,1.55,5v2.73a6.79,6.79,0,0,1-.68,3.35,6.1,6.1,0,0,1-2.1,1.9q2.78,1.29,2.78,5.59v4.8q.08,7.65-7.37,7.73h-5.37Zm-87.76,0h11.73v3.81h-7.8v13.08h6.8v3.81h-6.8V276.7h-3.93Z"/><path d="M131.31,175.88a3,3,0,0,0-2.79-1.39,3,3,0,0,0-2.74,1.39c-1.09,1.76-1.29,5.49-1.29,12.21s.2,10.45,1.29,12.21a3,3,0,0,0,2.74,1.39,3,3,0,0,0,2.79-1.39c1.09-1.76,1.24-5.49,1.24-12.21s-.15-10.45-1.24-12.21m4.35,27.93a9.75,9.75,0,0,1-14.28,0c-2.74-3.1-2.69-8.48-2.69-15.72s0-12.62,2.69-15.72a9.75,9.75,0,0,1,14.28,0c2.74,3.1,2.69,8.48,2.69,15.72s.05,12.62-2.69,15.72"/><path d="M157.33,174.9h-3.56v11.28h3.56c3.11,0,3.57-2.59,3.57-5.64s-.46-5.64-3.57-5.64m4.5,31.6L157,191.4h-3.25v15.1H148V169.68h9.31c6.73,0,9.42,3.26,9.42,10.86,0,4.55-.93,7.81-4.3,9.62l5.49,16.34Z"/><polygon points="177.79 206.5 177.79 169.68 193.26 169.68 193.26 174.9 183.59 174.9 183.59 185.35 191.91 185.35 191.91 190.57 183.59 190.57 183.59 201.28 193.26 201.28 193.26 206.5 177.79 206.5"/><path d="M212.17,206.92a8.79,8.79,0,0,1-7.14-3.11c-2.74-3.1-2.69-8.48-2.69-15.72s-.05-12.62,2.69-15.72a8.79,8.79,0,0,1,7.14-3.11,8.92,8.92,0,0,1,6.56,2.49,11.31,11.31,0,0,1,2.85,7.7h-5.79c-.06-2.07-.52-5-3.62-5a3,3,0,0,0-2.75,1.39c-1.08,1.76-1.29,5.49-1.29,12.21s.21,10.45,1.29,12.21a3,3,0,0,0,2.75,1.39c2.48,0,3.62-2.17,3.62-4.7v-5.74h-3.62v-4.76h9.41v10.19c0,6.67-3.93,10.24-9.41,10.24"/><path d="M243.93,175.88a3.08,3.08,0,0,0-2.8-1.39,3,3,0,0,0-2.74,1.39c-1.08,1.76-1.29,5.49-1.29,12.21s.21,10.45,1.29,12.21a3,3,0,0,0,2.74,1.39,3.08,3.08,0,0,0,2.8-1.39c1.08-1.76,1.24-5.49,1.24-12.21s-.16-10.45-1.24-12.21m4.34,27.93a9.74,9.74,0,0,1-14.27,0c-2.74-3.1-2.69-8.48-2.69-15.72s-.05-12.62,2.69-15.72a9.74,9.74,0,0,1,14.27,0c2.74,3.1,2.69,8.48,2.69,15.72s0,12.62-2.69,15.72"/><polygon points="275.79 206.5 267.1 184.63 267.1 206.5 261.31 206.5 261.31 169.68 266.48 169.68 275.12 191.56 275.12 169.68 280.91 169.68 280.91 206.5 275.79 206.5"/><path d="M183,239.76v27l2.87-.28a3.24,3.24,0,0,0,2.3-1.85c.85-1.59.92-6,.92-11.66s-.08-9.7-.93-11.19c-.42-.76-1.24-2-2.29-2Zm3-3.94a6,6,0,0,1,5.28,2.61c1.82,2.36,2,6.85,2,14.26s-.15,12.28-2,14.85a6.85,6.85,0,0,1-5.26,3.23l-7.15.56V235.82Z"/></svg>