<svg xmlns="http://www.w3.org/2000/svg" width="400" height="400" viewBox="0 0 400 400"><title>portland-community-college</title><path d="M28.85,196,77.91,245,127,196,77.91,146.92Zm71.46-14.67L115,196,97.31,213.64l-7.1-7.09A21.12,21.12,0,0,1,74.91,213c-24.61-.15-25.24-33.28-3.63-33.75,6.79-.16,12.94,3.78,12.78,11.83-.31,11.83-15.77,11.2-15.77,3.94a3.12,3.12,0,0,1,3-3.15c2.37,0,2.37,2.05,4.42,2.05a3.21,3.21,0,0,0,3-2.84C79.17,183,62.45,181.62,62,195c-.79,14.83,27,18.14,28.55-3.94.94-11.52-13.57-23-29.34-15.62l16.72-16.56Zm54.26-21.45c2.05,0,3.63-.79,3.63-3.32s-3-3-4.89-3h-2.68v6.31Zm-13.09,15.3V147.08H155c8.05,0,12,3.78,12,9.46,0,6-3.63,9.94-11.67,9.94h-4.57v8.68Zm34.86-10.26c0,3.95,1.42,5.52,3.47,5.52,2.21,0,3.47-1.73,3.47-5.52,0-3-1.26-5.2-3.47-5.2-2.68,0-3.47,2.84-3.47,5.2m3.47-10.57c7.26,0,11.67,4.26,11.67,10.57,0,7.57-5,11-11.67,11s-11.67-3.62-11.67-10.56c0-7.1,4.73-11,11.67-11"/><path d="M224.61,162.22v-7.41h-4V148.5h-8v6.31h-4.73c-3.16,0-4.74,1.26-6.31,4.1h-.16v-4.1H194v20.5h8.2v-7.09c0-4.42,1.73-6,5-6a27.3,27.3,0,0,1,3.62,0h1.74v5.84c0,7.1,1.26,7.88,12,7.25v-5.83h-1.26c-2.21,0-2.53-.63-2.53-2.53v-4.73Zm3.15-15.3H236V175h-8.2ZM253,166.32c-2.68,1.26-6.15.63-6.15,3.32,0,.94,1,1.73,2.52,1.73,3,0,3.95-2.21,3.63-5.05m8.2,9h-7.73v-2.2a10.09,10.09,0,0,1-7.73,2.83c-3.94,0-7.25-1.89-7.25-6.15,0-9.3,14.51-5,14.51-8.83,0-1.42-1.73-1.74-2.68-1.74-1.11,0-2.68.16-2.84,2.05h-7.89c0-4.25,3.16-6.94,11.2-6.94,9.62,0,10.26,3.63,10.26,8.52l.15,12.46Zm3.63-20.5h7.41V158c1.9-2.52,3.79-3.78,6.95-3.78,5.36,0,7.88,3.15,7.88,8.83v12.3h-8.2V164.43c0-2.05-.47-3.79-2.84-3.79s-3.15,1.58-3.15,4.26v10.41h-8.21v-20.5Zm40.07,10.57c0-2.21-.79-4.74-3.47-4.74s-3.47,2.53-3.47,4.89c0,2.21.47,4.58,3.15,4.58,3,0,3.79-2.37,3.79-4.73m.63,9.93v-2.68c-1.89,2.53-3.63,3.31-6.31,3.31-6.15,0-9.31-4.57-9.31-10.41,0-6.78,3.79-11.2,8.68-11.2a7.27,7.27,0,0,1,6.15,2.69v-9.78h8.2v28.07Zm-148.44,17.2a4.56,4.56,0,0,0-4.89-4.58c-3.31,0-5.2,2.84-5.2,8.21,0,3.94.79,7.72,5.52,7.72,3,0,4.42-2.05,4.73-4.73h8.84c-.79,7.26-6,11.68-13.41,11.68-9.31,0-15-5.68-15-14.83s6.15-14.83,14-14.83c8.52,0,13.41,4.26,14.2,11.52h-8.84Zm37.23-3h7.42v3a8.31,8.31,0,0,1,6.46-3.63c3.63,0,5.68,1.58,6.63,3.79a8.16,8.16,0,0,1,7.1-3.79c6,0,7.88,3.31,7.88,9V210h-8.2V199.61c0-3-.63-4.26-2.68-4.26-2.37,0-2.84,2.05-2.84,4.57V210h-8.2V199.61c0-3-.63-4.26-2.68-4.26-2.37,0-2.84,2.05-2.84,4.57V210h-8.21V189.51Zm39.12,0h7.41v3a8.34,8.34,0,0,1,6.47-3.63c3.63,0,5.68,1.58,6.63,3.79a8.16,8.16,0,0,1,7.1-3.79c6,0,7.88,3.31,7.88,9V210h-8.2V199.61c0-3-.63-4.26-2.68-4.26-2.37,0-2.84,2.05-2.84,4.57V210H247V199.61c0-3-.63-4.26-2.69-4.26-2.36,0-2.83,2.05-2.83,4.57V210h-8.21V189.51Zm61.36,20.35h-7.57v-3c-2.05,2.84-4.1,3.63-7.41,3.63-4.42,0-7.42-2.68-7.42-8.52V189.51h8.05v11c0,2.84.94,3.79,3,3.79,2.37,0,3.16-1.74,3.16-4.89v-9.94h8.2Zm3.63-20.35h7.41v3.16c1.9-2.53,3.79-3.79,6.94-3.79,5.37,0,7.89,3.15,7.89,8.83V210h-8.2V199.13c0-2-.47-3.78-2.84-3.78s-3.16,1.57-3.16,4.26V210h-8.2V189.51Zm-141.34,37.7a4.55,4.55,0,0,0-4.89-4.57c-3.31,0-5.2,2.83-5.2,8.2,0,3.94.79,7.73,5.52,7.73,3,0,4.42-2,4.73-4.73h8.84c-.79,7.25-6,11.67-13.41,11.67-9.31,0-15-5.68-15-14.83s6.15-14.83,14-14.83c8.52,0,13.41,4.26,14.2,11.52h-8.84Zm37.23-10.73h8.2v28.08h-8.2Zm12.94,0h8v28.08h-8Zm26.81,15.62a3.78,3.78,0,0,0-3.63-3.63,3.44,3.44,0,0,0-3.78,3.63Zm-7.41,4.1a4.07,4.07,0,0,0,4.1,4.1,3.23,3.23,0,0,0,3-1.73h7.73c-1.42,5.05-6.63,6.78-11.36,6.78-6.63,0-11.67-3.79-11.67-10.57s5-11,11.67-11c7.57,0,12.14,5.21,12,12.62H226.66Zm25.87-.79c0,2.05.94,4,3.15,4,2.53.15,3.47-2.05,3.47-4.26s-.79-4.42-3.47-4.42c-2.36,0-3.15,2-3.15,4.73m3.31,12.15c2.37,0,3.31-.32,3.31-3.16v-1.73a8,8,0,0,1-5.83,2.21c-5.68,0-8.84-4.42-8.84-9.63,0-5,2.37-10.41,9.15-10.41a7.42,7.42,0,0,1,6.15,3.32v-2.69h7.1V242c0,4.26-1.1,8.2-4.1,10.09-1.89,1.26-6.15.79-8.52,1h-2.68v-5.36h4.26Zm29-15.46a3.78,3.78,0,0,0-3.62-3.63,3.44,3.44,0,0,0-3.79,3.63Zm-7.41,4.1a4.07,4.07,0,0,0,4.1,4.1,3.22,3.22,0,0,0,3-1.73h7.73c-1.42,5.05-6.63,6.78-11.36,6.78-6.62,0-11.67-3.79-11.67-10.57s5.05-11,11.67-11c7.57,0,12.15,5.21,12,12.62H277.45Zm46.06-58h8.2v8.21h-8.2Zm39.75,11.36-3.63,12.62L356,189.51H344.33v-5h-8v5H323.51V210h8.2V197.08h4.42v5.68c0,7.1,1.26,7.89,12,7.26v-5.84h-1.26c-2.21,0-2.53-.63-2.53-2.52v-4.58h6.47l3.94,11.2c.79,2.21.32,3-2.36,3h-1.74V217c.63,0,2.05.15,3.63.15,7.26,0,8-2.05,10.25-8.36l6.63-19.24ZM176.5,199.61c0,3.94,1.42,5.52,3.47,5.52,2.21,0,3.47-1.74,3.47-5.52,0-3-1.26-5.21-3.47-5.21-2.68.16-3.47,3-3.47,5.21M180,189c7.25,0,11.67,4.26,11.67,10.57,0,7.57-5,11-11.67,11s-11.68-3.63-11.68-10.57c0-7.1,4.74-11,11.68-11m-3.63,45.11c0,3.94,1.42,5.52,3.47,5.52,2.21,0,3.47-1.73,3.47-5.52,0-3-1.26-5.2-3.47-5.2-2.68.15-3.47,3-3.47,5.2m3.47-10.57c7.26,0,11.67,4.26,11.67,10.57,0,7.57-5,11-11.67,11s-11.67-3.63-11.67-10.57c.15-7.09,4.73-11,11.67-11"/></svg>