<svg xmlns="http://www.w3.org/2000/svg" width="400" height="400" viewBox="0 0 400 400"><title>trail-blazers</title><path d="M192.43,67.24a2.73,2.73,0,0,1,2.47-1h70.55q-12.3,12.31-24.61,24.62a56.13,56.13,0,0,1,18,29.22,55.55,55.55,0,0,1-5,39.3A57.58,57.58,0,0,1,243,173.53q-13.31,13.33-26.63,26.64H144.45q12.3-12.34,24.64-24.62a55.44,55.44,0,0,1-6.5-78.15c.73-.88,1.5-1.73,2.29-2.55C174.05,85.59,183.28,76.46,192.43,67.24Zm1.68,4.7c-8.63,8.74-17.4,17.35-26,26.1a51.07,51.07,0,0,0,1.87,72.2c.76.72,1.54,1.41,2.34,2.09,10.1-10,20.09-20.07,30.16-30.08a12.17,12.17,0,0,1-4.77-3.42,9.3,9.3,0,0,1,.87-12.21c18.6-18.68,37.34-37.24,55.9-56h-6.55l-52.72,52.71a14,14,0,0,0-3.71,13,15.79,15.79,0,0,0,3.57,6.73c-1.06,1.1-2.13,2.19-3.19,3.28a19.87,19.87,0,0,1-5-9.51,18.52,18.52,0,0,1,4.76-16.39c16.53-16.62,33.19-33.1,49.67-49.75q-3.3-.06-6.57,0-23.17,23.19-46.41,46.39a23.22,23.22,0,0,0-6.09,20.31,24,24,0,0,0,6.26,12.16q-1.59,1.63-3.2,3.25a28.44,28.44,0,0,1-7.71-15.34,27.72,27.72,0,0,1,7.21-23.31c14.4-14.54,29-28.86,43.34-43.49-2.53.27-5.89-1-7.76,1.24Q203.23,89.15,186,106.33c-2.68,2.72-5.58,5.28-7.71,8.47a32.56,32.56,0,0,0-5.41,22.66A33.09,33.09,0,0,0,182,156.1l-3.21,3.23a37.05,37.05,0,0,1-.23-52Q196.88,89,215.22,70.62h-6.67c-9.46,9.56-19,19.06-28.51,28.55-3.09,3.12-6.39,6.08-8.92,9.69a41.85,41.85,0,0,0,4.31,53.79l-3.24,3.24a46.37,46.37,0,0,1-4.61-60c2.8-3.92,6.41-7.15,9.79-10.56q12.36-12.39,24.71-24.71c-2.62.32-6-1-8,1.31ZM207.4,124.2c4.26,1.39,7.41,5.78,6.65,10.32-.32,3.37-2.94,5.68-5.21,7.86Q182.16,169,155.5,195.68h6.64l53-53c5-5.23,4.74-14.17-.31-19.3l3.26-3.2a19.62,19.62,0,0,1,5.05,10.1,18.53,18.53,0,0,1-5.09,16l-49.47,49.43h6.62l46.14-46.13A23,23,0,0,0,228,134.46a23.65,23.65,0,0,0-6.66-17.64l3.25-3.2a28.27,28.27,0,0,1,7.94,17.21,27.78,27.78,0,0,1-7.92,21.89q-21.45,21.47-42.94,42.94h6.61L224.92,159A58.52,58.52,0,0,0,231,152.5a32.56,32.56,0,0,0-3.08-42.21l3.23-3.23a37,37,0,0,1,.33,51.92q-18.31,18.35-36.67,36.68h6.62l30.94-30.94a52.07,52.07,0,0,0,6.74-7.64,41.77,41.77,0,0,0-4.66-53.33l3.26-3.24a46.3,46.3,0,0,1,5,59.5,62.1,62.1,0,0,1-7.89,8.87l-26.82,26.79h6.61c8.92-9,17.89-17.85,26.79-26.81a51,51,0,0,0-.89-72.17c-.94-.92-1.91-1.8-2.92-2.64Q222.47,109.11,207.4,124.2Z" style="fill:#050708"/><path d="M105.86,213c5.22-.52,11.06.15,15.15,3.73,3,2.52,4,6.64,4,10.43v54.48c0,3.79-1.16,7.82-4.17,10.31-3.94,3.37-9.43,4-14.41,3.62-4.55-.37-9.39-2.26-11.79-6.36a15.34,15.34,0,0,1-1.84-8.18V227.21a13.87,13.87,0,0,1,2.95-9.42C98.24,214.85,102.1,213.44,105.86,213Zm.72,10.3c-1.41,1-1.36,3-1.46,4.5v52a12,12,0,0,0,.57,4.29c.84,1.88,3.37,1.92,5,1.34,1.89-.84,1.77-3.26,1.87-5V227.81c-.11-1.5,0-3.32-1.29-4.4a4.9,4.9,0,0,0-4.74-.09Z" style="fill:#050708"/><path d="M130.22,212.84c5.81.08,11.63,0,17.44.07,3.82.11,7.94.75,10.9,3.37,2.74,2.45,3.66,6.27,3.77,9.82.13,6.16,0,12.32.11,18.52,0,2.13.17,4.37-.72,6.36-.72,1.58-2.35,2.39-3.73,3.27,3,1.62,4.39,5,4.37,8.29.1,11.07.18,22.13,0,33.21H150.27V266.17c-.07-1.84-.12-3.95-1.53-5.33-1.56-1.6-4-1.44-6-1.68v36.51c-4.21,0-8.34,0-12.51,0Q130.21,254.28,130.22,212.84Zm12.42,9.92v26.57c2.07-.13,4.48.26,6.18-1.21,1.32-1.21,1.29-3.15,1.36-4.79V227.82c0-1.57-.06-3.6-1.68-4.4-1.8-.87-3.9-.56-5.86-.66Z" style="fill:#050708"/><path d="M158.93,212.86h40.72v10H189v72.83H176.59q-.06-36.43,0-72.84c-2.27,0-4.54.09-6.81,0-.91.07-1.47-.71-2.07-1.24C164.79,218.66,161.87,215.75,158.93,212.86Z" style="fill:#050708"/><path d="M204.85,212.85h12.38v72.86h15.71v10H204.85Z" style="fill:#050708"/><path d="M247.6,212.85h18.53q4.71,41.43,9.43,82.86H263.05c-.84-8.83-1.75-17.68-2.62-26.48h-8c-1,8.83-2,17.68-3,26.49H238.18Q242.88,254.27,247.6,212.85Zm8.2,19.81c-.73,8.87-1.59,17.74-2.29,26.62h5.81c-.69-9.48-1.42-19-2.09-28.43a21.78,21.78,0,0,0-.58-3.94A35.93,35.93,0,0,0,255.8,232.66Z" style="fill:#050708"/><path d="M280.78,212.86H292c4.7,15.31,9.17,30.71,14,46,.07-15.33,0-30.67,0-46h11.26v82.86H305.91c-4.58-15.15-9.12-30.35-13.84-45.46-.05,15.15,0,30.31,0,45.52H280.83Q280.76,254.29,280.78,212.86Z" style="fill:#050708"/><path d="M322.49,212.85c5.37,0,10.75,0,16.13,0,3.73.12,7.7.58,10.82,2.83a12.79,12.79,0,0,1,4.57,7.88c.93,4.14.7,8.42.72,12.63v44.27a15.26,15.26,0,0,1-5.24,12.11,15,15,0,0,1-9.74,3.12H322.48Zm12.35,10v62.94c2-.14,4.09.27,5.89-.69,1.75-1.35,1.52-3.82,1.69-5.79V229c-.14-1.94,0-4.45-1.82-5.64-1.83-.8-3.86-.46-5.76-.55Z" style="fill:#050708"/><path d="M45.26,212.86c8,0,16-.05,24,0,4.71.12,9.81.67,13.62,3.71,3.22,2.58,4.41,6.85,4.58,10.83.15,5.11,0,10.23.07,15.35,0,4.13-.62,8.64-3.52,11.79-4.21,4.4-10.72,4.67-16.4,4.82v36.31H55.26V224.76c0-.9.11-2-.7-2.61C51.5,219,48.34,216,45.26,212.86ZM67.7,249.42c1.9-.1,4,.17,5.73-.7,1.5-.76,1.68-2.65,1.68-4.13V227.76c0-1.53-.1-3.44-1.62-4.27-1.76-.89-3.83-.57-5.74-.69-.07,8.89,0,17.75,0,26.62Z" style="fill:#050708"/><path d="M111.29,312.88h11v3.54h-3.55v17.31h-3.94V316.42h-3.55Z" style="fill:#050708"/><path d="M127.33,312.87h8.77l2.52,2.53v7.4l-2.07,2,2.33,9-4-.05c-.75-2.69-1.08-5.53-2.16-8.1l-1.34-.69c-.1,2.93-.05,5.89,0,8.81h-4Zm4,2.9v6.51c1.1-.19,2.92.37,3.32-1.08a15,15,0,0,0-.08-4.72C133.62,315.69,132.35,316,131.28,315.77Z" style="fill:#050708"/><path d="M146.36,312.87h5.72l3.21,20.88h-3.88c-.21-1.63-.41-3.27-.63-4.9a26.79,26.79,0,0,0-3.23.18,37.23,37.23,0,0,0-.69,4.7h-3.71Q144.76,323.32,146.36,312.87Zm1.5,12.83h2.52c-.41-3.37-.84-6.67-1.22-10-.49,3.34-.88,6.68-1.3,10Z" style="fill:#050708"/><path d="M159.65,312.87h8.6v3h-2.32v14.88h2.33v3h-8.61v-3H162V315.87h-2.33Z" style="fill:#050708"/><path d="M173.6,312.88h3.91v17.41c1.45,0,2.9,0,4.36.07.13,1.11.14,2.25.19,3.37h-8.49Q173.62,323.32,173.6,312.88Z" style="fill:#050708"/><path d="M195.38,312.87h8.51l2.53,2.53a48.1,48.1,0,0,1,0,5.37,16.69,16.69,0,0,1-1.92,2.35l2,2.14v6L204,333.82h-8.61Zm4,3v5.82a10,10,0,0,0,3.25-1,30.84,30.84,0,0,0-.28-4.08c-.65-.89-2-.5-2.93-.77Zm0,14.87c1-.24,2.26.06,3-.76a31,31,0,0,0,.16-4.41l-1-.94-2.12-.07q-.08,3.09,0,6.18Z" style="fill:#050708"/><path d="M212.25,312.88h3.93v17.45h4.46v3.46h-8.42Z" style="fill:#050708"/><path d="M228.12,312.88h5.73q1.62,10.42,3.21,20.88h-3.89c-.21-1.62-.41-3.22-.6-4.82H229.2c-.2,1.61-.41,3.22-.61,4.83h-3.7Q226.52,323.32,228.12,312.88Zm1.53,12.88,2.52-.12c-.42-3.29-.84-6.59-1.21-9.89-.55,3.32-1,6.66-1.31,10Z" style="fill:#050708"/><path d="M241.49,312.87h9.58c.18,3.3-1.37,6.27-2.42,9.3l-2.91,8H251v3.55h-9.71a14.48,14.48,0,0,1,.69-4.53l4.65-12.77h-5.17Z" style="fill:#050708"/><path d="M256.39,312.87h9.21v3.45h-5.27v5.05l4.8.06v3.41h-4.78v5.45h5.31v3.44H256.4Q256.4,323.32,256.39,312.87Z" style="fill:#050708"/><path d="M271.25,312.87H280a11.93,11.93,0,0,1,2.44,2.83,48.23,48.23,0,0,1,.06,6.13c.07,1.35-1.27,2.1-2,3.06.73,3,1.52,5.89,2.28,8.88h-4c-.71-2.81-1.41-5.62-2.07-8.42l-1.51-.1v8.53h-4Zm4,2.91q-.08,3.3,0,6.57c1-.26,2.45.18,3.16-.79a13.89,13.89,0,0,0,0-5C277.69,315.58,276.27,316,275.24,315.78Z" style="fill:#050708"/><path d="M290.32,312.88h5.74c.84.84,1.68,1.68,2.52,2.48v3.83l-3.75,0c-.08-1.4-.31-3.56-2.29-3-1.49,1.21-.85,3.42-.68,5.05,1.52.5,3.16.11,4.69.51a24.68,24.68,0,0,1,2.09,1.87c0,2.57,0,5.14,0,7.72-.84.84-1.69,1.64-2.53,2.46h-5.89l-2.53-2.52v-3.79h3.77c.17,1.13.05,3.27,1.76,3.1,1.56.11,1.55-1.68,1.52-2.79-.13-.84.27-2.1-.61-2.67A33.62,33.62,0,0,0,290,325l-2.15-2.08v-7.47C288.64,314.55,289.48,313.71,290.32,312.88Z" style="fill:#050708"/></svg>