<svg xmlns="http://www.w3.org/2000/svg" width="400" height="400" viewBox="0 0 400 400"><title>trail-blazers-simple</title><path d="M187.48,134.05a2.72,2.72,0,0,1,2.47-1H260.5l-24.61,24.62a56.13,56.13,0,0,1,18,29.22,55.56,55.56,0,0,1-5,39.3,57.66,57.66,0,0,1-10.84,14.15L211.42,267H139.5q12.3-12.35,24.64-24.62a55.45,55.45,0,0,1-6.51-78.14h0c.73-.88,1.5-1.73,2.29-2.55C169.1,152.4,178.33,143.27,187.48,134.05Zm1.68,4.7c-8.63,8.74-17.4,17.35-26,26.1a51.08,51.08,0,0,0,1.87,72.2h0c.76.72,1.54,1.41,2.34,2.09,10.1-10,20.09-20.07,30.16-30.08a12.24,12.24,0,0,1-4.77-3.42,9.29,9.29,0,0,1,.87-12.21c18.6-18.68,37.34-37.24,55.9-56H243l-52.72,52.71a14,14,0,0,0-3.71,13,15.79,15.79,0,0,0,3.57,6.73c-1.06,1.1-2.13,2.19-3.19,3.28a19.92,19.92,0,0,1-5-9.51,18.5,18.5,0,0,1,4.76-16.39c16.53-16.62,33.19-33.1,49.67-49.75q-3.3-.06-6.57,0-23.17,23.19-46.41,46.39a23.22,23.22,0,0,0-6.09,20.31,24,24,0,0,0,6.26,12.16l-3.2,3.25a28.47,28.47,0,0,1-7.71-15.34A27.7,27.7,0,0,1,179.85,181c14.4-14.54,29-28.86,43.34-43.49-2.53.27-5.89-1-7.76,1.24Q198.29,156,181.05,173.14c-2.68,2.72-5.58,5.28-7.71,8.47a32.54,32.54,0,0,0-5.41,22.66,33.09,33.09,0,0,0,9.12,18.64l-3.21,3.23a37.05,37.05,0,0,1-.23-52l36.66-36.71H203.6c-9.46,9.56-19,19.06-28.51,28.55-3.09,3.12-6.39,6.08-8.92,9.69a41.85,41.85,0,0,0,4.31,53.79l-3.24,3.24a46.37,46.37,0,0,1-4.61-60c2.8-3.92,6.41-7.15,9.79-10.56q12.36-12.39,24.71-24.71c-2.62.32-6-1-8,1.31ZM202.45,191c4.26,1.39,7.41,5.78,6.65,10.32-.32,3.37-2.94,5.68-5.21,7.86q-26.68,26.61-53.34,53.3h6.64l53-53c5-5.23,4.74-14.17-.31-19.3l3.26-3.2a19.58,19.58,0,0,1,5.05,10.1,18.53,18.53,0,0,1-5.09,16l-49.47,49.43h6.62l46.14-46.13a23,23,0,0,0,6.66-15.12,23.65,23.65,0,0,0-6.66-17.64l3.25-3.2a28.27,28.27,0,0,1,7.94,17.21,27.79,27.79,0,0,1-7.92,21.89Q198.21,241,176.72,262.47h6.61L220,225.81a59.3,59.3,0,0,0,6.08-6.5A32.56,32.56,0,0,0,223,177.1l3.23-3.23a37,37,0,0,1,.33,51.92q-18.32,18.35-36.67,36.68h6.62l30.94-30.94a52.07,52.07,0,0,0,6.74-7.64,41.77,41.77,0,0,0-4.66-53.33l3.26-3.24a46.3,46.3,0,0,1,5,59.5,62.1,62.1,0,0,1-7.89,8.87l-26.82,26.79h6.61c8.92-9,17.89-17.85,26.79-26.81a51,51,0,0,0-.84-72.12l-.05-.05c-.94-.92-1.91-1.8-2.92-2.64Q217.52,175.92,202.45,191Z" style="fill:#050708"/></svg>