<svg xmlns="http://www.w3.org/2000/svg" width="400" height="400" viewBox="0 0 400 400"><title>trimet</title><polygon points="29.04 190.73 37.94 190.73 37.94 220.76 46.54 220.76 46.54 190.73 55.44 190.73 55.44 183.46 29.04 183.46 29.04 190.73"/><path d="M92.33,194.9c0,3.23-2.3,5.1-5.93,5.1a10,10,0,0,1-2.16-.13V190.3c.53,0,1.46-.13,2.29-.13C90.57,190.06,92.33,191.93,92.33,194.9Zm11.57,25.86-7.8-12c-.94-1.33-1.9-2.83-2.84-4.17a10.36,10.36,0,0,0,8.21-10.23c0-7.93-5.4-11-14-11-4.57,0-8.47,0-11.57.13v37.3h8.47V206.09h.4l8.9,14.67Z"/><path d="M124.23,220.76v-37.3h8.46v37.3Z"/><path d="M278,220.76l-2.56-15.5c-.53-3.1-.8-5.93-1.07-8.76h-.27a59.26,59.26,0,0,1-2.16,8.76l-4.57,15.2H259l-4.3-13.86a90.31,90.31,0,0,1-2.43-10.1h0c-.4,3.37-.81,6.33-1.07,9.56l-1.9,14.67h-8.76l5.93-37.29h9.83l5.1,16.29a52.71,52.71,0,0,1,1.9,8.2h.13a39.23,39.23,0,0,1,2.17-8.2L271,183.44h9.7l5.93,37.29H278Z"/><path d="M304.76,220.76v-37.3h21.13v7.27h-12.4v7.4h11.7v7h-11.7v8.2h12.4v7.4C325.76,220.76,304.76,220.76,304.76,220.76Z"/><path d="M362.09,190.73v30h-8.63v-30h-8.9v-7.4H371v7.4Z"/><path d="M189.18,193.52a17.64,17.64,0,0,0-4.31,4.71,12.09,12.09,0,0,0-1.9,5.54,14.65,14.65,0,0,0,6.34,1.48,13.93,13.93,0,0,0,6.07-1.34,15.69,15.69,0,0,0-1.9-5.68A12,12,0,0,0,189.18,193.52Z"/><path d="M169.47,196.6a14.36,14.36,0,0,0-2.83,8.65,14.11,14.11,0,0,0,1.9,7.28,13.8,13.8,0,0,0,12.52,7,14.14,14.14,0,0,0,7.29-1.9,13,13,0,0,0,6.07-6.88,22,22,0,0,1-5.11.54A20.47,20.47,0,0,1,169.47,196.6Z"/><path d="M179.32,194.89a20.59,20.59,0,0,1,17.94-10.25,23,23,0,0,1,5.41.8,14.47,14.47,0,0,0-27.82,5.27,14,14,0,0,0,2.71,8.35A20.09,20.09,0,0,1,179.32,194.89Z"/><path d="M189,160.76c-21.44,0-39,17.53-39.24,39.24A39.24,39.24,0,1,0,189,160.76Zm26.29,54.71a21.19,21.19,0,0,1-17.94,10.25,22.18,22.18,0,0,1-8.21-1.76,17.73,17.73,0,0,1-8,1.76,20.55,20.55,0,0,1-12.42-37.1,20.58,20.58,0,0,1,41,.3,20.85,20.85,0,0,1,8.35,16.3A20.53,20.53,0,0,1,215.33,215.47Z"/><path d="M204.27,193.12a14.21,14.21,0,0,0-7.28-1.9h-1.34a21.93,21.93,0,0,1,3.11,4,20.53,20.53,0,0,1,2.83,10.25,19.43,19.43,0,0,1-5.67,14.43h1.34a14.5,14.5,0,0,0,12.55-7.28,12.28,12.28,0,0,0,1.74-7A14.51,14.51,0,0,0,204.27,193.12Z"/></svg>