<svg xmlns="http://www.w3.org/2000/svg" width="400" height="400" viewBox="0 0 400 400"><title>walmart</title><path d="M217.54,212.17a6.24,6.24,0,0,1-6.66,6.41c-2.63,0-4.72-1.5-4.72-4.66,0-4.83,5.32-6.17,11.38-6.14Zm9.5-8.42c0-8-3.41-15-14.92-15A27.36,27.36,0,0,0,199,191.9l1.87,6.41a19.34,19.34,0,0,1,9.59-2.7c5.84,0,6.8,3.31,6.8,5.44v.5c-12.73,0-20.77,4.39-20.77,13.36,0,5.49,4.1,10.62,11.22,10.62A12.74,12.74,0,0,0,217.91,221h.22s1.45,6.08,9.46,3.75a51.58,51.58,0,0,1-.55-8.48V203.75"/><path d="M28.78,177.91s8.31,34.07,9.64,39.6c1.55,6.46,4.34,8.83,12.39,7.23L56,203.62c1.31-5.25,2.2-9,3-14.33h.15a139.54,139.54,0,0,0,2.53,14.34s2.11,9.59,3.19,14.63,4.11,8.21,12,6.48l12.37-46.83h-10l-4.22,20.25c-1.14,5.89-2.17,10.5-3,15.89H72c-.73-5.34-1.64-9.76-2.8-15.51l-4.4-20.63H54.36L49.65,198c-1.33,6.11-2.58,11-3.37,16.25h-.14c-.81-4.9-1.9-11.11-3.07-17,0,0-2.79-14.39-3.77-19.35H28.78"/><path d="M108.15,212.17a6.2,6.2,0,0,1-6.65,6.41c-2.63,0-4.72-1.5-4.72-4.66,0-4.83,5.32-6.17,11.37-6.14Zm9.5-8.42c0-8-3.4-15-14.91-15a27.29,27.29,0,0,0-13.15,3.13l1.87,6.41a19.31,19.31,0,0,1,9.59-2.7c5.84,0,6.8,3.31,6.8,5.44v.5c-12.73,0-20.77,4.39-20.77,13.36,0,5.49,4.09,10.62,11.21,10.62A12.76,12.76,0,0,0,108.53,221h.21s1.46,6.08,9.47,3.75a51.5,51.5,0,0,1-.56-8.48V203.75"/><path d="M133.51,214.8V177.91H124v46.83h9.51V214.8"/><path d="M257.93,177.91v34.55c0,4.76.89,8.1,2.81,10.14a10.56,10.56,0,0,0,7.74,2.93,22.44,22.44,0,0,0,6.88-1l-.12-7.43a14.35,14.35,0,0,1-3.61.43c-3.24,0-4.33-2.07-4.33-6.35V197.94h8.29v-9H267.3V177.91h-9.37"/><path d="M233.38,189.56v35.18h9.81v-18a13.69,13.69,0,0,1,.21-2.6,7.42,7.42,0,0,1,7.76-6.19,17.63,17.63,0,0,1,2.83.26V189a10.11,10.11,0,0,0-2.17-.21c-3.66,0-7.82,2.36-9.57,7.43H242v-6.64h-8.6"/><path d="M140.17,189.56v35.18h9.56V204.11a8.43,8.43,0,0,1,.44-2.88c.8-2.08,2.73-4.51,5.81-4.51,3.86,0,5.67,3.26,5.67,8v20.05h9.55V203.86a9.82,9.82,0,0,1,.39-2.85,6,6,0,0,1,5.74-4.29c3.91,0,5.79,3.21,5.79,8.74v19.28h9.55V204c0-10.93-5.54-15.25-11.81-15.25a12.7,12.7,0,0,0-6.94,1.91,14.93,14.93,0,0,0-4.46,4.38h-.14a10,10,0,0,0-9.69-6.29c-5.95,0-8.63,3-10.25,5.57h-.14v-4.78h-9.07"/><path d="M327,188.14c1.9,0,3.45-1,3.66-2.25l1.87-21.11c0-2.09-2.44-3.8-5.52-3.8s-5.51,1.71-5.51,3.8l1.86,21.11c.21,1.27,1.77,2.25,3.65,2.25h0"/><path d="M315.58,194.74c.95-1.64.88-3.48-.12-4.29l-17.35-12.17c-1.81-1.05-4.51.21-6.05,2.87s-1.27,5.63.54,6.67l19.21,9c1.2.45,2.84-.41,3.78-2h0"/><path d="M338.41,194.73c.95,1.63,2.58,2.49,3.78,2l19.22-9c1.81-1,2.07-4,.54-6.67s-4.25-3.92-6.05-2.87l-17.36,12.17c-1,.81-1.06,2.65-.12,4.29h0"/><path d="M327,214.51c1.9,0,3.45,1,3.66,2.25l1.87,21.11c0,2.09-2.44,3.8-5.52,3.8s-5.51-1.71-5.51-3.8l1.86-21.11c.21-1.27,1.77-2.25,3.65-2.25h0"/><path d="M338.41,207.92c.95-1.64,2.58-2.49,3.78-2l19.22,8.94c1.81,1.05,2.07,4,.54,6.68s-4.25,3.92-6.05,2.88l-17.36-12.17c-1-.82-1.06-2.66-.12-4.29h0"/><path d="M315.58,207.92c.95,1.63.88,3.47-.12,4.29l-17.35,12.17c-1.81,1-4.51-.22-6.05-2.88s-1.27-5.63.54-6.68l19.21-8.94c1.2-.45,2.84.4,3.78,2h0"/><path d="M367.61,223H368c.44,0,.82-.13.82-.51s-.19-.51-.76-.51a2.07,2.07,0,0,0-.45,0Zm0,1.78H367v-3.16a6.78,6.78,0,0,1,1.1-.09,1.58,1.58,0,0,1,1,.24.8.8,0,0,1-.3,1.42v0a1,1,0,0,1,.53.76,2.42,2.42,0,0,0,.22.79H369a2.12,2.12,0,0,1-.25-.83c-.07-.34-.28-.49-.73-.49h-.38Zm.53-4.14a2.49,2.49,0,0,0,0,5,2.36,2.36,0,0,0,2.36-2.48,2.39,2.39,0,0,0-2.38-2.49Zm0-.53a3,3,0,1,1,0,6.05,3,3,0,1,1,0-6.05h0"/></svg>