<svg xmlns="http://www.w3.org/2000/svg" width="400" height="400" viewBox="0 0 400 400"><title>whole-foods</title><path d="M184,105c1.15.57,2.89-.58,4.05-1.74,2.32-4.64,6.95-7.54,11.59-8.69,13.9-3.48,21.43,12.16,33.6,13.32v.58c-8.69-1.16-14.48-8.11-23.75-6.37-6.37.58-13.33,5.21-15.65,11.59-.58,1.74-.58,3.47.58,4,2.9,1.16,4.64-1.15,6.37-2.31,6.38-5.8,12.75,1.74,19.7,1.16.58.57,2.32,0,2.32,1.15-11,4.64-24.91,12.17-27.8,25.49-4.64,15.07-1.74,33.61,11,44,9.84,7.53,26.07,9.27,37.66,4.63,9.84-3.47,17.38-13.32,19.7-23.17,4.05-15.64,1.16-32.45-12.75-42.88-4.64-2.32-10.43-6.37-15.64-2.32-1.74,6.38,6.95,5.8,8.69,11.59,6.37,11.59,6.95,29,1.16,41.14-2.9,4.64-7.54,9.85-13.33,10.43-5.21.58-10.43-.58-14.48-4.64-9.27-11-9.27-29-5.22-42.29,6.37-16.23,24.91-19.12,36.5-30.13a6.86,6.86,0,0,0-.58-5.8c-1.74-1.73-4-1.73-6.95-2.31-13.9-2.32-20.86-20.86-35.92-19.7-9.85,0-18.54,9.85-22,18-.58,1.74-1.74,4,1.16,5.22Zm183.67,74.74a8.56,8.56,0,0,0-2.9,3.47c-5.21,7.54-16.8,4.64-24.91,4.06-1.74,0-2.9-1.16-3.48-2.9V160.63l1.16-1.74c5.21-2.32,12.75,1.16,16.8-2.9a4.54,4.54,0,0,0-.58-4.64c-4.63-1.73-11-.57-16.22-.57-.58-.58-1.16-.58-1.16-1.16V134a8.5,8.5,0,0,1,2.9-3.47c6.37.58,12.17.58,18,.58,4.64,0,5.22,6.37,9.85,6.37,1.16,0,1.16-1.16,1.16-2.32a32.67,32.67,0,0,0-4.06-10.43L363,123.54H316.1L315,124.7c-2.32,5.22,4.05,3.48,6.37,6.38v55c-.58,2.32-2.9,2.9-5.22,2.9a2.58,2.58,0,0,0-1.73,3.47,2.49,2.49,0,0,0,2.31,2.32h48.09l1.74-1.16c1.74-4.05,4.64-8.11,4.64-12.17-.58-1.73-1.74-1.73-3.48-1.73Z" style="fill-rule:evenodd"/><path d="M266.27,131.66l.58,55c-.58,2.32-3.48,1.74-4.63,2.32a3.59,3.59,0,0,0-2.32,3.47c0,1.74,1.74,1.74,2.89,2.32h46.94c2.89-1.74,2.89-5.79,4.64-8.69.57-2.32,3.47-4.64.57-7-5.79-1.74-6.95,7-12.16,8.11H285.39c-2.31-.58-2.9-1.74-3.48-3.48V131.08c.58-2.32,3.48-1.74,5.22-2.32,1.74,0,2.32-1.74,2.32-2.9a2.5,2.5,0,0,0-2.32-2.32H271.49c-4.06,0-10.43-.57-11,1.16-2.32,5.8,5.79,3.48,5.79,7ZM58.84,191.91a5.91,5.91,0,0,0,4.64,2.9c2.32,0,4.05-.58,5.21-2.31,4.06-10.43,7.54-20.86,12.17-31.29l.58.58,10.43,30.12c.58,1.74,2.9,2.9,4.64,2.9,6.95-.58,6.37-8.69,8.69-13.32L122,129.92c.58-3.48,5.21-1.74,7.53-4.06,1.74,2.32,5.22.58,6.37,3.48l.58,56.78c-.58,3.48-4.63,2.32-6.37,4.06a3.06,3.06,0,0,0,.58,4.63h25.5l1.73-.57c4.06-7-6.37-3.48-6.37-8.12V157.73l1.74-1.74H173a8,8,0,0,1,2.32,1.74v29.55c-1.16,1.74-2.9,1.74-4.64,1.74a3.91,3.91,0,0,0-2.32,3.47c.58.58.58,1.74,1.74,2.32H195c.58-.58,1.74-.58,2.31-1.74,1.74-5.79-5.79-2.9-6.95-6.37V129.34c1.16-1.74,3.48-1.74,5.22-2.32,1.73,0,2.31-1.74,1.73-3.48,0-1.15-1.15-1.73-2.31-2.31H171.25c-2.32.58-2.9,2.31-2.9,4,1.16,2.9,5.22,1.16,7,4.06v18.54l-.58.58h-22a2,2,0,0,1-1.16-.58V129.34c1.16-2.9,4.63-1.16,6.37-2.9.58-1.16,1.16-4.63-1.74-5.21H131.85c-1.74.58-2.9,1.74-4.06,0l-19.7.58-1.74.58c-.58.58-1.15,2.31-.58,2.89,1.16,2.32,3.48,1.74,5.22,2.9,1.74.58,2.32,1.74,1.74,2.9l-12.75,40-1.16,1.16L85.5,131.66c-2.32-5.22,4.63-2.9,7-6.38,0-1.15,0-3.47-1.74-3.47H66.38l-2.32.58c-2.32,5.79,5.21,3.47,6.37,7.53,2.32,5.79,4.64,11.59,5.8,18l-8.7,24.91L66.38,174l-.58-.58L50.73,131.08c-1.74-5.22,5.8-1.74,7-5.8.58-1.15.58-3.47-1.73-3.47H31L29.29,123c-2.31,5.8,5.22,2.9,6.38,7l14.48,38.24Zm264.21,18.55c5.8-2.9,12.75-.58,17.39,2.89,3.47,2.32,2.9,7.54,7.53,7,1.16,0,1.74-.58,2.32-1.74l-3.48-15.07c-.58-4.05-4.63-1.16-6.37,0-8.11-1.74-18.54-3.48-26.07,1.16-5.22,2.9-8.12,8.11-8.7,14.48,0,13.33,15.07,19.12,24.34,26.66,4.64,4,11,8.11,9.85,15.06-.58,3.48-3.48,6.95-6.38,7.54-6.37,2.31-13.32.57-18.53-4.06-2.9-2.32-4.06-7.53-8.7-6.95-1.15.58-2.32,1.73-1.74,2.9.58,5.79,1.74,11.59,4.06,16.22,2.32,2.32,4.05-1.74,6.37-1.74,8.69,2.32,19.7,3.48,27.81-.58,5.8-2.9,8.12-8.69,9.85-13.91,4.06-16.8-13.9-25.49-24.91-33-3.48-2.9-8.11-6.37-7.54-11.59,0-1.74,1.17-3.47,2.9-5.21Z" style="fill-rule:evenodd"/><path d="M245.41,274.77c18,3.48,41.14,5.22,52.73-11,8.69-11.59,9.27-30.13,3.47-43.46-8.11-18.54-29-19.69-46.92-18-6.38,1.16-13.33,1.74-18,5.8-1.73,5.21,4.64,3.47,6.38,7v48.67l-1.16,1.73c-1.16,1.16-2.9.59-4.06,1.16s-1.74,1.75-1.16,3.48c1.74,3.48,5.22,3.48,8.69,4.64Zm16.81-64.31c9.27-2.9,19.11.57,23.17,9.85,5.22,12.74,5.22,31.28-2.9,42.29q-6.08,7.83-15.64,7a12.36,12.36,0,0,1-7-1.75l-1.16-2.31v-51c0-1.74,1.74-3.48,3.48-4Z" style="fill-rule:evenodd"/><path d="M111,270.71c11.59,8.12,30.13,8.7,42.3,1.17,8.11-4.64,11.58-12.76,14.48-20.29,1.74,2.9,2.9,6.38,4.64,9.27a31.32,31.32,0,0,0,25.49,15.65c13.91,1.74,27.23-2.32,34.77-14.49,7.53-11.59,8.11-30.71,1.15-42.87-8.69-16.23-27.81-19.7-44-15.07-10.43,2.9-19.12,13.91-22,23.76-2.32-7-6.37-15.07-13.32-19.7-11-7-28.4-8.12-40-1.74-9.85,5.21-15.64,15.64-16.8,26.07-2.32,14.49,1.15,29,13.32,38.24ZM196.74,211a18,18,0,0,1,14.49,1.17,21.64,21.64,0,0,1,7.53,8.69c5.22,13.32,5.79,33-5.21,44.61a16.83,16.83,0,0,1-15.65,2.9c-13.32-4.64-13.9-19.12-14.48-30.71C184.58,227.26,186.31,216.25,196.74,211ZM129,210.46c7.53-1.74,14.49,1.74,18.54,8.11,6.38,12.17,6.38,29.55.58,41.72C145.18,265.5,140,269,134.75,269c-5.8.58-11-1.16-14.49-5.8-5.79-6.95-6.37-15.06-7-24.33.58-11,3.47-24.34,15.64-28.39Z" style="fill-rule:evenodd"/><path d="M74.49,212.77H89c4.06,0,6.38,4.64,9.27,6.95,1.16,0,2.9,0,3.48-1.15.58-2.9-1.74-5.8-2.32-8.69-1.16-1.74-1.16-4.06-3.47-4.06-15.65-.58-28.4-.58-44,0L50.15,207c-1.74,5.21,5.22,3.47,6.38,6.37v56.21c-1.16,2.89-4.64.57-6.38,2.89-.58,1.74-.58,4.06,1.16,4.64H72.75c2.32,0,5.21.58,6.37-1.74,1.74-5.79-5.79-2.9-7-6.38V242.9l.58-1.74c4.64-1.16,11,0,15.07-.57l2.31-2.32A4.51,4.51,0,0,0,89,233.63c-5.21-1.16-10.42-.58-15.64-.58l-1.16-1.16V215.67C72.17,214.51,73.33,213.35,74.49,212.77Zm274.63,71.85H53.63c-24.92,2.89-19.12,33.6,0,33.6H349.12C370.57,315.91,371.14,285.78,349.12,284.62ZM77.38,310.69v-.58c0-.58,1.16-.58,1.16-1.73v-9.85L78,298c-1.73,1.73-2.89,4.63-4.63,6.37-1.74-1.16-2.9-4.06-5.22-6.95l-.58,1.16V309c.58,1.15,1.74.57,1.74,1.74-1.74,0-5.21.57-5.21-.59L65.8,309V294.47c0-.58-1.16-1.16-1.74-1.16v-.57c6.37-2.32,6.37,5.21,9.85,7.53h.58c2.89-2.32,2.89-10.43,9.27-7.53,0,.57-1.16.57-1.74,1.15V309c0,.58,1.74.58,1.74,1.74H77.38Zm57.37,0h-6.38c.58-1.16,2.32-1.16,1.74-2.89-.58-1.16-.58-2.9-2.32-2.9s-4.63-1.16-5.21,2.32V309c0,.58,1.16.57,1.16,1.15a11.31,11.31,0,0,1-4.64.58c-.58-1.16.58-.58,1.16-1.16,2.32-5.79,4.06-11.58,5.79-16.8a2.14,2.14,0,0,1,1.74-.58c2.32,5.8,3.48,11,5.8,16.81,0,.57,2.89,1.15,1.16,1.73Zm51,0c-5.79,2.32-5.79-5.21-8.69-7.53-1.16-2.9,3.48-1.74,3.48-4.64,0-1.15,0-2.89-1.16-4-.58-.58-1.74-1.74-2.9-.58l-1.16,1.16V309c.58,1.16,1.74.58,1.74,1.74h-6.37c-.58-1.16,1.16-.58,1.16-1.74,0-4.63.58-9.27,0-13.9,0-1.16-1.74-.58-1.16-1.16a13.46,13.46,0,0,1,11.59-.58c1.74,1.16,2.31,3.48,1.74,5.79-.58,1.75-2.32,1.75-3.48,2.9,1.74,2.9,2.9,6.95,5.79,8.69Zm51.57,0c-5.79.58-5.79-6.37-9.85-8.69.58,2.32-1.15,6.38,1.16,8.11.58.58-.58.58-1.16.58-1.74,0-3.47.58-5.21-.58l1.16-1.73V294.47l-1.16-1.16c2.31-.58,4.63-1.16,6.37,0-2.32,1.16-1.16,4.64-1.16,6.95l.58.58a40.58,40.58,0,0,0,4.64-5.79l-1.16-1.74c1.74-1.16,4.06-.58,5.21,0,0,.58-1.15,1.16-1.73,1.74l-3.48,4.63c1.74,3.48,3.48,7.54,7,9.85.58,1.16-.58,1.16-1.16,1.16Zm51-2.31-1.16,2.31H275a.57.57,0,0,1-.57-.58c.57-1.15,1.74-.58,1.74-1.15V294.47c0-1.16-1.74-.58-1.16-1.74l.57-.58h11c.57.58.57,2.32,1.15,2.9,0,.58,0,.58-.58.58s-1.15-1.16-1.74-1.74h-5.21c-1.16,1.16-.58,2.32-.58,3.48,0,.58-.58,1.73.58,1.73l3.48.58c.57,0,.57,0,.57.58s0,.58-.57,1.16h-3.48c-1.16.58-.58,1.16-.58,2.32V309c.58.58,5.21,0,5.79,0,1.16,0,1.74-2.31,2.9-1.73v1.16Zm49.83-12.17c-1.16-1.16-2.32-2.9-4.64-1.74l-.58.58.58,13.32c0,1.16,1.16.58,1.16,1.74-1.74,1.16-4.64.58-6.37.58-.58-1.16.58-1.16,1.15-1.74V295.63c-.57-1.74-2.31-1.74-3.47-1.16l-1.74,1.74c-1.16-.58-.58-2.9.58-3.48H337c1.15.58,1.15,1.16,1.74,2.32l-.58,1.16Z" style="fill-rule:evenodd"/><path d="M124.32,303.16h4.05c-.58-1.74-1.74-5.79-2.32-5.79C126.05,297.37,124.9,301.42,124.32,303.16Z" style="fill-rule:evenodd"/><path d="M350.29,273.61h1.15c.58,0,.58,0,.58.58s-.58.58-1.15.58h-.58Zm-.59,3.48h.59v-1.74h.58l1.15,1.74h1.16L352,275.35c.58,0,1.16,0,1.16-1.16,0-.58-.58-1.16-1.74-1.16H349.7v4.06Zm-2.31-1.74a3.88,3.88,0,0,0,4.05,3.48,3.74,3.74,0,0,0,3.48-3.48,3.88,3.88,0,0,0-3.48-4.06A4,4,0,0,0,347.39,275.35Zm1.16,0a2.9,2.9,0,1,1,2.89,2.9A2.73,2.73,0,0,1,348.55,275.35Z" style="fill:#2b2c2d;fill-rule:evenodd"/></svg>